<svg width="1628" height="825" viewBox="0 0 1628 825" fill="none" xmlns="http://www.w3.org/2000/svg">
<g filter="url(#filter0_d)">
<rect x="50" y="88" width="85.0619" height="223" rx="5" fill="white"/>
</g>
<line x1="97.7773" y1="217.242" x2="89.5815" y2="217.242" stroke="#A2A5B2" stroke-linecap="round"/>
<line x1="97.7773" y1="162.067" x2="89.5815" y2="162.067" stroke="#A2A5B2" stroke-linecap="round"/>
<path d="M79.886 124.784H107.474" stroke="#687089" stroke-width="1.5" stroke-linecap="round" stroke-linejoin="round"/>
<path d="M93.6799 110.99V138.577" stroke="#687089" stroke-width="1.5" stroke-linecap="round" stroke-linejoin="round"/>
<path d="M79.8862 189.154H107.474" stroke="#687089" stroke-width="1.5" stroke-linecap="round" stroke-linejoin="round"/>
<path d="M89.9138 241.182C90.6816 239.248 93.4196 239.248 94.1874 241.182L101.752 260.239C102.351 261.749 101.239 263.387 99.6149 263.387H84.4863C82.8624 263.387 81.7504 261.749 82.3495 260.239L89.9138 241.182Z" fill="#F44A45"/>
<path d="M94.1873 287.891C93.4194 289.826 90.6815 289.826 89.9137 287.891L82.3493 268.834C81.7503 267.325 82.8623 265.687 84.4861 265.687L99.6148 265.687C101.239 265.687 102.351 267.325 101.752 268.834L94.1873 287.891Z" fill="#A2A5B2"/>
<g filter="url(#filter1_d)">
<rect x="917" y="88" width="76" height="73" rx="4.16667" fill="white"/>
</g>
<path d="M952.563 133.129C958.95 133.129 964.128 127.951 964.128 121.564C964.128 115.178 958.95 110 952.563 110C946.177 110 940.999 115.178 940.999 121.564C940.999 127.951 946.177 133.129 952.563 133.129Z" stroke="#F44A45" stroke-width="2.67" stroke-linecap="round" stroke-linejoin="round"/>
<path d="M969.91 138.911L960.73 129.732" stroke="#F44A45" stroke-width="2.67" stroke-linecap="round" stroke-linejoin="round"/>
<g filter="url(#filter2_d)">
<path d="M1029 88H1533V723H1029V88Z" fill="url(#paint0_linear)"/>
</g>
<rect x="1084" y="407" width="49" height="35" rx="2.64865" fill="white"/>
<mask id="mask0" mask-type="alpha" maskUnits="userSpaceOnUse" x="1084" y="407" width="49" height="35">
<rect x="1084" y="407" width="49" height="35" rx="2.64865" fill="white"/>
</mask>
<g mask="url(#mask0)">
<rect x="1084" y="407" width="49" height="35" fill="#F1361D"/>
<path fill-rule="evenodd" clip-rule="evenodd" d="M1101.63 417.425L1103.33 417.714L1104.6 418.871L1104.89 417.177L1106.05 415.906L1104.35 415.617L1103.08 414.459L1102.79 416.154L1101.63 417.425ZM1106.17 423.353L1107.64 422.459L1109.36 422.498L1108.46 421.03L1108.5 419.311L1107.03 420.205L1105.32 420.165L1106.21 421.634L1106.17 423.353ZM1104.18 432.948L1102.74 433.892L1102.72 432.173L1101.78 430.737L1103.5 430.716L1104.93 429.772L1104.95 431.491L1105.9 432.928L1104.18 432.948ZM1105.43 428.503L1107.14 428.314L1108.68 429.076L1108.49 427.367L1109.25 425.826L1107.54 426.016L1106 425.253L1106.19 426.962L1105.43 428.503Z" fill="#FFDC42"/>
<path fill-rule="evenodd" clip-rule="evenodd" d="M1095.67 426.397L1091.55 429.33L1093.07 424.51L1089.01 421.503L1094.06 421.458L1095.67 416.667L1097.27 421.458L1102.32 421.503L1098.26 424.51L1099.78 429.33L1095.67 426.397Z" fill="#FFDC42"/>
</g>
<path d="M1171.35 436.409C1169.36 436.409 1167.59 435.98 1166.04 435.122C1164.5 434.264 1163.29 433.048 1162.42 431.474C1161.55 429.9 1161.12 428.094 1161.12 426.055C1161.12 424.027 1161.55 422.231 1162.41 420.667C1163.26 419.092 1164.47 417.876 1166.01 417.019C1167.56 416.161 1169.34 415.732 1171.35 415.732C1173.01 415.732 1174.52 416.014 1175.89 416.58C1177.27 417.145 1178.4 417.962 1179.3 419.032C1180.2 420.091 1180.77 421.322 1181.02 422.725H1176.98C1176.67 421.655 1176 420.783 1174.99 420.106C1173.97 419.42 1172.75 419.077 1171.32 419.077C1170.04 419.077 1168.91 419.365 1167.93 419.94C1166.96 420.515 1166.22 421.338 1165.69 422.407C1165.17 423.467 1164.9 424.693 1164.9 426.085C1164.9 427.488 1165.17 428.719 1165.71 429.779C1166.24 430.828 1166.99 431.631 1167.96 432.186C1168.94 432.741 1170.06 433.018 1171.32 433.018C1172.7 433.018 1173.91 432.685 1174.94 432.019C1175.98 431.343 1176.66 430.45 1176.98 429.34H1181.02C1180.79 430.722 1180.23 431.953 1179.34 433.033C1178.46 434.103 1177.33 434.935 1175.95 435.531C1174.58 436.116 1173.05 436.409 1171.35 436.409ZM1183.72 414.733H1187.19V423.785C1187.6 423.149 1188.19 422.649 1188.96 422.286C1189.72 421.923 1190.55 421.741 1191.44 421.741C1193.07 421.741 1194.34 422.246 1195.24 423.255C1196.14 424.254 1196.59 425.652 1196.59 427.448V436H1193.12V428.25C1193.12 426.968 1192.84 426.085 1192.27 425.601C1191.72 425.117 1191.09 424.875 1190.38 424.875C1189.55 424.875 1188.81 425.117 1188.14 425.601C1187.48 426.085 1187.16 426.908 1187.16 428.068V436H1183.72V414.733ZM1202.02 419.471C1201.31 419.471 1200.73 419.249 1200.28 418.805C1199.82 418.361 1199.6 417.811 1199.6 417.155C1199.6 416.489 1199.82 415.939 1200.28 415.505C1200.73 415.071 1201.31 414.854 1202.02 414.854C1202.73 414.854 1203.3 415.071 1203.73 415.505C1204.17 415.939 1204.4 416.489 1204.4 417.155C1204.4 417.791 1204.17 418.335 1203.71 418.79C1203.26 419.244 1202.7 419.471 1202.02 419.471ZM1200.28 422.18H1203.75V436H1200.28V422.18ZM1215.17 421.741C1216.78 421.741 1218.04 422.251 1218.97 423.27C1219.91 424.279 1220.38 425.672 1220.38 427.448V436H1216.9V428.25C1216.9 426 1215.98 424.875 1214.14 424.875C1213.16 424.875 1212.39 425.162 1211.84 425.737C1211.31 426.312 1211.04 427.09 1211.04 428.068V436H1207.6V422.18H1210.48L1210.74 423.845C1211.17 423.209 1211.79 422.7 1212.58 422.316C1213.38 421.933 1214.24 421.741 1215.17 421.741ZM1238.09 422.18V436H1234.78V434.047C1234.3 434.774 1233.62 435.349 1232.73 435.773C1231.85 436.197 1230.87 436.409 1229.78 436.409C1228.5 436.409 1227.36 436.111 1226.36 435.516C1225.37 434.91 1224.6 434.062 1224.06 432.973C1223.51 431.873 1223.24 430.596 1223.24 429.143C1223.24 427.68 1223.53 426.388 1224.1 425.268C1224.68 424.138 1225.48 423.27 1226.51 422.665C1227.55 422.049 1228.74 421.741 1230.08 421.741C1231.13 421.741 1232.08 421.933 1232.91 422.316C1233.76 422.7 1234.43 423.24 1234.93 423.936L1235.2 422.18H1238.09ZM1230.64 433.275C1231.8 433.275 1232.75 432.882 1233.47 432.095C1234.21 431.308 1234.58 430.283 1234.58 429.022C1234.58 427.761 1234.22 426.751 1233.5 425.995C1232.8 425.228 1231.85 424.844 1230.67 424.844C1229.49 424.844 1228.54 425.233 1227.83 426.01C1227.12 426.777 1226.77 427.791 1226.77 429.052C1226.77 430.314 1227.13 431.333 1227.84 432.11C1228.56 432.887 1229.49 433.275 1230.64 433.275Z" fill="#13615F"/>
<path d="M1378.83 425.82C1379.58 426.125 1380.16 426.613 1380.59 427.285C1381.01 427.957 1381.22 428.723 1381.22 429.582C1381.22 430.527 1380.97 431.348 1380.48 432.043C1380 432.738 1379.33 433.273 1378.49 433.648C1377.65 434.023 1376.71 434.211 1375.65 434.211C1374.58 434.211 1373.62 434.023 1372.76 433.648C1371.91 433.273 1371.24 432.734 1370.75 432.031C1370.28 431.328 1370.04 430.504 1370.04 429.559C1370.04 428.691 1370.25 427.93 1370.68 427.273C1371.12 426.609 1371.7 426.117 1372.42 425.797C1371.86 425.461 1371.4 424.996 1371.06 424.402C1370.71 423.809 1370.54 423.168 1370.54 422.48C1370.54 421.684 1370.76 420.973 1371.19 420.348C1371.62 419.723 1372.23 419.23 1373 418.871C1373.78 418.512 1374.66 418.332 1375.65 418.332C1376.64 418.332 1377.52 418.512 1378.29 418.871C1379.06 419.23 1379.66 419.727 1380.09 420.359C1380.52 420.992 1380.74 421.707 1380.74 422.504C1380.74 423.223 1380.56 423.879 1380.21 424.473C1379.86 425.066 1379.4 425.516 1378.83 425.82ZM1375.63 420.723C1374.93 420.723 1374.35 420.91 1373.91 421.285C1373.47 421.652 1373.25 422.129 1373.25 422.715C1373.25 423.324 1373.48 423.82 1373.93 424.203C1374.39 424.578 1374.96 424.766 1375.65 424.766C1376.34 424.766 1376.91 424.578 1377.35 424.203C1377.8 423.82 1378.03 423.332 1378.03 422.738C1378.03 422.129 1377.81 421.641 1377.36 421.273C1376.93 420.906 1376.35 420.723 1375.63 420.723ZM1375.63 431.82C1376.46 431.82 1377.14 431.602 1377.67 431.164C1378.2 430.719 1378.46 430.145 1378.46 429.441C1378.46 428.723 1378.2 428.152 1377.67 427.73C1377.14 427.301 1376.47 427.086 1375.65 427.086C1374.82 427.086 1374.14 427.301 1373.6 427.73C1373.06 428.152 1372.79 428.715 1372.79 429.418C1372.79 430.137 1373.06 430.719 1373.6 431.164C1374.14 431.602 1374.82 431.82 1375.63 431.82ZM1383.02 421.156C1384.29 421.156 1385.24 420.945 1385.88 420.523C1386.53 420.102 1386.96 419.465 1387.17 418.613H1389.6V434H1386.86V423.219H1383.02V421.156ZM1393.93 430.684C1394.51 430.684 1395 430.887 1395.39 431.293C1395.78 431.691 1395.97 432.227 1395.97 432.898C1395.97 433.984 1395.62 434.891 1394.91 435.617C1394.2 436.344 1393.28 436.758 1392.16 436.859V436.016C1392.87 435.906 1393.41 435.656 1393.79 435.266C1394.18 434.883 1394.36 434.445 1394.34 433.953C1394.19 434.031 1393.99 434.07 1393.75 434.07C1393.29 434.07 1392.9 433.926 1392.59 433.637C1392.27 433.348 1392.12 432.957 1392.12 432.465C1392.12 431.949 1392.29 431.523 1392.62 431.188C1392.96 430.852 1393.39 430.684 1393.93 430.684ZM1404.7 424.496C1406.01 424.637 1407.05 425.129 1407.83 425.973C1408.62 426.809 1409.02 427.875 1409.02 429.172C1409.02 430.164 1408.77 431.047 1408.29 431.82C1407.81 432.586 1407.15 433.18 1406.3 433.602C1405.45 434.023 1404.5 434.234 1403.43 434.234C1402.37 434.234 1401.42 434.023 1400.58 433.602C1399.74 433.18 1399.09 432.578 1398.62 431.797C1398.16 431.008 1397.94 430.102 1397.95 429.078H1400.66C1400.66 429.891 1400.92 430.551 1401.45 431.059C1401.97 431.566 1402.64 431.82 1403.47 431.82C1404.29 431.82 1404.96 431.574 1405.49 431.082C1406.02 430.582 1406.29 429.922 1406.29 429.102C1406.29 428.336 1406.05 427.73 1405.58 427.285C1405.12 426.832 1404.5 426.574 1403.72 426.512C1403.45 426.48 1402.9 426.465 1402.08 426.465H1401.19V424.613L1404.87 420.992H1398.87V418.613H1408.28V420.945L1404.7 424.496ZM1422.48 428.551V430.859H1420.56V434H1417.9V430.859H1410.8V428.773L1417.15 418.613H1420.56V428.551H1422.48ZM1417.9 428.551V421.836L1413.69 428.551H1417.9ZM1430.09 434.27C1428.87 434.27 1427.81 433.949 1426.92 433.309C1426.04 432.668 1425.36 431.754 1424.89 430.566C1424.43 429.371 1424.2 427.957 1424.2 426.324C1424.2 423.848 1424.72 421.898 1425.75 420.477C1426.78 419.047 1428.23 418.332 1430.09 418.332C1431.32 418.332 1432.38 418.652 1433.26 419.293C1434.15 419.926 1434.83 420.844 1435.3 422.047C1435.78 423.25 1436.02 424.676 1436.02 426.324C1436.02 427.957 1435.78 429.371 1435.3 430.566C1434.83 431.754 1434.15 432.668 1433.26 433.309C1432.37 433.949 1431.31 434.27 1430.09 434.27ZM1430.11 431.82C1431.13 431.82 1431.9 431.344 1432.42 430.391C1432.94 429.438 1433.2 428.082 1433.2 426.324C1433.2 424.566 1432.94 423.207 1432.42 422.246C1431.9 421.285 1431.13 420.805 1430.11 420.805C1429.09 420.805 1428.31 421.281 1427.78 422.234C1427.25 423.18 1426.99 424.543 1426.99 426.324C1426.99 428.066 1427.25 429.418 1427.78 430.379C1428.31 431.34 1429.09 431.82 1430.11 431.82Z" fill="#035755"/>
<path d="M1467.65 430.617C1467.05 431.337 1465.95 431.337 1465.35 430.617L1457.05 420.66C1456.24 419.683 1456.93 418.2 1458.2 418.2L1474.8 418.2C1476.07 418.2 1476.76 419.683 1475.95 420.66L1467.65 430.617Z" fill="#128E5A"/>
<path d="M1162.23 360V340.125H1165.86V360H1162.23ZM1177.2 349.026H1174.56V360H1171.1V349.026H1168.46V346.18H1171.1V342.547H1174.56V346.18H1177.2V349.026ZM1193.53 346.18V360H1190.21V358.047C1189.74 358.774 1189.06 359.349 1188.17 359.773C1187.29 360.197 1186.31 360.409 1185.22 360.409C1183.94 360.409 1182.8 360.111 1181.8 359.516C1180.81 358.91 1180.04 358.062 1179.5 356.973C1178.95 355.873 1178.68 354.596 1178.68 353.143C1178.68 351.68 1178.97 350.388 1179.54 349.268C1180.12 348.138 1180.92 347.27 1181.95 346.665C1182.99 346.049 1184.18 345.741 1185.52 345.741C1186.57 345.741 1187.51 345.933 1188.35 346.316C1189.2 346.7 1189.87 347.24 1190.36 347.936L1190.64 346.18H1193.53ZM1186.08 357.275C1187.24 357.275 1188.18 356.882 1188.91 356.095C1189.65 355.308 1190.02 354.283 1190.02 353.022C1190.02 351.761 1189.66 350.751 1188.94 349.995C1188.24 349.228 1187.29 348.844 1186.11 348.844C1184.93 348.844 1183.98 349.233 1183.27 350.01C1182.56 350.777 1182.21 351.791 1182.21 353.052C1182.21 354.314 1182.56 355.333 1183.28 356.11C1184 356.887 1184.93 357.275 1186.08 357.275ZM1197.31 338.733H1200.78V360H1197.31V338.733ZM1218.09 346.18L1211.74 362.452C1211.22 363.734 1210.56 364.743 1209.74 365.479C1208.92 366.226 1207.74 366.6 1206.18 366.6C1205.33 366.6 1204.5 366.499 1203.67 366.297L1203.71 363.436C1204.48 363.577 1205.11 363.653 1205.59 363.663C1206.54 363.663 1207.22 363.486 1207.64 363.133C1208.06 362.78 1208.39 362.24 1208.63 361.514L1209.01 360.56L1203.09 346.18H1206.83L1210.59 356.307L1214.43 346.18H1218.09Z" fill="#13615F"/>
<rect x="1084.34" y="331.337" width="48.3269" height="34.3269" rx="2.35577" fill="white" stroke="#F5F5F5" stroke-width="0.673077"/>
<mask id="mask1" mask-type="alpha" maskUnits="userSpaceOnUse" x="1084" y="331" width="49" height="35">
<rect x="1084.34" y="331.337" width="48.3269" height="34.3269" rx="2.35577" fill="white" stroke="white" stroke-width="0.673077"/>
</mask>
<g mask="url(#mask1)">
<rect x="1116.67" y="331" width="16.3333" height="35" fill="#E43D4C"/>
<path fill-rule="evenodd" clip-rule="evenodd" d="M1084 366H1100.33V331H1084V366Z" fill="#1BB65D"/>
</g>
<path d="M1372.5 349.82C1373.25 350.125 1373.84 350.613 1374.26 351.285C1374.68 351.957 1374.89 352.723 1374.89 353.582C1374.89 354.527 1374.64 355.348 1374.15 356.043C1373.67 356.738 1373 357.273 1372.16 357.648C1371.32 358.023 1370.38 358.211 1369.32 358.211C1368.25 358.211 1367.29 358.023 1366.43 357.648C1365.58 357.273 1364.91 356.734 1364.43 356.031C1363.95 355.328 1363.71 354.504 1363.71 353.559C1363.71 352.691 1363.93 351.93 1364.36 351.273C1364.79 350.609 1365.37 350.117 1366.09 349.797C1365.53 349.461 1365.07 348.996 1364.73 348.402C1364.39 347.809 1364.21 347.168 1364.21 346.48C1364.21 345.684 1364.43 344.973 1364.86 344.348C1365.3 343.723 1365.9 343.23 1366.68 342.871C1367.45 342.512 1368.33 342.332 1369.32 342.332C1370.32 342.332 1371.2 342.512 1371.96 342.871C1372.73 343.23 1373.34 343.727 1373.77 344.359C1374.2 344.992 1374.41 345.707 1374.41 346.504C1374.41 347.223 1374.23 347.879 1373.88 348.473C1373.53 349.066 1373.07 349.516 1372.5 349.82ZM1369.3 344.723C1368.6 344.723 1368.02 344.91 1367.58 345.285C1367.14 345.652 1366.92 346.129 1366.92 346.715C1366.92 347.324 1367.15 347.82 1367.6 348.203C1368.06 348.578 1368.64 348.766 1369.32 348.766C1370.01 348.766 1370.58 348.578 1371.02 348.203C1371.48 347.82 1371.7 347.332 1371.7 346.738C1371.7 346.129 1371.48 345.641 1371.04 345.273C1370.6 344.906 1370.02 344.723 1369.3 344.723ZM1369.3 355.82C1370.14 355.82 1370.82 355.602 1371.34 355.164C1371.87 354.719 1372.14 354.145 1372.14 353.441C1372.14 352.723 1371.87 352.152 1371.34 351.73C1370.82 351.301 1370.14 351.086 1369.32 351.086C1368.5 351.086 1367.81 351.301 1367.27 351.73C1366.73 352.152 1366.46 352.715 1366.46 353.418C1366.46 354.137 1366.73 354.719 1367.27 355.164C1367.81 355.602 1368.49 355.82 1369.3 355.82ZM1382.93 347.781C1383.95 347.781 1384.88 347.992 1385.7 348.414C1386.52 348.836 1387.17 349.438 1387.64 350.219C1388.12 350.992 1388.36 351.883 1388.36 352.891C1388.36 353.914 1388.1 354.836 1387.59 355.656C1387.09 356.469 1386.39 357.102 1385.5 357.555C1384.61 358.008 1383.59 358.234 1382.45 358.234C1381.32 358.234 1380.32 358.008 1379.47 357.555C1378.63 357.102 1377.97 356.477 1377.5 355.68C1377.04 354.875 1376.81 353.977 1376.81 352.984C1376.81 352.023 1377 351.145 1377.38 350.348C1377.75 349.543 1378.26 348.688 1378.9 347.781L1382.4 342.613H1385.4L1381.71 347.898C1382.05 347.82 1382.45 347.781 1382.93 347.781ZM1382.55 355.82C1383.41 355.82 1384.14 355.555 1384.72 355.023C1385.31 354.492 1385.6 353.797 1385.6 352.938C1385.6 352.086 1385.32 351.406 1384.75 350.898C1384.18 350.383 1383.47 350.125 1382.62 350.125C1381.76 350.125 1381.03 350.383 1380.45 350.898C1379.87 351.406 1379.58 352.094 1379.58 352.961C1379.58 353.828 1379.86 354.523 1380.42 355.047C1380.99 355.562 1381.7 355.82 1382.55 355.82ZM1391.82 354.684C1392.4 354.684 1392.89 354.887 1393.28 355.293C1393.67 355.691 1393.86 356.227 1393.86 356.898C1393.86 357.984 1393.51 358.891 1392.8 359.617C1392.09 360.344 1391.17 360.758 1390.05 360.859V360.016C1390.76 359.906 1391.3 359.656 1391.68 359.266C1392.07 358.883 1392.25 358.445 1392.23 357.953C1392.08 358.031 1391.88 358.07 1391.64 358.07C1391.18 358.07 1390.79 357.926 1390.48 357.637C1390.16 357.348 1390.01 356.957 1390.01 356.465C1390.01 355.949 1390.18 355.523 1390.51 355.188C1390.85 354.852 1391.29 354.684 1391.82 354.684ZM1406.54 352.551V354.859H1404.62V358H1401.96V354.859H1394.86V352.773L1401.21 342.613H1404.62V352.551H1406.54ZM1401.96 352.551V345.836L1397.75 352.551H1401.96ZM1414.22 342.332C1415.35 342.332 1416.35 342.562 1417.21 343.023C1418.07 343.484 1418.74 344.117 1419.2 344.922C1419.67 345.719 1419.9 346.621 1419.9 347.629C1419.9 348.301 1419.8 348.945 1419.59 349.562C1419.38 350.18 1419.15 350.711 1418.88 351.156C1418.62 351.594 1418.25 352.148 1417.79 352.82L1414.29 358H1411.29L1414.98 352.738C1414.54 352.816 1414.13 352.859 1413.76 352.867C1412.74 352.867 1411.82 352.652 1411 352.223C1410.18 351.785 1409.54 351.176 1409.06 350.395C1408.59 349.605 1408.36 348.715 1408.36 347.723C1408.36 346.684 1408.61 345.754 1409.11 344.934C1409.62 344.105 1410.32 343.465 1411.21 343.012C1412.1 342.559 1413.1 342.332 1414.22 342.332ZM1411.12 347.652C1411.12 348.504 1411.4 349.188 1411.96 349.703C1412.52 350.211 1413.23 350.465 1414.08 350.465C1414.96 350.465 1415.69 350.211 1416.26 349.703C1416.84 349.188 1417.12 348.504 1417.12 347.652C1417.12 346.785 1416.84 346.098 1416.27 345.59C1415.7 345.082 1414.99 344.828 1414.15 344.828C1413.28 344.828 1412.56 345.094 1411.98 345.625C1411.41 346.148 1411.12 346.824 1411.12 347.652ZM1430.62 349.82C1431.38 350.125 1431.96 350.613 1432.38 351.285C1432.8 351.957 1433.02 352.723 1433.02 353.582C1433.02 354.527 1432.77 355.348 1432.28 356.043C1431.79 356.738 1431.13 357.273 1430.29 357.648C1429.45 358.023 1428.5 358.211 1427.45 358.211C1426.38 358.211 1425.41 358.023 1424.55 357.648C1423.7 357.273 1423.04 356.734 1422.55 356.031C1422.07 355.328 1421.84 354.504 1421.84 353.559C1421.84 352.691 1422.05 351.93 1422.48 351.273C1422.92 350.609 1423.5 350.117 1424.21 349.797C1423.65 349.461 1423.2 348.996 1422.86 348.402C1422.51 347.809 1422.34 347.168 1422.34 346.48C1422.34 345.684 1422.55 344.973 1422.98 344.348C1423.42 343.723 1424.03 343.23 1424.8 342.871C1425.57 342.512 1426.46 342.332 1427.45 342.332C1428.44 342.332 1429.32 342.512 1430.09 342.871C1430.86 343.23 1431.46 343.727 1431.89 344.359C1432.32 344.992 1432.54 345.707 1432.54 346.504C1432.54 347.223 1432.36 347.879 1432.01 348.473C1431.66 349.066 1431.2 349.516 1430.62 349.82ZM1427.43 344.723C1426.72 344.723 1426.15 344.91 1425.7 345.285C1425.27 345.652 1425.05 346.129 1425.05 346.715C1425.05 347.324 1425.27 347.82 1425.73 348.203C1426.19 348.578 1426.76 348.766 1427.45 348.766C1428.14 348.766 1428.7 348.578 1429.15 348.203C1429.6 347.82 1429.83 347.332 1429.83 346.738C1429.83 346.129 1429.61 345.641 1429.16 345.273C1428.72 344.906 1428.14 344.723 1427.43 344.723ZM1427.43 355.82C1428.26 355.82 1428.94 355.602 1429.46 355.164C1430 354.719 1430.26 354.145 1430.26 353.441C1430.26 352.723 1430 352.152 1429.46 351.73C1428.94 351.301 1428.27 351.086 1427.45 351.086C1426.62 351.086 1425.94 351.301 1425.4 351.73C1424.86 352.152 1424.59 352.715 1424.59 353.418C1424.59 354.137 1424.86 354.719 1425.4 355.164C1425.94 355.602 1426.61 355.82 1427.43 355.82Z" fill="#035755"/>
<path d="M1465.35 343.383C1465.95 342.663 1467.05 342.663 1467.65 343.383L1475.95 353.34C1476.76 354.317 1476.07 355.8 1474.8 355.8H1458.2C1456.93 355.8 1456.24 354.317 1457.05 353.34L1465.35 343.383Z" fill="#F44A45"/>
<path d="M1162.07 264.125H1165.71V276.689C1165.71 278.223 1166.14 279.338 1167.01 280.034C1167.88 280.73 1168.98 281.079 1170.32 281.079C1171.75 281.079 1172.88 280.71 1173.71 279.974C1174.55 279.227 1174.97 278.132 1174.97 276.689V264.125H1178.6V276.84C1178.6 278.475 1178.24 279.863 1177.53 281.003C1176.81 282.133 1175.83 282.986 1174.58 283.561C1173.34 284.126 1171.92 284.409 1170.32 284.409C1168.71 284.409 1167.28 284.121 1166.04 283.546C1164.8 282.961 1163.82 282.103 1163.12 280.973C1162.42 279.832 1162.07 278.455 1162.07 276.84V264.125ZM1182.25 269.771C1182.25 268.55 1182.54 267.486 1183.13 266.578C1183.72 265.669 1184.56 264.968 1185.63 264.474C1186.71 263.979 1187.95 263.732 1189.35 263.732C1190.73 263.732 1191.96 263.974 1193.04 264.458C1194.12 264.943 1194.97 265.629 1195.57 266.517C1196.18 267.405 1196.48 268.439 1196.48 269.62H1192.74C1192.72 268.772 1192.38 268.091 1191.73 267.577C1191.08 267.052 1190.23 266.79 1189.17 266.79C1188.2 266.79 1187.42 267.032 1186.84 267.516C1186.26 267.99 1185.97 268.606 1185.97 269.363C1185.97 270.11 1186.23 270.66 1186.73 271.013C1187.25 271.366 1187.93 271.643 1188.77 271.845L1192.03 272.647C1193.51 273.001 1194.71 273.652 1195.63 274.6C1196.55 275.539 1197.01 276.75 1197.01 278.233C1197.01 279.474 1196.7 280.559 1196.07 281.487C1195.46 282.416 1194.58 283.137 1193.44 283.652C1192.31 284.156 1190.99 284.409 1189.49 284.409C1187.26 284.409 1185.44 283.869 1184.04 282.789C1182.64 281.699 1181.89 280.221 1181.77 278.354H1185.51C1185.55 279.282 1185.93 280.014 1186.67 280.549C1187.41 281.074 1188.37 281.336 1189.55 281.336C1190.69 281.336 1191.58 281.094 1192.23 280.609C1192.87 280.125 1193.19 279.459 1193.19 278.611C1193.19 277.885 1192.97 277.335 1192.51 276.961C1192.06 276.588 1191.46 276.311 1190.73 276.129L1187.4 275.327C1185.76 274.933 1184.5 274.277 1183.6 273.359C1182.7 272.431 1182.25 271.235 1182.25 269.771ZM1205.38 264.125H1209.07L1216.44 284H1212.6L1211 279.474H1203.4L1201.72 284H1197.96L1205.38 264.125ZM1209.94 276.462L1208.66 272.965C1208.54 272.632 1208.21 271.648 1207.67 270.014L1207.24 268.772C1207.16 269.045 1206.97 269.615 1206.67 270.483C1206.36 271.351 1206.06 272.178 1205.74 272.965L1204.44 276.462H1209.94Z" fill="#13615F"/>
<rect x="1084" y="255" width="49" height="35" rx="2.69231" fill="white"/>
<mask id="mask2" mask-type="alpha" maskUnits="userSpaceOnUse" x="1084" y="255" width="49" height="35">
<rect x="1084" y="255" width="49" height="35" rx="2.69231" fill="white"/>
</mask>
<g mask="url(#mask2)">
<path fill-rule="evenodd" clip-rule="evenodd" d="M1133 255H1084V257.333H1133V255ZM1133 259.667H1084V262H1133V259.667ZM1084 264.333H1133V266.666H1084V264.333ZM1133 269H1084V271.333H1133V269ZM1084 273.667H1133V276H1084V273.667ZM1133 278.334H1084V280.667H1133V278.334ZM1084 283H1133V285.333H1084V283ZM1133 287.667H1084V290H1133V287.667Z" fill="#D02F44"/>
<rect x="1084" y="255" width="21" height="16.3333" fill="#46467F"/>
<g filter="url(#filter3_d)">
<path fill-rule="evenodd" clip-rule="evenodd" d="M1093.33 258.5C1093.33 259.144 1092.81 259.667 1092.17 259.667C1091.52 259.667 1091 259.144 1091 258.5C1091 257.856 1091.52 257.333 1092.17 257.333C1092.81 257.333 1093.33 257.856 1093.33 258.5ZM1088.67 258.5C1088.67 259.145 1088.14 259.667 1087.5 259.667C1086.85 259.667 1086.33 259.145 1086.33 258.5C1086.33 257.856 1086.85 257.334 1087.5 257.334C1088.14 257.334 1088.67 257.856 1088.67 258.5ZM1096.83 259.667C1097.48 259.667 1098 259.144 1098 258.5C1098 257.856 1097.48 257.333 1096.83 257.333C1096.19 257.333 1095.67 257.856 1095.67 258.5C1095.67 259.144 1096.19 259.667 1096.83 259.667ZM1102.67 258.5C1102.67 259.144 1102.14 259.667 1101.5 259.667C1100.86 259.667 1100.33 259.144 1100.33 258.5C1100.33 257.856 1100.86 257.333 1101.5 257.333C1102.14 257.333 1102.67 257.856 1102.67 258.5ZM1089.83 262C1090.48 262 1091 261.478 1091 260.834C1091 260.189 1090.48 259.667 1089.83 259.667C1089.19 259.667 1088.66 260.189 1088.66 260.834C1088.66 261.478 1089.19 262 1089.83 262ZM1095.66 260.834C1095.66 261.478 1095.14 262 1094.5 262C1093.85 262 1093.33 261.478 1093.33 260.834C1093.33 260.189 1093.85 259.667 1094.5 259.667C1095.14 259.667 1095.66 260.189 1095.66 260.834ZM1099.16 262C1099.81 262 1100.33 261.478 1100.33 260.834C1100.33 260.189 1099.81 259.667 1099.16 259.667C1098.52 259.667 1098 260.189 1098 260.834C1098 261.478 1098.52 262 1099.16 262ZM1102.67 263.167C1102.67 263.811 1102.14 264.334 1101.5 264.334C1100.86 264.334 1100.33 263.811 1100.33 263.167C1100.33 262.523 1100.86 262 1101.5 262C1102.14 262 1102.67 262.523 1102.67 263.167ZM1096.83 264.334C1097.48 264.334 1098 263.811 1098 263.167C1098 262.523 1097.48 262 1096.83 262C1096.19 262 1095.67 262.523 1095.67 263.167C1095.67 263.811 1096.19 264.334 1096.83 264.334ZM1093.33 263.167C1093.33 263.811 1092.81 264.334 1092.17 264.334C1091.52 264.334 1091 263.811 1091 263.167C1091 262.523 1091.52 262 1092.17 262C1092.81 262 1093.33 262.523 1093.33 263.167ZM1087.5 264.334C1088.14 264.334 1088.67 263.811 1088.67 263.167C1088.67 262.523 1088.14 262 1087.5 262C1086.85 262 1086.33 262.523 1086.33 263.167C1086.33 263.811 1086.85 264.334 1087.5 264.334ZM1091 265.5C1091 266.145 1090.48 266.667 1089.83 266.667C1089.19 266.667 1088.66 266.145 1088.66 265.5C1088.66 264.856 1089.19 264.334 1089.83 264.334C1090.48 264.334 1091 264.856 1091 265.5ZM1094.5 266.667C1095.14 266.667 1095.66 266.145 1095.66 265.5C1095.66 264.856 1095.14 264.334 1094.5 264.334C1093.85 264.334 1093.33 264.856 1093.33 265.5C1093.33 266.145 1093.85 266.667 1094.5 266.667ZM1100.33 265.5C1100.33 266.145 1099.81 266.667 1099.16 266.667C1098.52 266.667 1098 266.145 1098 265.5C1098 264.856 1098.52 264.334 1099.16 264.334C1099.81 264.334 1100.33 264.856 1100.33 265.5ZM1101.5 269C1102.14 269 1102.67 268.478 1102.67 267.833C1102.67 267.189 1102.14 266.667 1101.5 266.667C1100.86 266.667 1100.33 267.189 1100.33 267.833C1100.33 268.478 1100.86 269 1101.5 269ZM1098 267.833C1098 268.478 1097.48 269 1096.83 269C1096.19 269 1095.67 268.478 1095.67 267.833C1095.67 267.189 1096.19 266.667 1096.83 266.667C1097.48 266.667 1098 267.189 1098 267.833ZM1092.17 269C1092.81 269 1093.33 268.478 1093.33 267.833C1093.33 267.189 1092.81 266.667 1092.17 266.667C1091.52 266.667 1091 267.189 1091 267.833C1091 268.478 1091.52 269 1092.17 269ZM1088.67 267.833C1088.67 268.478 1088.14 269 1087.5 269C1086.85 269 1086.33 268.478 1086.33 267.833C1086.33 267.189 1086.85 266.667 1087.5 266.667C1088.14 266.667 1088.67 267.189 1088.67 267.833Z" fill="url(#paint1_linear)"/>
</g>
</g>
<path d="M1353.48 269.156C1354.74 269.156 1355.7 268.945 1356.34 268.523C1356.98 268.102 1357.41 267.465 1357.62 266.613H1360.05V282H1357.31V271.219H1353.48V269.156ZM1368.64 282.27C1367.42 282.27 1366.37 281.949 1365.48 281.309C1364.59 280.668 1363.92 279.754 1363.45 278.566C1362.99 277.371 1362.76 275.957 1362.76 274.324C1362.76 271.848 1363.27 269.898 1364.3 268.477C1365.34 267.047 1366.78 266.332 1368.64 266.332C1369.88 266.332 1370.93 266.652 1371.82 267.293C1372.71 267.926 1373.39 268.844 1373.86 270.047C1374.33 271.25 1374.57 272.676 1374.57 274.324C1374.57 275.957 1374.33 277.371 1373.86 278.566C1373.39 279.754 1372.71 280.668 1371.82 281.309C1370.93 281.949 1369.87 282.27 1368.64 282.27ZM1368.66 279.82C1369.69 279.82 1370.46 279.344 1370.97 278.391C1371.5 277.438 1371.76 276.082 1371.76 274.324C1371.76 272.566 1371.5 271.207 1370.97 270.246C1370.46 269.285 1369.69 268.805 1368.66 268.805C1367.64 268.805 1366.86 269.281 1366.33 270.234C1365.81 271.18 1365.55 272.543 1365.55 274.324C1365.55 276.066 1365.81 277.418 1366.33 278.379C1366.86 279.34 1367.64 279.82 1368.66 279.82ZM1382.35 282.27C1381.13 282.27 1380.08 281.949 1379.19 281.309C1378.3 280.668 1377.63 279.754 1377.16 278.566C1376.7 277.371 1376.47 275.957 1376.47 274.324C1376.47 271.848 1376.98 269.898 1378.02 268.477C1379.05 267.047 1380.49 266.332 1382.35 266.332C1383.59 266.332 1384.64 266.652 1385.53 267.293C1386.42 267.926 1387.1 268.844 1387.57 270.047C1388.04 271.25 1388.28 272.676 1388.28 274.324C1388.28 275.957 1388.04 277.371 1387.57 278.566C1387.1 279.754 1386.42 280.668 1385.53 281.309C1384.64 281.949 1383.58 282.27 1382.35 282.27ZM1382.38 279.82C1383.4 279.82 1384.17 279.344 1384.68 278.391C1385.21 277.438 1385.47 276.082 1385.47 274.324C1385.47 272.566 1385.21 271.207 1384.68 270.246C1384.17 269.285 1383.4 268.805 1382.38 268.805C1381.35 268.805 1380.57 269.281 1380.04 270.234C1379.52 271.18 1379.26 272.543 1379.26 274.324C1379.26 276.066 1379.52 277.418 1380.04 278.379C1380.57 279.34 1381.35 279.82 1382.38 279.82ZM1391.01 278.684C1391.59 278.684 1392.07 278.887 1392.46 279.293C1392.86 279.691 1393.05 280.227 1393.05 280.898C1393.05 281.984 1392.7 282.891 1391.98 283.617C1391.27 284.344 1390.36 284.758 1389.24 284.859V284.016C1389.95 283.906 1390.49 283.656 1390.87 283.266C1391.25 282.883 1391.44 282.445 1391.42 281.953C1391.27 282.031 1391.07 282.07 1390.82 282.07C1390.36 282.07 1389.98 281.926 1389.66 281.637C1389.35 281.348 1389.2 280.957 1389.2 280.465C1389.2 279.949 1389.36 279.523 1389.7 279.188C1390.04 278.852 1390.47 278.684 1391.01 278.684ZM1401.78 272.496C1403.09 272.637 1404.13 273.129 1404.91 273.973C1405.7 274.809 1406.09 275.875 1406.09 277.172C1406.09 278.164 1405.85 279.047 1405.37 279.82C1404.89 280.586 1404.23 281.18 1403.38 281.602C1402.53 282.023 1401.57 282.234 1400.5 282.234C1399.45 282.234 1398.5 282.023 1397.66 281.602C1396.82 281.18 1396.17 280.578 1395.7 279.797C1395.24 279.008 1395.02 278.102 1395.03 277.078H1397.74C1397.74 277.891 1398 278.551 1398.52 279.059C1399.05 279.566 1399.72 279.82 1400.55 279.82C1401.36 279.82 1402.04 279.574 1402.57 279.082C1403.1 278.582 1403.36 277.922 1403.36 277.102C1403.36 276.336 1403.13 275.73 1402.66 275.285C1402.2 274.832 1401.58 274.574 1400.8 274.512C1400.52 274.48 1399.98 274.465 1399.16 274.465H1398.27V272.613L1401.95 268.992H1395.95V266.613H1405.36V268.945L1401.78 272.496ZM1414.04 266.332C1415.17 266.332 1416.17 266.562 1417.03 267.023C1417.89 267.484 1418.56 268.117 1419.02 268.922C1419.49 269.719 1419.72 270.621 1419.72 271.629C1419.72 272.301 1419.62 272.945 1419.41 273.562C1419.2 274.18 1418.97 274.711 1418.7 275.156C1418.44 275.594 1418.07 276.148 1417.61 276.82L1414.11 282H1411.11L1414.8 276.738C1414.36 276.816 1413.95 276.859 1413.58 276.867C1412.56 276.867 1411.64 276.652 1410.82 276.223C1410 275.785 1409.36 275.176 1408.88 274.395C1408.41 273.605 1408.18 272.715 1408.18 271.723C1408.18 270.684 1408.43 269.754 1408.93 268.934C1409.44 268.105 1410.14 267.465 1411.03 267.012C1411.92 266.559 1412.92 266.332 1414.04 266.332ZM1410.95 271.652C1410.95 272.504 1411.22 273.188 1411.78 273.703C1412.34 274.211 1413.05 274.465 1413.9 274.465C1414.78 274.465 1415.51 274.211 1416.08 273.703C1416.66 273.188 1416.95 272.504 1416.95 271.652C1416.95 270.785 1416.66 270.098 1416.09 269.59C1415.52 269.082 1414.81 268.828 1413.97 268.828C1413.1 268.828 1412.38 269.094 1411.8 269.625C1411.23 270.148 1410.95 270.824 1410.95 271.652ZM1426.29 279.527H1431.98V282H1422.25V280.031L1427.73 274.102C1428.19 273.609 1428.56 273.125 1428.84 272.648C1429.12 272.164 1429.26 271.633 1429.26 271.055C1429.26 270.383 1429.04 269.84 1428.61 269.426C1428.18 269.012 1427.61 268.805 1426.91 268.805C1426.09 268.805 1425.46 269.062 1425 269.578C1424.54 270.086 1424.36 270.723 1424.43 271.488H1421.75C1421.69 270.496 1421.88 269.609 1422.31 268.828C1422.76 268.039 1423.39 267.426 1424.22 266.988C1425.06 266.551 1426 266.332 1427.06 266.332C1428.04 266.332 1428.9 266.52 1429.65 266.895C1430.4 267.27 1430.98 267.801 1431.39 268.488C1431.82 269.176 1432.03 269.969 1432.03 270.867C1432.03 271.844 1431.82 272.68 1431.42 273.375C1431.02 274.07 1430.48 274.801 1429.81 275.566L1426.29 279.527Z" fill="#035755"/>
<path d="M1464.35 267.383C1464.95 266.663 1466.05 266.663 1466.65 267.383L1474.95 277.34C1475.76 278.317 1475.07 279.8 1473.8 279.8H1457.2C1455.93 279.8 1455.24 278.317 1456.05 277.34L1464.35 267.383Z" fill="#F44A45"/>
<path d="M1161.57 497.771C1161.57 496.55 1161.87 495.486 1162.45 494.578C1163.05 493.669 1163.88 492.968 1164.95 492.474C1166.03 491.979 1167.27 491.732 1168.67 491.732C1170.06 491.732 1171.29 491.974 1172.37 492.458C1173.45 492.943 1174.29 493.629 1174.89 494.517C1175.5 495.405 1175.8 496.439 1175.8 497.62H1172.06C1172.04 496.772 1171.71 496.091 1171.05 495.577C1170.4 495.052 1169.55 494.79 1168.49 494.79C1167.52 494.79 1166.75 495.032 1166.16 495.516C1165.59 495.99 1165.3 496.606 1165.3 497.363C1165.3 498.11 1165.55 498.66 1166.05 499.013C1166.57 499.366 1167.25 499.643 1168.1 499.845L1171.35 500.647C1172.84 501.001 1174.04 501.652 1174.96 502.6C1175.87 503.539 1176.33 504.75 1176.33 506.233C1176.33 507.474 1176.02 508.559 1175.39 509.487C1174.78 510.416 1173.9 511.137 1172.76 511.652C1171.63 512.156 1170.31 512.409 1168.81 512.409C1166.58 512.409 1164.76 511.869 1163.36 510.789C1161.97 509.699 1161.21 508.221 1161.09 506.354H1164.83C1164.87 507.282 1165.26 508.014 1165.99 508.549C1166.73 509.074 1167.69 509.336 1168.87 509.336C1170.01 509.336 1170.9 509.094 1171.55 508.609C1172.2 508.125 1172.52 507.459 1172.52 506.611C1172.52 505.885 1172.29 505.335 1171.84 504.961C1171.38 504.588 1170.79 504.311 1170.05 504.129L1166.72 503.327C1165.09 502.933 1163.82 502.277 1162.92 501.359C1162.02 500.431 1161.57 499.235 1161.57 497.771ZM1187.28 497.741C1188.58 497.741 1189.74 498.049 1190.76 498.665C1191.78 499.27 1192.57 500.128 1193.15 501.238C1193.73 502.338 1194.03 503.609 1194.03 505.052C1194.03 506.495 1193.73 507.777 1193.15 508.897C1192.57 510.017 1191.78 510.885 1190.76 511.5C1189.74 512.106 1188.56 512.409 1187.23 512.409C1186.24 512.409 1185.34 512.242 1184.54 511.909C1183.73 511.576 1183.09 511.102 1182.61 510.486V518.357H1179.18V498.18H1182.02L1182.28 500.163C1182.78 499.416 1183.46 498.826 1184.34 498.392C1185.22 497.958 1186.2 497.741 1187.28 497.741ZM1186.58 509.275C1187.76 509.275 1188.7 508.887 1189.41 508.11C1190.13 507.333 1190.49 506.324 1190.49 505.083C1190.49 503.821 1190.13 502.807 1189.41 502.04C1188.7 501.263 1187.77 500.875 1186.61 500.875C1185.45 500.875 1184.51 501.263 1183.78 502.04C1183.06 502.807 1182.71 503.831 1182.71 505.113C1182.71 506.374 1183.06 507.383 1183.78 508.14C1184.5 508.897 1185.43 509.275 1186.58 509.275ZM1211.12 498.18V512H1207.8V510.047C1207.33 510.774 1206.65 511.349 1205.76 511.773C1204.88 512.197 1203.9 512.409 1202.81 512.409C1201.53 512.409 1200.38 512.111 1199.39 511.516C1198.4 510.91 1197.63 510.062 1197.08 508.973C1196.54 507.873 1196.27 506.596 1196.27 505.143C1196.27 503.68 1196.56 502.388 1197.13 501.268C1197.71 500.138 1198.51 499.27 1199.54 498.665C1200.58 498.049 1201.77 497.741 1203.11 497.741C1204.16 497.741 1205.1 497.933 1205.94 498.316C1206.79 498.7 1207.46 499.24 1207.95 499.936L1208.23 498.18H1211.12ZM1203.67 509.275C1204.83 509.275 1205.77 508.882 1206.5 508.095C1207.24 507.308 1207.6 506.283 1207.6 505.022C1207.6 503.761 1207.25 502.751 1206.53 501.995C1205.82 501.228 1204.88 500.844 1203.7 500.844C1202.52 500.844 1201.57 501.233 1200.85 502.01C1200.15 502.777 1199.79 503.791 1199.79 505.052C1199.79 506.314 1200.15 507.333 1200.87 508.11C1201.59 508.887 1202.52 509.275 1203.67 509.275ZM1216.67 495.471C1215.97 495.471 1215.39 495.249 1214.93 494.805C1214.48 494.361 1214.25 493.811 1214.25 493.155C1214.25 492.489 1214.48 491.939 1214.93 491.505C1215.39 491.071 1215.97 490.854 1216.67 490.854C1217.38 490.854 1217.95 491.071 1218.38 491.505C1218.83 491.939 1219.05 492.489 1219.05 493.155C1219.05 493.791 1218.82 494.335 1218.37 494.79C1217.91 495.244 1217.35 495.471 1216.67 495.471ZM1214.93 498.18H1218.4V512H1214.93V498.18ZM1229.83 497.741C1231.43 497.741 1232.7 498.251 1233.62 499.27C1234.56 500.279 1235.03 501.672 1235.03 503.448V512H1231.55V504.25C1231.55 502 1230.63 500.875 1228.8 500.875C1227.81 500.875 1227.04 501.162 1226.5 501.737C1225.96 502.312 1225.69 503.09 1225.69 504.068V512H1222.26V498.18H1225.13L1225.39 499.845C1225.82 499.209 1226.44 498.7 1227.24 498.316C1228.03 497.933 1228.9 497.741 1229.83 497.741Z" fill="#13615F"/>
<rect x="1084" y="483" width="49" height="35" rx="2.64865" fill="white"/>
<mask id="mask3" mask-type="alpha" maskUnits="userSpaceOnUse" x="1084" y="483" width="49" height="35">
<rect x="1084" y="483" width="49" height="35" rx="2.64865" fill="white"/>
</mask>
<g mask="url(#mask3)">
<path fill-rule="evenodd" clip-rule="evenodd" d="M1084 492.333H1133V483H1084V492.333Z" fill="#DD172C"/>
<path fill-rule="evenodd" clip-rule="evenodd" d="M1084 518H1133V508.667H1084V518Z" fill="#DD172C"/>
<path fill-rule="evenodd" clip-rule="evenodd" d="M1084 508.666H1133V492.333H1084V508.666Z" fill="#FFD133"/>
<path fill-rule="evenodd" clip-rule="evenodd" d="M1096.83 499.333H1099.17V500.5H1096.83V499.333Z" fill="#FFEDB1"/>
<path d="M1094.44 499.087C1094.42 498.829 1094.62 498.608 1094.88 498.608H1098.79C1099.05 498.608 1099.25 498.829 1099.23 499.087L1098.86 503.511C1098.8 504.198 1098.23 504.726 1097.54 504.726H1096.12C1095.44 504.726 1094.86 504.198 1094.81 503.511L1094.44 499.087Z" stroke="#A41517" stroke-width="0.882883"/>
<path fill-rule="evenodd" clip-rule="evenodd" d="M1094.5 500.5H1099.17V501.667H1098L1096.83 504L1095.67 501.667H1094.5V500.5Z" fill="#A41517"/>
<rect x="1091" y="497" width="2.33333" height="8.16667" rx="0.882883" fill="#A41517"/>
<rect x="1100.33" y="497" width="2.33333" height="8.16667" rx="0.882883" fill="#A41517"/>
<path d="M1094.5 496.433C1094.5 495.457 1095.29 494.667 1096.26 494.667H1097.4C1098.38 494.667 1099.17 495.457 1099.17 496.433V496.559C1099.17 496.802 1098.97 497 1098.72 497H1094.94C1094.7 497 1094.5 496.802 1094.5 496.559V496.433Z" fill="#A41517"/>
</g>
<path d="M1367.38 499.781C1368.4 499.781 1369.32 499.992 1370.14 500.414C1370.97 500.836 1371.62 501.438 1372.09 502.219C1372.56 502.992 1372.8 503.883 1372.8 504.891C1372.8 505.914 1372.55 506.836 1372.04 507.656C1371.54 508.469 1370.84 509.102 1369.94 509.555C1369.05 510.008 1368.04 510.234 1366.89 510.234C1365.76 510.234 1364.77 510.008 1363.92 509.555C1363.07 509.102 1362.42 508.477 1361.95 507.68C1361.49 506.875 1361.26 505.977 1361.26 504.984C1361.26 504.023 1361.45 503.145 1361.82 502.348C1362.2 501.543 1362.7 500.688 1363.34 499.781L1366.85 494.613H1369.85L1366.16 499.898C1366.49 499.82 1366.9 499.781 1367.38 499.781ZM1367 507.82C1367.86 507.82 1368.58 507.555 1369.17 507.023C1369.75 506.492 1370.05 505.797 1370.05 504.938C1370.05 504.086 1369.76 503.406 1369.19 502.898C1368.62 502.383 1367.91 502.125 1367.07 502.125C1366.2 502.125 1365.48 502.383 1364.89 502.898C1364.31 503.406 1364.02 504.094 1364.02 504.961C1364.02 505.828 1364.3 506.523 1364.87 507.047C1365.44 507.562 1366.15 507.82 1367 507.82ZM1386.23 504.551V506.859H1384.31V510H1381.65V506.859H1374.55V504.773L1380.9 494.613H1384.31V504.551H1386.23ZM1381.65 504.551V497.836L1377.44 504.551H1381.65ZM1389.58 506.684C1390.16 506.684 1390.64 506.887 1391.04 507.293C1391.43 507.691 1391.62 508.227 1391.62 508.898C1391.62 509.984 1391.27 510.891 1390.55 511.617C1389.84 512.344 1388.93 512.758 1387.81 512.859V512.016C1388.52 511.906 1389.06 511.656 1389.44 511.266C1389.82 510.883 1390.01 510.445 1389.99 509.953C1389.84 510.031 1389.64 510.07 1389.39 510.07C1388.93 510.07 1388.55 509.926 1388.23 509.637C1387.92 509.348 1387.77 508.957 1387.77 508.465C1387.77 507.949 1387.93 507.523 1388.27 507.188C1388.61 506.852 1389.04 506.684 1389.58 506.684ZM1399.02 510.27C1397.8 510.27 1396.74 509.949 1395.85 509.309C1394.97 508.668 1394.29 507.754 1393.82 506.566C1393.36 505.371 1393.13 503.957 1393.13 502.324C1393.13 499.848 1393.65 497.898 1394.68 496.477C1395.71 495.047 1397.16 494.332 1399.02 494.332C1400.25 494.332 1401.31 494.652 1402.19 495.293C1403.08 495.926 1403.76 496.844 1404.23 498.047C1404.71 499.25 1404.95 500.676 1404.95 502.324C1404.95 503.957 1404.71 505.371 1404.23 506.566C1403.76 507.754 1403.08 508.668 1402.19 509.309C1401.3 509.949 1400.24 510.27 1399.02 510.27ZM1399.04 507.82C1400.06 507.82 1400.83 507.344 1401.35 506.391C1401.87 505.438 1402.13 504.082 1402.13 502.324C1402.13 500.566 1401.87 499.207 1401.35 498.246C1400.83 497.285 1400.06 496.805 1399.04 496.805C1398.02 496.805 1397.24 497.281 1396.71 498.234C1396.18 499.18 1395.92 500.543 1395.92 502.324C1395.92 504.066 1396.18 505.418 1396.71 506.379C1397.24 507.34 1398.02 507.82 1399.04 507.82ZM1412.98 499.875C1413.99 499.875 1414.89 500.094 1415.68 500.531C1416.48 500.969 1417.1 501.578 1417.54 502.359C1418 503.133 1418.22 504.008 1418.22 504.984C1418.22 506.008 1417.97 506.918 1417.46 507.715C1416.96 508.504 1416.28 509.117 1415.41 509.555C1414.55 509.992 1413.58 510.211 1412.5 510.211C1411.43 510.211 1410.48 509.996 1409.63 509.566C1408.8 509.137 1408.14 508.535 1407.66 507.762C1407.2 506.98 1406.96 506.086 1406.96 505.078H1409.68C1409.68 505.875 1409.94 506.531 1410.46 507.047C1411 507.562 1411.67 507.82 1412.48 507.82C1413.33 507.82 1414.04 507.555 1414.59 507.023C1415.15 506.492 1415.43 505.805 1415.43 504.961C1415.43 504.133 1415.16 503.457 1414.62 502.934C1414.09 502.41 1413.39 502.148 1412.5 502.148C1411.96 502.148 1411.45 502.258 1410.98 502.477C1410.51 502.695 1410.15 502.988 1409.89 503.355L1407.28 503.039L1409.27 494.613H1417.31V496.992H1411.33L1410.44 500.473C1411.13 500.074 1411.98 499.875 1412.98 499.875ZM1426.25 494.332C1427.38 494.332 1428.38 494.562 1429.24 495.023C1430.11 495.484 1430.77 496.117 1431.23 496.922C1431.7 497.719 1431.93 498.621 1431.93 499.629C1431.93 500.301 1431.83 500.945 1431.62 501.562C1431.41 502.18 1431.18 502.711 1430.91 503.156C1430.65 503.594 1430.29 504.148 1429.82 504.82L1426.32 510H1423.32L1427.01 504.738C1426.57 504.816 1426.16 504.859 1425.79 504.867C1424.77 504.867 1423.85 504.652 1423.03 504.223C1422.21 503.785 1421.57 503.176 1421.09 502.395C1420.62 501.605 1420.39 500.715 1420.39 499.723C1420.39 498.684 1420.64 497.754 1421.14 496.934C1421.65 496.105 1422.35 495.465 1423.24 495.012C1424.13 494.559 1425.13 494.332 1426.25 494.332ZM1423.16 499.652C1423.16 500.504 1423.43 501.188 1423.99 501.703C1424.55 502.211 1425.26 502.465 1426.11 502.465C1426.99 502.465 1427.72 502.211 1428.29 501.703C1428.87 501.188 1429.16 500.504 1429.16 499.652C1429.16 498.785 1428.87 498.098 1428.3 497.59C1427.73 497.082 1427.02 496.828 1426.18 496.828C1425.31 496.828 1424.59 497.094 1424.01 497.625C1423.44 498.148 1423.16 498.824 1423.16 499.652Z" fill="#035755"/>
<path d="M1464.35 495.383C1464.95 494.663 1466.05 494.663 1466.65 495.383L1474.95 505.34C1475.76 506.317 1475.07 507.8 1473.8 507.8H1457.2C1455.93 507.8 1455.24 506.317 1456.05 505.34L1464.35 495.383Z" fill="#F44A45"/>
<path d="M1181.15 577.208V579.1C1181.15 580.936 1180.72 582.561 1179.87 583.974C1179.03 585.376 1177.85 586.466 1176.33 587.243C1174.83 588.02 1173.11 588.409 1171.19 588.409C1169.18 588.409 1167.42 587.985 1165.9 587.137C1164.39 586.29 1163.21 585.099 1162.38 583.565C1161.54 582.021 1161.12 580.235 1161.12 578.207C1161.12 576.138 1161.55 574.316 1162.41 572.742C1163.26 571.158 1164.47 569.927 1166.01 569.049C1167.56 568.171 1169.34 567.732 1171.35 567.732C1172.97 567.732 1174.43 568.014 1175.74 568.58C1177.06 569.145 1178.16 569.942 1179.03 570.971C1179.89 571.99 1180.46 573.161 1180.74 574.483H1176.86C1176.47 573.413 1175.77 572.581 1174.77 571.985C1173.77 571.38 1172.6 571.077 1171.25 571.077C1169.28 571.077 1167.72 571.723 1166.58 573.015C1165.44 574.306 1164.87 576.017 1164.87 578.146C1164.87 580.275 1165.45 581.955 1166.6 583.187C1167.76 584.408 1169.32 585.018 1171.28 585.018C1172.91 585.018 1174.26 584.609 1175.33 583.792C1176.41 582.965 1177.06 581.804 1177.27 580.311H1170.97V577.208H1181.15ZM1197.31 583.686C1197.01 585.099 1196.24 586.239 1195 587.107C1193.75 587.975 1192.28 588.409 1190.56 588.409C1189.14 588.409 1187.88 588.101 1186.79 587.485C1185.71 586.86 1184.87 585.992 1184.26 584.882C1183.67 583.762 1183.37 582.475 1183.37 581.022C1183.37 579.559 1183.67 578.282 1184.28 577.192C1184.89 576.092 1185.74 575.245 1186.81 574.649C1187.89 574.044 1189.11 573.741 1190.47 573.741C1191.81 573.741 1193 574.029 1194.03 574.604C1195.07 575.169 1195.87 575.946 1196.43 576.935C1197 577.924 1197.28 579.059 1197.28 580.341C1197.28 581.027 1197.23 581.597 1197.13 582.051H1186.78C1186.82 583.101 1187.18 583.948 1187.87 584.594C1188.56 585.23 1189.46 585.548 1190.56 585.548C1191.39 585.548 1192.1 585.386 1192.7 585.063C1193.3 584.73 1193.71 584.271 1193.94 583.686H1197.31ZM1193.75 579.72C1193.73 578.751 1193.41 577.99 1192.79 577.435C1192.17 576.869 1191.37 576.587 1190.38 576.587C1189.37 576.587 1188.54 576.875 1187.88 577.45C1187.23 578.015 1186.88 578.772 1186.84 579.72H1193.75ZM1207.01 574.044C1207.47 574.054 1207.9 574.099 1208.32 574.18V577.147C1207.94 577.107 1207.67 577.086 1207.5 577.086C1206.26 577.086 1205.3 577.435 1204.62 578.131C1203.96 578.817 1203.62 579.791 1203.62 581.052V588H1200.16V574.18H1203.29L1203.59 576.163C1203.8 575.477 1204.2 574.952 1204.82 574.589C1205.44 574.226 1206.17 574.044 1207.01 574.044ZM1227.03 573.741C1228.52 573.741 1229.72 574.2 1230.64 575.119C1231.56 576.037 1232.02 577.293 1232.02 578.888V588H1228.58V579.72C1228.58 578.731 1228.35 577.99 1227.87 577.495C1227.41 577.001 1226.79 576.753 1226.01 576.753C1225.1 576.753 1224.39 577.046 1223.88 577.631C1223.37 578.217 1223.12 578.963 1223.12 579.872V588H1219.71V579.72C1219.71 578.792 1219.48 578.065 1219 577.541C1218.53 577.016 1217.88 576.753 1217.05 576.753C1216.2 576.753 1215.52 577.051 1215.01 577.646C1214.5 578.242 1214.25 578.984 1214.25 579.872V588H1210.78V574.18H1213.95L1214.13 575.664C1214.54 575.068 1215.1 574.599 1215.81 574.256C1216.53 573.913 1217.29 573.741 1218.09 573.741C1219.1 573.741 1220.01 573.973 1220.8 574.438C1221.6 574.902 1222.18 575.537 1222.53 576.345C1222.94 575.517 1223.54 574.876 1224.32 574.422C1225.09 573.968 1226 573.741 1227.03 573.741ZM1249.75 574.18V588H1246.43V586.047C1245.96 586.774 1245.28 587.349 1244.39 587.773C1243.51 588.197 1242.53 588.409 1241.44 588.409C1240.15 588.409 1239.01 588.111 1238.01 587.516C1237.03 586.91 1236.26 586.062 1235.71 584.973C1235.17 583.873 1234.9 582.596 1234.9 581.143C1234.9 579.68 1235.18 578.388 1235.76 577.268C1236.33 576.138 1237.14 575.27 1238.17 574.665C1239.21 574.049 1240.4 573.741 1241.74 573.741C1242.79 573.741 1243.73 573.933 1244.57 574.316C1245.42 574.7 1246.09 575.24 1246.58 575.936L1246.85 574.18H1249.75ZM1242.3 585.275C1243.46 585.275 1244.4 584.882 1245.13 584.095C1245.87 583.308 1246.23 582.283 1246.23 581.022C1246.23 579.761 1245.88 578.751 1245.16 577.995C1244.45 577.228 1243.51 576.844 1242.33 576.844C1241.15 576.844 1240.2 577.233 1239.48 578.01C1238.78 578.777 1238.42 579.791 1238.42 581.052C1238.42 582.314 1238.78 583.333 1239.5 584.11C1240.21 584.887 1241.15 585.275 1242.3 585.275ZM1261.1 573.741C1262.7 573.741 1263.97 574.251 1264.9 575.27C1265.84 576.279 1266.31 577.672 1266.31 579.448V588H1262.82V580.25C1262.82 578 1261.91 576.875 1260.07 576.875C1259.08 576.875 1258.31 577.162 1257.77 577.737C1257.23 578.312 1256.97 579.09 1256.97 580.068V588H1253.53V574.18H1256.41L1256.66 575.845C1257.1 575.209 1257.71 574.7 1258.51 574.316C1259.31 573.933 1260.17 573.741 1261.1 573.741ZM1283.15 574.18L1276.79 590.452C1276.28 591.734 1275.61 592.743 1274.8 593.479C1273.98 594.226 1272.79 594.6 1271.24 594.6C1270.39 594.6 1269.55 594.499 1268.73 594.297L1268.77 591.436C1269.54 591.577 1270.17 591.653 1270.65 591.663C1271.6 591.663 1272.28 591.486 1272.69 591.133C1273.12 590.78 1273.45 590.24 1273.69 589.514L1274.07 588.56L1268.15 574.18H1271.89L1275.64 584.307L1279.49 574.18H1283.15Z" fill="#13615F"/>
<rect x="1084" y="559" width="49" height="35" rx="2.69231" fill="white"/>
<mask id="mask4" mask-type="alpha" maskUnits="userSpaceOnUse" x="1084" y="559" width="49" height="35">
<rect x="1084" y="559" width="49" height="35" rx="2.69231" fill="white"/>
</mask>
<g mask="url(#mask4)">
<path fill-rule="evenodd" clip-rule="evenodd" d="M1084 570.667H1133V559H1084V570.667Z" fill="#262626"/>
<g filter="url(#filter4_d)">
<path fill-rule="evenodd" clip-rule="evenodd" d="M1084 582.333H1133V570.667H1084V582.333Z" fill="#F01515"/>
</g>
<g filter="url(#filter5_d)">
<path fill-rule="evenodd" clip-rule="evenodd" d="M1084 594H1133V582.333H1084V594Z" fill="#FFD521"/>
</g>
</g>
<path d="M1374.99 575.875C1376 575.875 1376.9 576.094 1377.69 576.531C1378.48 576.969 1379.11 577.578 1379.55 578.359C1380 579.133 1380.23 580.008 1380.23 580.984C1380.23 582.008 1379.98 582.918 1379.47 583.715C1378.97 584.504 1378.29 585.117 1377.42 585.555C1376.56 585.992 1375.59 586.211 1374.51 586.211C1373.44 586.211 1372.48 585.996 1371.64 585.566C1370.8 585.137 1370.15 584.535 1369.67 583.762C1369.2 582.98 1368.97 582.086 1368.97 581.078H1371.69C1371.69 581.875 1371.95 582.531 1372.47 583.047C1373 583.562 1373.68 583.82 1374.49 583.82C1375.34 583.82 1376.04 583.555 1376.6 583.023C1377.16 582.492 1377.44 581.805 1377.44 580.961C1377.44 580.133 1377.17 579.457 1376.63 578.934C1376.1 578.41 1375.39 578.148 1374.51 578.148C1373.96 578.148 1373.46 578.258 1372.99 578.477C1372.52 578.695 1372.16 578.988 1371.9 579.355L1369.29 579.039L1371.28 570.613H1379.32V572.992H1373.34L1372.45 576.473C1373.14 576.074 1373.98 575.875 1374.99 575.875ZM1388.12 586.27C1386.9 586.27 1385.84 585.949 1384.95 585.309C1384.07 584.668 1383.39 583.754 1382.93 582.566C1382.46 581.371 1382.23 579.957 1382.23 578.324C1382.23 575.848 1382.75 573.898 1383.78 572.477C1384.81 571.047 1386.26 570.332 1388.12 570.332C1389.35 570.332 1390.41 570.652 1391.29 571.293C1392.18 571.926 1392.86 572.844 1393.33 574.047C1393.81 575.25 1394.05 576.676 1394.05 578.324C1394.05 579.957 1393.81 581.371 1393.33 582.566C1392.86 583.754 1392.18 584.668 1391.29 585.309C1390.4 585.949 1389.34 586.27 1388.12 586.27ZM1388.14 583.82C1389.16 583.82 1389.93 583.344 1390.45 582.391C1390.97 581.438 1391.23 580.082 1391.23 578.324C1391.23 576.566 1390.97 575.207 1390.45 574.246C1389.93 573.285 1389.16 572.805 1388.14 572.805C1387.12 572.805 1386.34 573.281 1385.81 574.234C1385.29 575.18 1385.02 576.543 1385.02 578.324C1385.02 580.066 1385.29 581.418 1385.81 582.379C1386.34 583.34 1387.12 583.82 1388.14 583.82ZM1396.78 582.684C1397.36 582.684 1397.84 582.887 1398.23 583.293C1398.62 583.691 1398.82 584.227 1398.82 584.898C1398.82 585.984 1398.46 586.891 1397.75 587.617C1397.04 588.344 1396.12 588.758 1395.01 588.859V588.016C1395.71 587.906 1396.25 587.656 1396.64 587.266C1397.02 586.883 1397.2 586.445 1397.19 585.953C1397.03 586.031 1396.83 586.07 1396.59 586.07C1396.13 586.07 1395.74 585.926 1395.43 585.637C1395.12 585.348 1394.96 584.957 1394.96 584.465C1394.96 583.949 1395.13 583.523 1395.46 583.188C1395.8 582.852 1396.24 582.684 1396.78 582.684ZM1409.45 577.82C1410.2 578.125 1410.78 578.613 1411.2 579.285C1411.62 579.957 1411.84 580.723 1411.84 581.582C1411.84 582.527 1411.59 583.348 1411.1 584.043C1410.61 584.738 1409.95 585.273 1409.11 585.648C1408.27 586.023 1407.32 586.211 1406.27 586.211C1405.2 586.211 1404.23 586.023 1403.38 585.648C1402.52 585.273 1401.86 584.734 1401.37 584.031C1400.89 583.328 1400.66 582.504 1400.66 581.559C1400.66 580.691 1400.87 579.93 1401.3 579.273C1401.74 578.609 1402.32 578.117 1403.04 577.797C1402.47 577.461 1402.02 576.996 1401.68 576.402C1401.33 575.809 1401.16 575.168 1401.16 574.48C1401.16 573.684 1401.38 572.973 1401.8 572.348C1402.24 571.723 1402.85 571.23 1403.62 570.871C1404.39 570.512 1405.28 570.332 1406.27 570.332C1407.26 570.332 1408.14 570.512 1408.91 570.871C1409.68 571.23 1410.28 571.727 1410.71 572.359C1411.14 572.992 1411.36 573.707 1411.36 574.504C1411.36 575.223 1411.18 575.879 1410.83 576.473C1410.48 577.066 1410.02 577.516 1409.45 577.82ZM1406.25 572.723C1405.54 572.723 1404.97 572.91 1404.52 573.285C1404.09 573.652 1403.87 574.129 1403.87 574.715C1403.87 575.324 1404.09 575.82 1404.55 576.203C1405.01 576.578 1405.58 576.766 1406.27 576.766C1406.96 576.766 1407.52 576.578 1407.97 576.203C1408.42 575.82 1408.65 575.332 1408.65 574.738C1408.65 574.129 1408.43 573.641 1407.98 573.273C1407.54 572.906 1406.96 572.723 1406.25 572.723ZM1406.25 583.82C1407.08 583.82 1407.76 583.602 1408.29 583.164C1408.82 582.719 1409.08 582.145 1409.08 581.441C1409.08 580.723 1408.82 580.152 1408.29 579.73C1407.76 579.301 1407.09 579.086 1406.27 579.086C1405.44 579.086 1404.76 579.301 1404.22 579.73C1403.68 580.152 1403.41 580.715 1403.41 581.418C1403.41 582.137 1403.68 582.719 1404.22 583.164C1404.76 583.602 1405.43 583.82 1406.25 583.82ZM1423.4 570.613V572.758L1417.33 586H1414.43L1420.36 572.992H1413.3V570.613H1423.4ZM1424.7 573.156C1425.97 573.156 1426.92 572.945 1427.56 572.523C1428.21 572.102 1428.64 571.465 1428.85 570.613H1431.28V586H1428.54V575.219H1424.7V573.156Z" fill="#035755"/>
<path d="M1464.35 571.383C1464.95 570.663 1466.05 570.663 1466.65 571.383L1474.95 581.34C1475.76 582.317 1475.07 583.8 1473.8 583.8H1457.2C1455.93 583.8 1455.24 582.317 1456.05 581.34L1464.35 571.383Z" fill="#F44A45"/>
<path d="M1162.23 664V644.125H1165.86V664H1162.23ZM1176.68 650.044C1177.13 650.054 1177.57 650.099 1177.98 650.18V653.147C1177.61 653.107 1177.34 653.086 1177.17 653.086C1175.92 653.086 1174.97 653.435 1174.29 654.131C1173.62 654.817 1173.29 655.791 1173.29 657.052V664H1169.82V650.18H1172.96L1173.26 652.163C1173.46 651.477 1173.87 650.952 1174.49 650.589C1175.1 650.226 1175.83 650.044 1176.68 650.044ZM1194.31 650.18V664H1191V662.047C1190.53 662.774 1189.84 663.349 1188.96 663.773C1188.08 664.197 1187.09 664.409 1186 664.409C1184.72 664.409 1183.58 664.111 1182.58 663.516C1181.6 662.91 1180.83 662.062 1180.28 660.973C1179.74 659.873 1179.47 658.596 1179.47 657.143C1179.47 655.68 1179.75 654.388 1180.33 653.268C1180.9 652.138 1181.71 651.27 1182.74 650.665C1183.77 650.049 1184.97 649.741 1186.31 649.741C1187.36 649.741 1188.3 649.933 1189.14 650.316C1189.99 650.7 1190.66 651.24 1191.15 651.936L1191.42 650.18H1194.31ZM1186.87 661.275C1188.03 661.275 1188.97 660.882 1189.7 660.095C1190.43 659.308 1190.8 658.283 1190.8 657.022C1190.8 655.761 1190.44 654.751 1189.73 653.995C1189.02 653.228 1188.08 652.844 1186.9 652.844C1185.72 652.844 1184.77 653.233 1184.05 654.01C1183.35 654.777 1182.99 655.791 1182.99 657.052C1182.99 658.314 1183.35 659.333 1184.07 660.11C1184.78 660.887 1185.72 661.275 1186.87 661.275ZM1205.67 649.741C1207.27 649.741 1208.54 650.251 1209.47 651.27C1210.41 652.279 1210.87 653.672 1210.87 655.448V664H1207.39V656.25C1207.39 654 1206.47 652.875 1204.64 652.875C1203.65 652.875 1202.88 653.162 1202.34 653.737C1201.8 654.312 1201.54 655.09 1201.54 656.068V664H1198.1V650.18H1200.98L1201.23 651.845C1201.67 651.209 1202.28 650.7 1203.08 650.316C1203.88 649.933 1204.74 649.741 1205.67 649.741Z" fill="#13615F"/>
<rect x="1084.34" y="635.337" width="48.3269" height="34.3269" rx="2.35577" fill="white" stroke="#F5F5F5" stroke-width="0.673077"/>
<mask id="mask5" mask-type="alpha" maskUnits="userSpaceOnUse" x="1084" y="635" width="49" height="35">
<rect x="1084.34" y="635.337" width="48.3269" height="34.3269" rx="2.35577" fill="white" stroke="white" stroke-width="0.673077"/>
</mask>
<g mask="url(#mask5)">
<path fill-rule="evenodd" clip-rule="evenodd" d="M1084 646.667H1133V635H1084V646.667Z" fill="#38BB56"/>
<path fill-rule="evenodd" clip-rule="evenodd" d="M1084 670H1133V658.333H1084V670Z" fill="#DE1B27"/>
<path fill-rule="evenodd" clip-rule="evenodd" d="M1086.78 644.333C1086.53 644.333 1086.33 644.534 1086.33 644.782V646.218C1086.33 646.465 1086.53 646.666 1086.78 646.666H1088.22C1088.46 646.666 1088.67 646.465 1088.67 646.218V644.782C1088.67 644.534 1088.46 644.333 1088.22 644.333H1086.78ZM1091.45 644.333C1091.2 644.333 1091 644.534 1091 644.782V646.218C1091 646.465 1091.2 646.666 1091.45 646.666H1092.88C1093.13 646.666 1093.33 646.465 1093.33 646.218V644.782C1093.33 644.534 1093.13 644.333 1092.88 644.333H1091.45ZM1095.67 644.782C1095.67 644.534 1095.87 644.333 1096.11 644.333H1097.55C1097.8 644.333 1098 644.534 1098 644.782V646.218C1098 646.465 1097.8 646.666 1097.55 646.666H1096.11C1095.87 646.666 1095.67 646.465 1095.67 646.218V644.782ZM1100.78 644.333C1100.53 644.333 1100.33 644.534 1100.33 644.782V646.218C1100.33 646.465 1100.53 646.666 1100.78 646.666H1102.22C1102.47 646.666 1102.67 646.465 1102.67 646.218V644.782C1102.67 644.534 1102.47 644.333 1102.22 644.333H1100.78ZM1105 644.782C1105 644.534 1105.2 644.333 1105.45 644.333H1106.88C1107.13 644.333 1107.33 644.534 1107.33 644.782V646.218C1107.33 646.465 1107.13 646.666 1106.88 646.666H1105.45C1105.2 646.666 1105 646.465 1105 646.218V644.782ZM1110.12 644.333C1109.87 644.333 1109.67 644.534 1109.67 644.782V646.218C1109.67 646.465 1109.87 646.666 1110.12 646.666H1111.55C1111.8 646.666 1112 646.465 1112 646.218V644.782C1112 644.534 1111.8 644.333 1111.55 644.333H1110.12ZM1114.33 644.782C1114.33 644.534 1114.53 644.333 1114.78 644.333H1116.22C1116.47 644.333 1116.67 644.534 1116.67 644.782V646.218C1116.67 646.465 1116.47 646.666 1116.22 646.666H1114.78C1114.53 646.666 1114.33 646.465 1114.33 646.218V644.782ZM1119.45 644.333C1119.2 644.333 1119 644.534 1119 644.782V646.218C1119 646.465 1119.2 646.666 1119.45 646.666H1120.88C1121.13 646.666 1121.33 646.465 1121.33 646.218V644.782C1121.33 644.534 1121.13 644.333 1120.88 644.333H1119.45ZM1123.66 644.782C1123.66 644.534 1123.87 644.333 1124.11 644.333H1125.55C1125.8 644.333 1126 644.534 1126 644.782V646.218C1126 646.465 1125.8 646.666 1125.55 646.666H1124.11C1123.87 646.666 1123.66 646.465 1123.66 646.218V644.782ZM1128.78 644.333C1128.53 644.333 1128.33 644.534 1128.33 644.782V646.218C1128.33 646.465 1128.53 646.666 1128.78 646.666H1130.22C1130.46 646.666 1130.66 646.465 1130.66 646.218V644.782C1130.66 644.534 1130.46 644.333 1130.22 644.333H1128.78ZM1086.33 658.782C1086.33 658.534 1086.53 658.333 1086.78 658.333H1088.22C1088.46 658.333 1088.67 658.534 1088.67 658.782V660.217C1088.67 660.465 1088.46 660.666 1088.22 660.666H1086.78C1086.53 660.666 1086.33 660.465 1086.33 660.217V658.782ZM1091.45 658.333C1091.2 658.333 1091 658.534 1091 658.782V660.217C1091 660.465 1091.2 660.666 1091.45 660.666H1092.88C1093.13 660.666 1093.33 660.465 1093.33 660.217V658.782C1093.33 658.534 1093.13 658.333 1092.88 658.333H1091.45ZM1095.67 658.782C1095.67 658.534 1095.87 658.333 1096.11 658.333H1097.55C1097.8 658.333 1098 658.534 1098 658.782V660.217C1098 660.465 1097.8 660.666 1097.55 660.666H1096.11C1095.87 660.666 1095.67 660.465 1095.67 660.217V658.782ZM1100.78 658.333C1100.53 658.333 1100.33 658.534 1100.33 658.782V660.217C1100.33 660.465 1100.53 660.666 1100.78 660.666H1102.22C1102.47 660.666 1102.67 660.465 1102.67 660.217V658.782C1102.67 658.534 1102.47 658.333 1102.22 658.333H1100.78ZM1105 658.782C1105 658.534 1105.2 658.333 1105.45 658.333H1106.88C1107.13 658.333 1107.33 658.534 1107.33 658.782V660.217C1107.33 660.465 1107.13 660.666 1106.88 660.666H1105.45C1105.2 660.666 1105 660.465 1105 660.217V658.782ZM1110.12 658.333C1109.87 658.333 1109.67 658.534 1109.67 658.782V660.217C1109.67 660.465 1109.87 660.666 1110.12 660.666H1111.55C1111.8 660.666 1112 660.465 1112 660.217V658.782C1112 658.534 1111.8 658.333 1111.55 658.333H1110.12ZM1114.33 658.782C1114.33 658.534 1114.53 658.333 1114.78 658.333H1116.22C1116.47 658.333 1116.67 658.534 1116.67 658.782V660.217C1116.67 660.465 1116.47 660.666 1116.22 660.666H1114.78C1114.53 660.666 1114.33 660.465 1114.33 660.217V658.782ZM1119.45 658.333C1119.2 658.333 1119 658.534 1119 658.782V660.217C1119 660.465 1119.2 660.666 1119.45 660.666H1120.88C1121.13 660.666 1121.33 660.465 1121.33 660.217V658.782C1121.33 658.534 1121.13 658.333 1120.88 658.333H1119.45ZM1123.66 658.782C1123.66 658.534 1123.87 658.333 1124.11 658.333H1125.55C1125.8 658.333 1126 658.534 1126 658.782V660.217C1126 660.465 1125.8 660.666 1125.55 660.666H1124.11C1123.87 660.666 1123.66 660.465 1123.66 660.217V658.782ZM1128.78 658.333C1128.53 658.333 1128.33 658.534 1128.33 658.782V660.217C1128.33 660.465 1128.53 660.666 1128.78 660.666H1130.22C1130.46 660.666 1130.66 660.465 1130.66 660.217V658.782C1130.66 658.534 1130.46 658.333 1130.22 658.333H1128.78Z" fill="white" fill-opacity="0.5"/>
<mask id="path-64-inside-1" fill="white">
<path fill-rule="evenodd" clip-rule="evenodd" d="M1106.14 649.912C1105.44 650.552 1105 651.475 1105 652.5C1105 654.433 1106.57 656 1108.5 656C1110.43 656 1112 654.433 1112 652.5C1112 651.494 1111.58 650.587 1110.9 649.949"/>
</mask>
<path d="M1105.54 649.249C1104.66 650.052 1104.1 651.212 1104.1 652.5H1105.9C1105.9 651.738 1106.22 651.053 1106.75 650.576L1105.54 649.249ZM1104.1 652.5C1104.1 654.929 1106.07 656.898 1108.5 656.898V655.103C1107.06 655.103 1105.9 653.937 1105.9 652.5H1104.1ZM1108.5 656.898C1110.93 656.898 1112.9 654.929 1112.9 652.5H1111.1C1111.1 653.937 1109.94 655.103 1108.5 655.103V656.898ZM1112.9 652.5C1112.9 651.236 1112.36 650.096 1111.51 649.295L1110.28 650.603C1110.79 651.079 1111.1 651.752 1111.1 652.5H1112.9Z" fill="#D80915" mask="url(#path-64-inside-1)"/>
<rect x="1107.33" y="651.333" width="2.33333" height="4.66667" rx="0.897436" fill="#D80915"/>
</g>
<path d="M1371.48 652.496C1372.78 652.637 1373.82 653.129 1374.61 653.973C1375.39 654.809 1375.79 655.875 1375.79 657.172C1375.79 658.164 1375.55 659.047 1375.06 659.82C1374.59 660.586 1373.92 661.18 1373.07 661.602C1372.23 662.023 1371.27 662.234 1370.2 662.234C1369.14 662.234 1368.2 662.023 1367.35 661.602C1366.52 661.18 1365.86 660.578 1365.39 659.797C1364.93 659.008 1364.71 658.102 1364.73 657.078H1367.43C1367.43 657.891 1367.7 658.551 1368.22 659.059C1368.74 659.566 1369.42 659.82 1370.25 659.82C1371.06 659.82 1371.73 659.574 1372.26 659.082C1372.79 658.582 1373.06 657.922 1373.06 657.102C1373.06 656.336 1372.82 655.73 1372.36 655.285C1371.89 654.832 1371.27 654.574 1370.49 654.512C1370.22 654.48 1369.67 654.465 1368.85 654.465H1367.96V652.613L1371.64 648.992H1365.64V646.613H1375.05V648.945L1371.48 652.496ZM1382.29 659.527H1387.99V662H1378.26V660.031L1383.73 654.102C1384.2 653.609 1384.57 653.125 1384.85 652.648C1385.13 652.164 1385.27 651.633 1385.27 651.055C1385.27 650.383 1385.05 649.84 1384.61 649.426C1384.18 649.012 1383.62 648.805 1382.91 648.805C1382.1 648.805 1381.46 649.062 1381 649.578C1380.55 650.086 1380.36 650.723 1380.44 651.488H1377.76C1377.7 650.496 1377.88 649.609 1378.32 648.828C1378.77 648.039 1379.4 647.426 1380.23 646.988C1381.07 646.551 1382.01 646.332 1383.07 646.332C1384.04 646.332 1384.91 646.52 1385.66 646.895C1386.41 647.27 1386.99 647.801 1387.4 648.488C1387.82 649.176 1388.04 649.969 1388.04 650.867C1388.04 651.844 1387.83 652.68 1387.43 653.375C1387.03 654.07 1386.49 654.801 1385.82 655.566L1382.29 659.527ZM1391.62 658.684C1392.2 658.684 1392.68 658.887 1393.07 659.293C1393.46 659.691 1393.66 660.227 1393.66 660.898C1393.66 661.984 1393.3 662.891 1392.59 663.617C1391.88 664.344 1390.97 664.758 1389.85 664.859V664.016C1390.55 663.906 1391.1 663.656 1391.48 663.266C1391.86 662.883 1392.05 662.445 1392.03 661.953C1391.88 662.031 1391.68 662.07 1391.43 662.07C1390.97 662.07 1390.59 661.926 1390.27 661.637C1389.96 661.348 1389.8 660.957 1389.8 660.465C1389.8 659.949 1389.97 659.523 1390.31 659.188C1390.64 658.852 1391.08 658.684 1391.62 658.684ZM1402.39 652.496C1403.7 652.637 1404.74 653.129 1405.52 653.973C1406.31 654.809 1406.7 655.875 1406.7 657.172C1406.7 658.164 1406.46 659.047 1405.98 659.82C1405.5 660.586 1404.84 661.18 1403.98 661.602C1403.14 662.023 1402.18 662.234 1401.11 662.234C1400.06 662.234 1399.11 662.023 1398.27 661.602C1397.43 661.18 1396.78 660.578 1396.31 659.797C1395.85 659.008 1395.62 658.102 1395.64 657.078H1398.35C1398.35 657.891 1398.61 658.551 1399.13 659.059C1399.66 659.566 1400.33 659.82 1401.16 659.82C1401.97 659.82 1402.64 659.574 1403.18 659.082C1403.71 658.582 1403.97 657.922 1403.97 657.102C1403.97 656.336 1403.74 655.73 1403.27 655.285C1402.81 654.832 1402.19 654.574 1401.41 654.512C1401.13 654.48 1400.59 654.465 1399.77 654.465H1398.88V652.613L1402.55 648.992H1396.55V646.613H1405.96V648.945L1402.39 652.496ZM1415.47 652.496C1416.77 652.637 1417.82 653.129 1418.6 653.973C1419.39 654.809 1419.78 655.875 1419.78 657.172C1419.78 658.164 1419.54 659.047 1419.05 659.82C1418.58 660.586 1417.91 661.18 1417.06 661.602C1416.22 662.023 1415.26 662.234 1414.19 662.234C1413.14 662.234 1412.19 662.023 1411.34 661.602C1410.51 661.18 1409.86 660.578 1409.39 659.797C1408.93 659.008 1408.7 658.102 1408.72 657.078H1411.43C1411.43 657.891 1411.69 658.551 1412.21 659.059C1412.73 659.566 1413.41 659.82 1414.24 659.82C1415.05 659.82 1415.72 659.574 1416.25 659.082C1416.79 658.582 1417.05 657.922 1417.05 657.102C1417.05 656.336 1416.82 655.73 1416.35 655.285C1415.89 654.832 1415.27 654.574 1414.48 654.512C1414.21 654.48 1413.66 654.465 1412.84 654.465H1411.95V652.613L1415.63 648.992H1409.63V646.613H1419.04V648.945L1415.47 652.496ZM1426.29 659.527H1431.98V662H1422.25V660.031L1427.73 654.102C1428.19 653.609 1428.56 653.125 1428.84 652.648C1429.12 652.164 1429.26 651.633 1429.26 651.055C1429.26 650.383 1429.04 649.84 1428.61 649.426C1428.18 649.012 1427.61 648.805 1426.91 648.805C1426.09 648.805 1425.46 649.062 1425 649.578C1424.54 650.086 1424.36 650.723 1424.43 651.488H1421.75C1421.69 650.496 1421.88 649.609 1422.31 648.828C1422.76 648.039 1423.39 647.426 1424.22 646.988C1425.06 646.551 1426 646.332 1427.06 646.332C1428.04 646.332 1428.9 646.52 1429.65 646.895C1430.4 647.27 1430.98 647.801 1431.39 648.488C1431.82 649.176 1432.03 649.969 1432.03 650.867C1432.03 651.844 1431.82 652.68 1431.42 653.375C1431.02 654.07 1430.48 654.801 1429.81 655.566L1426.29 659.527Z" fill="#035755"/>
<path d="M1464.35 647.383C1464.95 646.663 1466.05 646.663 1466.65 647.383L1474.95 657.34C1475.76 658.317 1475.07 659.8 1473.8 659.8H1457.2C1455.93 659.8 1455.24 658.317 1456.05 657.34L1464.35 647.383Z" fill="#F44A45"/>
<path d="M1105.84 183.914V189H1087.45V158.227H1093.12V183.914H1105.84ZM1112.64 163.406C1111.55 163.406 1110.65 163.062 1109.95 162.375C1109.24 161.688 1108.89 160.836 1108.89 159.82C1108.89 158.789 1109.24 157.938 1109.95 157.266C1110.65 156.594 1111.55 156.258 1112.64 156.258C1113.73 156.258 1114.62 156.594 1115.29 157.266C1115.98 157.938 1116.32 158.789 1116.32 159.82C1116.32 160.805 1115.97 161.648 1115.27 162.352C1114.56 163.055 1113.69 163.406 1112.64 163.406ZM1109.95 167.602H1115.31V189H1109.95V167.602ZM1124.64 167.602L1127.05 174.117C1127.73 176.07 1128.37 177.93 1128.98 179.695C1129.59 181.445 1129.98 182.641 1130.17 183.281C1130.39 182.641 1130.87 181.297 1131.6 179.25C1132.34 177.203 1132.98 175.492 1133.52 174.117L1136.08 167.602H1141.63L1132.7 189H1127.38L1118.9 167.602H1124.64ZM1164.55 182.32C1164.09 184.508 1162.89 186.273 1160.97 187.617C1159.05 188.961 1156.76 189.633 1154.1 189.633C1151.9 189.633 1149.95 189.156 1148.27 188.203C1146.59 187.234 1145.29 185.891 1144.35 184.172C1143.43 182.438 1142.97 180.445 1142.97 178.195C1142.97 175.93 1143.44 173.953 1144.38 172.266C1145.33 170.562 1146.63 169.25 1148.29 168.328C1149.96 167.391 1151.85 166.922 1153.96 166.922C1156.04 166.922 1157.88 167.367 1159.47 168.258C1161.08 169.133 1162.32 170.336 1163.2 171.867C1164.07 173.398 1164.51 175.156 1164.51 177.141C1164.51 178.203 1164.43 179.086 1164.27 179.789H1148.24C1148.3 181.414 1148.87 182.727 1149.93 183.727C1151.01 184.711 1152.4 185.203 1154.1 185.203C1155.38 185.203 1156.48 184.953 1157.41 184.453C1158.34 183.938 1158.98 183.227 1159.33 182.32H1164.55ZM1159.05 176.18C1159.02 174.68 1158.52 173.5 1157.55 172.641C1156.59 171.766 1155.35 171.328 1153.82 171.328C1152.26 171.328 1150.97 171.773 1149.95 172.664C1148.94 173.539 1148.4 174.711 1148.34 176.18H1159.05ZM1180.87 158.227H1193.08C1196.83 158.227 1199.67 159.062 1201.61 160.734C1203.56 162.391 1204.54 164.758 1204.54 167.836C1204.54 169.977 1204.04 171.805 1203.04 173.32C1202.05 174.82 1200.66 175.906 1198.87 176.578L1204.73 189H1198.45L1193.27 177.539H1186.49V189H1180.87V158.227ZM1193.08 172.641C1194.91 172.641 1196.29 172.203 1197.23 171.328C1198.16 170.438 1198.63 169.289 1198.63 167.883C1198.63 166.477 1198.16 165.344 1197.2 164.484C1196.27 163.609 1194.89 163.172 1193.08 163.172H1186.49V172.641H1193.08ZM1229.15 182.32C1228.68 184.508 1227.48 186.273 1225.56 187.617C1223.64 188.961 1221.35 189.633 1218.7 189.633C1216.49 189.633 1214.55 189.156 1212.86 188.203C1211.19 187.234 1209.88 185.891 1208.95 184.172C1208.02 182.438 1207.56 180.445 1207.56 178.195C1207.56 175.93 1208.03 173.953 1208.97 172.266C1209.92 170.562 1211.23 169.25 1212.88 168.328C1214.55 167.391 1216.45 166.922 1218.55 166.922C1220.63 166.922 1222.47 167.367 1224.06 168.258C1225.67 169.133 1226.91 170.336 1227.79 171.867C1228.66 173.398 1229.1 175.156 1229.1 177.141C1229.1 178.203 1229.02 179.086 1228.87 179.789H1212.84C1212.9 181.414 1213.46 182.727 1214.52 183.727C1215.6 184.711 1216.99 185.203 1218.7 185.203C1219.98 185.203 1221.08 184.953 1222 184.453C1222.94 183.938 1223.58 183.227 1223.92 182.32H1229.15ZM1223.64 176.18C1223.61 174.68 1223.11 173.5 1222.14 172.641C1221.19 171.766 1219.95 171.328 1218.41 171.328C1216.85 171.328 1215.56 171.773 1214.55 172.664C1213.53 173.539 1212.99 174.711 1212.93 176.18H1223.64ZM1246.09 166.922C1248.11 166.922 1249.91 167.398 1251.48 168.352C1253.06 169.289 1254.3 170.617 1255.19 172.336C1256.09 174.039 1256.55 176.008 1256.55 178.242C1256.55 180.477 1256.09 182.461 1255.19 184.195C1254.3 185.93 1253.06 187.273 1251.48 188.227C1249.91 189.164 1248.09 189.633 1246.02 189.633C1244.49 189.633 1243.1 189.375 1241.85 188.859C1240.6 188.344 1239.61 187.609 1238.88 186.656V198.844H1233.55V167.602H1237.96L1238.36 170.672C1239.12 169.516 1240.19 168.602 1241.55 167.93C1242.91 167.258 1244.42 166.922 1246.09 166.922ZM1245.02 184.781C1246.84 184.781 1248.3 184.18 1249.4 182.977C1250.51 181.773 1251.06 180.211 1251.06 178.289C1251.06 176.336 1250.51 174.766 1249.4 173.578C1248.3 172.375 1246.86 171.773 1245.06 171.773C1243.27 171.773 1241.8 172.375 1240.68 173.578C1239.57 174.766 1239.02 176.352 1239.02 178.336C1239.02 180.289 1239.57 181.852 1240.68 183.023C1241.79 184.195 1243.23 184.781 1245.02 184.781ZM1260.02 178.289C1260.02 176.117 1260.51 174.172 1261.49 172.453C1262.49 170.719 1263.88 169.367 1265.64 168.398C1267.42 167.414 1269.45 166.922 1271.71 166.922C1273.98 166.922 1276 167.414 1277.78 168.398C1279.56 169.367 1280.95 170.719 1281.93 172.453C1282.93 174.172 1283.43 176.117 1283.43 178.289C1283.43 180.43 1282.93 182.367 1281.93 184.102C1280.95 185.836 1279.56 187.195 1277.78 188.18C1276.02 189.148 1273.99 189.633 1271.71 189.633C1269.45 189.633 1267.42 189.148 1265.64 188.18C1263.88 187.195 1262.49 185.844 1261.49 184.125C1260.51 182.391 1260.02 180.445 1260.02 178.289ZM1265.52 178.242C1265.52 180.164 1266.1 181.742 1267.26 182.977C1268.41 184.211 1269.9 184.828 1271.71 184.828C1273.57 184.828 1275.08 184.211 1276.23 182.977C1277.39 181.742 1277.97 180.164 1277.97 178.242C1277.97 176.32 1277.39 174.75 1276.23 173.531C1275.08 172.297 1273.57 171.68 1271.71 171.68C1269.88 171.68 1268.39 172.297 1267.23 173.531C1266.09 174.75 1265.52 176.32 1265.52 178.242ZM1298.64 167.391C1299.34 167.406 1300.02 167.477 1300.66 167.602V172.195C1300.08 172.133 1299.66 172.102 1299.39 172.102C1297.47 172.102 1295.98 172.641 1294.94 173.719C1293.91 174.781 1293.39 176.289 1293.39 178.242V189H1288.02V167.602H1292.88L1293.34 170.672C1293.66 169.609 1294.29 168.797 1295.24 168.234C1296.2 167.672 1297.33 167.391 1298.64 167.391ZM1316.78 172.008H1312.7V189H1307.34V172.008H1303.26V167.602H1307.34V161.977H1312.7V167.602H1316.78V172.008ZM1329.18 189.633C1326.52 189.633 1324.36 189.008 1322.69 187.758C1321.03 186.508 1320.14 184.828 1320.02 182.719H1325.29C1325.35 183.641 1325.73 184.352 1326.44 184.852C1327.14 185.352 1328.04 185.602 1329.13 185.602C1330.23 185.602 1331.07 185.391 1331.66 184.969C1332.27 184.547 1332.58 183.938 1332.58 183.141C1332.58 182.406 1332.34 181.875 1331.85 181.547C1331.38 181.203 1330.77 180.953 1330 180.797L1326.39 179.93C1324.38 179.477 1322.89 178.719 1321.94 177.656C1321 176.578 1320.53 175.289 1320.53 173.789C1320.53 171.711 1321.32 170.047 1322.9 168.797C1324.49 167.547 1326.55 166.922 1329.09 166.922C1331.62 166.922 1333.66 167.547 1335.23 168.797C1336.79 170.047 1337.6 171.695 1337.66 173.742H1332.39C1332.39 172.883 1332.08 172.203 1331.45 171.703C1330.83 171.203 1330.01 170.953 1328.99 170.953C1328.07 170.953 1327.34 171.156 1326.79 171.562C1326.24 171.953 1325.97 172.516 1325.97 173.25C1325.97 173.984 1326.18 174.5 1326.6 174.797C1327.04 175.078 1327.67 175.32 1328.5 175.523L1332.62 176.461C1334.48 176.914 1335.86 177.688 1336.75 178.781C1337.66 179.859 1338.11 181.156 1338.11 182.672C1338.11 184.781 1337.3 186.469 1335.67 187.734C1334.06 189 1331.9 189.633 1329.18 189.633Z" fill="#035755"/>
<g filter="url(#filter6_d)">
<rect x="1391" y="151" width="86.0003" height="48.954" rx="6.16667" fill="white"/>
</g>
<path d="M1414.22 182.887L1406.88 175.544L1414.22 168.201" stroke="#A2A5B2" stroke-width="2.85" stroke-linecap="round" stroke-linejoin="round"/>
<path d="M1453.18 168.068L1460.53 175.411L1453.18 182.754" stroke="#F44A45" stroke-width="2.85" stroke-linecap="round" stroke-linejoin="round"/>
<line x1="1434.45" y1="166.669" x2="1434.45" y2="184.021" stroke="#DEE1ED" stroke-width="2.23" stroke-linecap="round"/>
<defs>
<filter id="filter0_d" x="0" y="43" width="185.062" height="323" filterUnits="userSpaceOnUse" color-interpolation-filters="sRGB">
<feFlood flood-opacity="0" result="BackgroundImageFix"/>
<feColorMatrix in="SourceAlpha" type="matrix" values="0 0 0 0 0 0 0 0 0 0 0 0 0 0 0 0 0 0 127 0"/>
<feOffset dy="5"/>
<feGaussianBlur stdDeviation="25"/>
<feColorMatrix type="matrix" values="0 0 0 0 0.408333 0 0 0 0 0.130573 0 0 0 0 0.11059 0 0 0 0.1 0"/>
<feBlend mode="normal" in2="BackgroundImageFix" result="effect1_dropShadow"/>
<feBlend mode="normal" in="SourceGraphic" in2="effect1_dropShadow" result="shape"/>
</filter>
<filter id="filter1_d" x="841" y="19" width="228" height="225" filterUnits="userSpaceOnUse" color-interpolation-filters="sRGB">
<feFlood flood-opacity="0" result="BackgroundImageFix"/>
<feColorMatrix in="SourceAlpha" type="matrix" values="0 0 0 0 0 0 0 0 0 0 0 0 0 0 0 0 0 0 127 0"/>
<feOffset dy="7"/>
<feGaussianBlur stdDeviation="38"/>
<feColorMatrix type="matrix" values="0 0 0 0 0.570833 0 0 0 0 0.206943 0 0 0 0 0.180764 0 0 0 0.18 0"/>
<feBlend mode="normal" in2="BackgroundImageFix" result="effect1_dropShadow"/>
<feBlend mode="normal" in="SourceGraphic" in2="effect1_dropShadow" result="shape"/>
</filter>
<filter id="filter2_d" x="934" y="0" width="694" height="825" filterUnits="userSpaceOnUse" color-interpolation-filters="sRGB">
<feFlood flood-opacity="0" result="BackgroundImageFix"/>
<feColorMatrix in="SourceAlpha" type="matrix" values="0 0 0 0 0 0 0 0 0 0 0 0 0 0 0 0 0 0 127 0"/>
<feOffset dy="7"/>
<feGaussianBlur stdDeviation="47.5"/>
<feColorMatrix type="matrix" values="0 0 0 0 0 0 0 0 0 0 0 0 0 0 0 0 0 0 0.07 0"/>
<feBlend mode="normal" in2="BackgroundImageFix" result="effect1_dropShadow"/>
<feBlend mode="normal" in="SourceGraphic" in2="effect1_dropShadow" result="shape"/>
</filter>
<filter id="filter3_d" x="1086.33" y="257.333" width="16.3339" height="13.0125" filterUnits="userSpaceOnUse" color-interpolation-filters="sRGB">
<feFlood flood-opacity="0" result="BackgroundImageFix"/>
<feColorMatrix in="SourceAlpha" type="matrix" values="0 0 0 0 0 0 0 0 0 0 0 0 0 0 0 0 0 0 127 0"/>
<feOffset dy="1.34615"/>
<feColorMatrix type="matrix" values="0 0 0 0 0 0 0 0 0 0 0 0 0 0 0 0 0 0 0.06 0"/>
<feBlend mode="normal" in2="BackgroundImageFix" result="effect1_dropShadow"/>
<feBlend mode="normal" in="SourceGraphic" in2="effect1_dropShadow" result="shape"/>
</filter>
<filter id="filter4_d" x="1084" y="570.667" width="49" height="11.6667" filterUnits="userSpaceOnUse" color-interpolation-filters="sRGB">
<feFlood flood-opacity="0" result="BackgroundImageFix"/>
<feColorMatrix in="SourceAlpha" type="matrix" values="0 0 0 0 0 0 0 0 0 0 0 0 0 0 0 0 0 0 127 0"/>
<feOffset/>
<feColorMatrix type="matrix" values="0 0 0 0 0 0 0 0 0 0 0 0 0 0 0 0 0 0 0.06 0"/>
<feBlend mode="normal" in2="BackgroundImageFix" result="effect1_dropShadow"/>
<feBlend mode="normal" in="SourceGraphic" in2="effect1_dropShadow" result="shape"/>
</filter>
<filter id="filter5_d" x="1084" y="582.333" width="49" height="11.6667" filterUnits="userSpaceOnUse" color-interpolation-filters="sRGB">
<feFlood flood-opacity="0" result="BackgroundImageFix"/>
<feColorMatrix in="SourceAlpha" type="matrix" values="0 0 0 0 0 0 0 0 0 0 0 0 0 0 0 0 0 0 127 0"/>
<feOffset/>
<feColorMatrix type="matrix" values="0 0 0 0 0 0 0 0 0 0 0 0 0 0 0 0 0 0 0.06 0"/>
<feBlend mode="normal" in2="BackgroundImageFix" result="effect1_dropShadow"/>
<feBlend mode="normal" in="SourceGraphic" in2="effect1_dropShadow" result="shape"/>
</filter>
<filter id="filter6_d" x="1341" y="106" width="186" height="148.954" filterUnits="userSpaceOnUse" color-interpolation-filters="sRGB">
<feFlood flood-opacity="0" result="BackgroundImageFix"/>
<feColorMatrix in="SourceAlpha" type="matrix" values="0 0 0 0 0 0 0 0 0 0 0 0 0 0 0 0 0 0 127 0"/>
<feOffset dy="5"/>
<feGaussianBlur stdDeviation="25"/>
<feColorMatrix type="matrix" values="0 0 0 0 0.341667 0 0 0 0 0.00333333 0 0 0 0 0 0 0 0 0.1 0"/>
<feBlend mode="normal" in2="BackgroundImageFix" result="effect1_dropShadow"/>
<feBlend mode="normal" in="SourceGraphic" in2="effect1_dropShadow" result="shape"/>
</filter>
<linearGradient id="paint0_linear" x1="1264" y1="1227.5" x2="1264" y2="54" gradientUnits="userSpaceOnUse">
<stop stop-color="#FFFBFB"/>
<stop offset="1" stop-color="#FDFDFD"/>
</linearGradient>
<linearGradient id="paint1_linear" x1="1086.33" y1="257.333" x2="1086.33" y2="269" gradientUnits="userSpaceOnUse">
<stop stop-color="white"/>
<stop offset="1" stop-color="#F0F0F0"/>
</linearGradient>
</defs>
</svg>
