<svg width="1349" height="570" viewBox="0 0 1349 570" fill="none" xmlns="http://www.w3.org/2000/svg">
<path d="M1348.29 341.52H1332.74V354.709H1348.29V341.52Z" fill="#F7B66B"/>
<path d="M800.622 497.263C800.622 497.263 798.267 497.263 800.622 485.484C802.976 473.702 802.976 455.639 807.688 450.141C812.4 444.647 828.109 438.363 839.887 432.082C851.67 425.798 858.736 417.946 863.448 417.946C868.16 417.946 866.589 425.012 872.873 417.946C879.157 410.876 879.939 417.16 886.223 417.946L892.507 418.728C892.507 418.728 890.935 425.012 892.507 428.938C894.076 432.865 896.433 433.651 901.928 432.082C907.426 430.51 914.496 416.009 916.85 414.623C919.208 413.233 922.348 428.938 923.92 434.436C925.489 439.935 936.485 454.071 940.411 461.923C944.337 469.776 915.278 505.901 908.998 507.473C902.714 509.042 883.865 505.901 880.725 507.473C877.585 509.042 870.616 493.337 870.174 491.765C869.732 490.196 865.803 492.551 865.803 492.551C865.803 492.551 856.382 485.484 850.098 486.267C843.814 487.053 832.035 493.337 828.109 494.123C824.183 494.909 813.972 494.123 813.972 494.123L808.474 498.835L800.622 497.263Z" fill="#F44A45"/>
<path d="M882.822 529.724C882.822 529.724 884.394 523.44 884.917 520.3C885.439 517.16 891.201 516.111 891.201 516.111C891.201 516.111 892.769 522.395 891.201 525.535C889.629 528.679 882.822 529.724 882.822 529.724Z" fill="#F44A45"/>
<path d="M943.552 539.672C943.552 539.672 944.598 531.297 949.31 529.725C954.022 528.153 970.776 516.634 974.965 516.111C979.155 515.588 974.965 525.535 974.965 525.535C974.965 525.535 958.734 537.054 954.548 539.672C950.359 542.289 942.966 542.426 943.552 539.672Z" fill="#167C51"/>
<path d="M984.912 516.092C984.912 516.092 989.102 508.257 989.625 504.071C990.147 499.882 993.814 496.742 993.814 496.742C993.814 496.742 995.382 505.622 995.909 506.415C996.431 507.211 998 508.783 998 511.924C998 515.064 985.958 520.825 984.912 520.299C983.867 519.776 983.358 519.222 984.912 516.092Z" fill="#167C51"/>
<path d="M877.584 374.229C877.584 374.229 880.988 383.13 882.297 383.653C883.605 384.176 895.647 386.793 899.05 389.411C902.454 392.028 900.622 395.695 899.05 397.267C897.479 398.835 900.359 401.453 902.714 401.193C905.071 400.93 907.689 402.239 908.475 403.81C909.261 405.379 913.71 407.214 915.018 406.165C916.327 405.119 917.899 400.93 919.731 400.407C921.562 399.884 927.583 398.835 928.106 400.407C928.632 401.975 932.295 405.21 933.867 406.474C935.435 407.737 939.365 407.568 942.242 406.474C945.123 405.379 940.934 404.333 939.365 403.288C937.793 402.239 935.435 400.667 934.127 396.481C932.818 392.291 934.653 390.983 931.25 389.151C927.846 387.316 913.187 377.369 909.261 376.323C905.331 375.274 891.98 378.418 888.054 377.109C884.128 375.801 884.128 373.443 883.082 372.92C882.033 372.397 875.753 369.79 877.584 374.229Z" fill="#167C51"/>
<path d="M939.103 388.103C939.103 388.103 943.292 388.057 945.387 389.52C947.478 390.983 949.573 391.506 947.741 392.029C945.91 392.552 940.675 394.387 939.103 392.815C937.531 391.243 936.731 387.941 939.103 388.103Z" fill="#035755"/>
<path d="M849.142 399.644C849.142 399.644 852.416 396.588 855.037 396.588C857.658 396.588 860.931 398.114 860.931 398.114C860.931 398.114 856.128 400.735 853.945 401.391C851.763 402.044 847.574 400.897 849.142 399.644Z" fill="#035755"/>
<path d="M836.48 399.083C836.48 399.083 839.101 396.15 841.501 395.715C843.904 395.276 847.613 396.585 847.613 396.585C847.613 396.585 844.995 397.869 842.048 399.083C839.101 400.297 835.441 400.111 836.48 399.083Z" fill="#035755"/>
<path d="M835.387 401.58C835.387 401.58 838.008 401.987 839.099 401.58C840.19 401.173 839.755 404.229 838.225 404.229C836.696 404.229 834.296 404.078 835.387 401.58Z" fill="#035755"/>
<path d="M825.969 398.042C825.969 398.042 828.387 396.758 830.601 396.299C832.818 395.839 836.109 395.52 835.471 396.299C834.832 397.078 833.825 398.825 832.011 399.102C830.201 399.379 824.025 398.934 825.969 398.042Z" fill="#035755"/>
<path d="M795.271 389.52C795.271 389.52 798.008 387.468 802.232 388.096C806.46 388.727 811.93 389.752 815.411 390.766C818.891 391.783 824.116 395.755 826.351 395.625C828.589 395.496 830.08 396.766 827.347 397.113C824.61 397.46 816.144 397.678 812.049 396.587C807.951 395.496 803.464 392.934 800.236 392.685C797.011 392.439 793.545 390.404 795.271 389.52Z" fill="#0C6C44"/>
<path d="M838.88 387.976C838.88 387.976 835.932 379.776 835.55 376.282C835.168 372.79 839.862 364.492 840.409 363.075C840.953 361.654 851.216 361.871 853.834 360.889C856.455 359.907 852.96 365.366 850.451 365.366C847.939 365.366 843.613 365.91 841.957 366.675C840.297 367.44 841.171 369.731 841.501 369.731C841.827 369.731 846.957 369.84 847.613 370.496C848.269 371.152 845.08 373.117 845.146 373.661C845.213 374.208 848.16 379.446 848.269 381.085C848.378 382.723 847.504 387.306 846.957 386.871C846.413 386.436 843.792 384.797 843.466 383.488C843.136 382.176 842.153 379.994 840.845 379.776C839.536 379.555 840.188 383.488 840.188 384.906C840.188 386.323 839.329 389.26 838.88 387.976Z" fill="#0C6C44"/>
<path d="M853.834 372.352C853.834 372.352 856.347 372.679 857.108 373.882C857.873 375.082 856.111 375.408 854.862 375.3C853.617 375.191 851.869 372.57 853.834 372.352Z" fill="#035755"/>
<path d="M862.569 368.422C862.569 368.422 862.46 365.149 862.569 363.402C862.677 361.654 862.895 359.581 863.769 359.581C864.642 359.581 866.716 363.184 866.39 364.002C866.063 364.819 865.284 367.766 864.47 368.422C863.66 369.079 862.604 369.956 862.569 368.422Z" fill="#0C6C44"/>
<path d="M868.028 373.225C868.028 373.225 870.319 373.246 871.302 373.836C872.284 374.425 872.832 375.011 872.284 375.32C871.74 375.625 869.337 375.446 868.684 375.32C868.028 375.19 866.625 373.124 868.028 373.225Z" fill="#035755"/>
<path d="M805.147 360.772C805.469 360.656 809.624 359.035 812.35 359.035C815.08 359.035 817.701 352.158 820.865 351.72C824.03 351.285 826.409 345.173 828.823 344.19C831.237 343.208 836.879 346.043 836.297 346.916C835.711 347.79 833.528 350.193 832.655 351.829C831.781 353.467 832.437 358.053 833.093 359.579C833.746 361.109 835.928 363.183 835.549 363.621C835.167 364.056 829.683 374.972 828.823 376.719C827.963 378.466 826.107 379.884 823.813 379.993C821.522 380.105 813.901 379.34 811.817 378.358C809.732 377.375 808.203 373.088 807.659 371.684C807.111 370.277 805.803 368.421 805.694 366.568C805.582 364.712 804.403 361.039 805.147 360.772Z" fill="#167C51"/>
<path d="M763.232 345.717C763.232 345.717 770.435 348.23 771.965 349.43C773.494 350.63 777.75 356.307 780.371 359.145C782.989 361.984 787.357 365.04 787.684 366.348C788.01 367.661 794.518 377.485 794.813 378.685C795.108 379.885 796.157 385.127 794.813 385.236C793.469 385.344 786.484 383.488 785.284 381.85C784.08 380.215 778.077 374.755 777.859 372.352C777.642 369.952 775.129 362.51 773.821 360.773C772.512 359.036 769.891 359.145 769.017 357.945C768.144 356.742 765.852 351.286 764.323 350.847C762.796 350.412 762.249 345.367 763.232 345.717Z" fill="#0C6C44"/>
<path d="M793.14 371.37C793.14 371.37 793.14 374.574 794.34 375.321C795.54 376.065 796.196 377.047 796.634 376.721C797.069 376.391 797.396 375.1 797.069 373.837C796.743 372.57 793.041 370.033 793.14 371.37Z" fill="#035755"/>
<path d="M715.525 330.98V338.513C715.525 340.148 720.297 343.562 720.532 343.983C720.763 344.408 722.076 337.201 722.076 335.892C722.076 334.583 715.525 328.689 715.525 330.98Z" fill="#0C6C44"/>
<path d="M543.101 231.831C543.101 231.831 545.311 232.403 546.048 232.648C546.785 232.894 549.732 234.122 549.406 234.452C549.076 234.778 545.722 234.943 545.392 234.943C545.066 234.943 543.02 235.596 542.61 234.943C542.199 234.287 540.645 231.585 540.971 231.831C541.301 232.077 542.101 231.568 543.101 231.831Z" fill="#035755"/>
<path d="M511.01 221.433C511.01 221.433 514.038 223.072 515.021 223.318C516.003 223.563 517.07 225.363 517.561 226.1C518.052 226.837 515.512 226.019 515.021 225.689C514.53 225.363 512.319 225.198 511.582 224.626C510.846 224.054 510.239 221.026 511.01 221.433Z" fill="#035755"/>
<path d="M498.563 211.528C498.563 211.528 499.956 212.837 500.363 213.328C500.773 213.819 499.791 216.605 500.363 217.503C500.938 218.405 499.566 220.535 499.514 220.043C499.465 219.552 497.826 217.668 497.17 216.521C496.517 215.377 496.352 214.721 496.517 213.573C496.679 212.43 497.77 210.766 498.563 211.528Z" fill="#035755"/>
<path d="M496.926 204.404C496.926 204.404 495.863 206.043 496.926 206.695C497.989 207.351 499.793 208.334 499.793 208.334C499.793 208.334 499.954 207.432 499.793 206.369C499.628 205.306 497.397 203.015 496.926 204.404Z" fill="#035755"/>
<path d="M482.6 214.392C482.6 214.392 483.336 215.582 483.828 215.725C484.319 215.866 485.466 215.15 485.873 215.059C486.284 214.964 484.238 213.982 484.238 213.736C484.238 213.49 482.6 214.392 482.6 214.392Z" fill="#035755"/>
<path d="M476.295 216.685C476.295 216.685 476.705 216.155 477.849 215.724C478.996 215.292 480.389 215.376 480.796 215.292C481.207 215.211 480.881 216.029 480.144 216.685C479.407 217.341 478.425 218.239 476.951 218.404C475.477 218.569 475.232 219.222 475.477 218.569C475.723 217.913 475.333 217.38 476.295 216.685Z" fill="#035755"/>
<path d="M456.154 171.274C456.154 171.274 456.702 169.309 457.684 167.67C458.667 166.035 458.228 161.341 458.554 160.576C458.884 159.811 461.831 155.555 461.94 155.225C462.049 154.899 454.737 148.13 454.407 147.148C454.081 146.166 454.625 143.218 455.063 142.127C455.498 141.036 458.228 135.685 458.775 135.468C459.319 135.25 460.958 135.468 460.958 135.468C460.958 135.468 461.614 137.541 462.488 138.089C463.358 138.632 465.435 139.397 465.979 139.945C466.526 140.489 467.07 147.695 467.287 148.348C467.509 149.004 471.329 156.972 471.765 157.193C472.203 157.411 476.677 160.902 476.785 161.341C476.894 161.776 475.803 168.544 475.259 168.874C474.712 169.2 469.691 170.618 469.144 170.726C468.6 170.839 467.509 171.93 466.305 172.147C465.105 172.365 456.154 171.274 456.154 171.274Z" fill="#167C51"/>
<path d="M441.305 160.903C441.305 160.903 442.723 155.774 443.596 154.683C444.47 153.588 447.091 151.623 448.073 151.188C449.056 150.753 454.424 149.658 454.305 150.205C454.186 150.753 453.75 154.353 453.75 154.9C453.75 155.444 455.059 158.065 454.95 158.83C454.842 159.595 452.221 164.068 451.238 164.724C450.256 165.381 443.27 167.016 443.053 166.363C442.835 165.707 442.505 163.524 442.505 163.524C442.505 163.524 441.74 162.651 441.305 162.321C440.87 161.995 441.305 160.903 441.305 160.903Z" fill="#167C51"/>
<path d="M454.305 134.812C454.305 134.812 452.438 136.71 452.112 137.289C451.786 137.868 451.129 140.163 451.456 140.05C451.786 139.942 452.877 139.289 453.642 138.85C454.403 138.415 454.747 136.668 454.957 136.23C455.168 135.794 454.305 134.812 454.305 134.812Z" fill="#035755"/>
<path d="M468.489 124.988C468.489 124.988 466.524 127.062 466.198 127.827C465.868 128.592 464.903 130.118 465.548 130.227C466.198 130.339 468.38 128.918 468.489 128.809C468.597 128.7 468.815 128.595 469.362 127.613C469.906 126.627 468.489 124.988 468.489 124.988Z" fill="#035755"/>
<path d="M603.744 85.7986C603.744 85.7986 604.618 84.16 605.053 83.8337C605.491 83.5074 607.456 82.7425 607.782 82.7425C608.112 82.7425 608.656 85.4723 607.782 85.7986C606.909 86.1249 604.4 87.5459 604.4 87.5459C604.4 87.5459 603.442 86.3389 603.744 85.7986Z" fill="#41294A"/>
<path d="M610.182 69.7516C610.182 69.7516 611.382 64.8395 612.582 63.4184C613.786 62.0009 621.428 51.6293 622.189 51.4117C622.954 51.1942 625.792 49.7732 627.214 49.2293C628.631 48.682 627.214 54.6853 627.214 54.6853C627.214 54.6853 627.649 54.7976 628.631 54.5766C629.613 54.359 631.578 54.0327 631.578 54.6853V58.0712C631.578 58.0712 622.845 64.4009 622.736 65.057C622.628 65.7131 622.298 71.4989 622.298 71.4989C622.736 73.0252 624.375 76.5199 624.375 77.0672C624.375 77.6111 624.266 79.7935 624.266 79.7935C624.266 79.7935 619.789 78.5935 618.807 78.1584C617.824 77.7198 614.877 73.2463 614.33 73.0252C613.786 72.8077 611.93 71.7165 611.382 71.2814C610.838 70.8428 610.182 69.7516 610.182 69.7516Z" fill="#0C6C44"/>
<path d="M631.581 48.3552C631.581 48.3552 630.381 49.5552 629.942 50.4288C629.507 51.3025 631.581 52.2849 632.563 52.941C633.546 53.5936 635.402 53.4849 636.167 52.941C636.932 52.3937 640.205 49.1938 640.205 49.1938C640.096 48.464 637.258 47.264 636.275 47.264C635.293 47.264 631.581 48.3552 631.581 48.3552Z" fill="#0C6C44"/>
<path d="M646.112 44.3159C646.112 44.3159 640.625 45.2983 640.218 45.9545C639.811 46.6071 644.081 48.3544 645.095 48.3544C646.112 48.3544 647.537 48.6842 648.754 48.3544C649.975 48.0281 652.007 45.4071 652.007 45.4071C652.007 45.4071 648.93 43.737 646.112 44.3159Z" fill="#0C6C44"/>
<path d="M619.733 407.284C619.733 407.284 617.442 412.852 616.786 413.344C616.129 413.835 610.235 419.4 608.761 420.382C607.288 421.368 605.649 422.512 605.158 423.659C604.667 424.806 602.54 428.08 602.867 428.736C603.193 429.389 604.667 431.192 604.667 432.01C604.667 432.827 602.54 436.266 602.049 438.069C601.558 439.869 600.575 447.237 601.067 448.22C601.558 449.202 603.193 454.606 604.996 455.262C606.796 455.918 615.147 443.473 616.129 441.178C617.112 438.887 616.294 437.904 617.603 436.922C618.915 435.94 620.389 423.494 620.88 422.021C621.371 420.547 623.006 419.729 623.171 419.073C623.336 418.417 621.863 407.775 621.533 407.284C621.206 406.793 621.371 405.975 619.733 407.284Z" fill="#167C51"/>
<path d="M602.215 323.774C602.215 323.774 602.706 324.266 604.671 325.413C606.636 326.557 609.092 324.431 611.222 324.592C613.348 324.757 622.193 322.136 623.828 322.136C625.467 322.136 626.123 322.655 625.467 325.753C624.811 328.851 621.537 342.279 620.228 344.735C618.916 347.191 604.074 361.272 600.934 364.384C597.794 367.496 590.752 376.173 590.59 376.991C590.426 377.812 591.082 390.583 591.734 392.218C592.39 393.857 593.699 397.625 593.864 399.751C594.029 401.881 593.208 416.783 592.555 418.747C591.899 420.712 576.672 433.319 576.015 435.122C575.359 436.922 574.377 439.87 575.033 440.526C575.689 441.178 577.654 441.999 576.998 444.455C576.342 446.912 575.258 449.038 574.815 450.024C574.377 451.006 571.103 451.006 569.795 452.641C568.482 454.28 568.812 458.21 567.83 460.992C566.847 463.778 564.061 466.725 562.588 469.181C561.114 471.637 556.693 475.237 555.546 477.693C554.402 480.153 552.598 482.118 551.946 483.1C551.29 484.083 539.174 485.065 536.718 486.047C534.262 487.03 533.115 489.156 531.315 489.321C529.511 489.486 525.255 489.321 525.255 489.321C525.255 489.321 522.143 484.9 521.817 483.262C521.487 481.626 519.687 479.005 520.178 476.384C520.669 473.763 513.628 456.41 512.645 454.28C511.663 452.15 511.336 438.887 511.171 435.94C511.01 432.993 505.066 428.245 505.663 426.281C506.259 424.316 506.424 417.109 506.751 415.47C507.08 413.835 509.863 407.684 510.68 405.765C511.501 403.846 511.663 400.899 511.663 399.26C511.663 397.625 510.189 395.822 510.189 394.022C510.189 392.218 510.354 389.271 510.354 388.78C510.354 388.289 500.365 373.061 499.382 371.752C498.4 370.443 498.235 369.131 498.4 367.005C498.565 364.875 498.944 362.089 498.344 361.272C497.744 360.454 497.8 352.921 498.344 351.447C498.891 349.974 495.453 346.044 495.453 346.044L487.593 345.062C487.593 345.062 483.663 339.984 482.846 339.823C482.025 339.658 479.078 339.167 478.26 339.658C477.443 340.149 474.165 341.132 473.183 341.132H467.124C467.124 341.132 465.324 343.914 463.685 344.244C462.05 344.57 460.085 344.897 460.085 344.897L457.464 343.262C457.464 343.262 453.043 342.441 451.405 342.77C449.77 343.097 447.64 344.405 446.984 344.405C446.331 344.405 444.036 344.405 443.545 344.244C443.054 344.079 427.826 329.834 426.518 327.869C425.205 325.904 420.293 319.027 420.132 318.206C419.967 317.389 419.311 310.185 419.311 310.185L417.02 308.217C417.02 308.217 417.511 304.126 417.837 302.814C418.163 301.505 421.276 296.428 421.767 295.61C422.258 294.793 420.949 293.154 421.114 292.337C421.276 291.516 422.914 289.059 422.914 289.059C422.914 289.059 421.276 283.656 421.44 282.021C421.605 280.383 421.114 280.053 422.097 277.762C423.079 275.47 422.423 267.937 422.914 266.955C423.405 265.972 434.703 256.474 436.342 256.148C437.977 255.822 439.289 253.366 439.289 253.366C439.289 253.366 439.124 249.271 439.451 247.306C439.78 245.341 447.149 236.099 448.457 235.233C449.77 234.37 452.226 230.931 452.878 230.931H468.436C469.909 230.931 472.857 227.819 474.001 227.819C475.148 227.819 501.182 228.149 501.838 227.819C502.495 227.493 502.986 237.973 503.968 238.134C504.951 238.299 509.045 240.591 509.372 241.247C509.698 241.903 510.456 242.72 510.649 242.885C510.845 243.047 517.192 244.194 517.62 244.685C518.048 245.176 522.143 250.906 522.143 250.906C522.143 250.906 528.529 250.906 529.02 250.58C529.511 250.253 531.967 245.011 532.459 244.359C532.95 243.703 534.424 243.703 536.062 243.703C537.701 243.703 541.957 245.503 542.613 245.503C543.265 245.503 543.595 250.089 543.921 250.58C544.248 251.071 546.213 248.289 546.704 248.289C547.195 248.289 556.693 250.58 557.84 251.071C558.988 251.562 569.524 262.113 571.43 263.165C573.338 264.214 578.471 278.579 579.128 279.726C579.78 280.874 579.945 284.312 579.945 284.312C579.945 284.312 582.728 286.277 583.219 287.916C583.71 289.551 584.966 292.88 585.622 294.193C586.278 295.501 587.313 299.214 588.952 300.522C590.59 301.831 591.243 306.908 591.899 307.891C592.555 308.873 592.717 312.641 593.373 312.803C594.029 312.968 596.646 314.115 597.629 314.933C598.611 315.75 600.25 317.88 601.232 318.697C602.215 319.518 602.215 323.774 602.215 323.774Z" fill="#167C51"/>
<path d="M279.527 567.755C279.527 567.755 275.597 565.79 273.194 564.699C270.794 563.608 268.173 561.643 268.173 561.643C268.173 561.643 266.864 559.24 265.99 559.022C265.117 558.805 261.187 561.422 261.187 561.422L264.026 567.755C264.026 567.755 269.264 569.502 270.359 569.938C271.45 570.376 279.527 567.755 279.527 567.755Z" fill="#0C6C44"/>
<path d="M267.302 553.127L265.554 547.889C265.554 547.889 271.449 541.994 272.105 539.808C272.761 537.626 272.979 531.075 272.979 531.075L270.358 527.802C270.358 527.802 277.126 517.76 277.564 516.013C278 514.265 277.564 510.118 277.564 510.118C277.564 510.118 278 509.027 279.529 508.588C281.056 508.153 283.238 503.132 284.333 501.82C285.424 500.511 296.122 496.364 296.557 495.49C296.996 494.617 297.431 491.561 297.431 491.561C297.431 491.561 294.375 484.571 295.466 483.919C296.557 483.263 301.578 483.919 301.578 483.919C301.578 483.919 312.276 473 316.862 467.544C321.448 462.084 321.009 452.916 322.321 449.639C323.63 446.365 341.314 438.071 342.843 435.45C344.37 432.829 348.521 416.019 348.521 416.019C348.521 416.019 350.264 403.138 350.92 401.173C351.577 399.209 358.562 396.37 358.997 394.184C359.436 392.002 360.092 377.809 360.092 377.809C360.092 377.809 348.521 374.753 348.082 373.227C347.647 371.697 347.647 369.732 346.556 368.641C345.461 367.55 333.237 366.02 332.363 365.802C331.489 365.585 326.03 358.603 326.03 358.603C326.03 358.603 316.237 359.483 314.693 358.603C313.149 357.725 312.823 355.761 312.823 355.761C312.823 355.761 312.932 349.427 312.823 347.901C312.714 346.371 303.981 338.947 301.578 337.421C299.178 335.891 288.915 331.961 287.168 330.435C285.424 328.905 283.677 322.793 283.02 321.919C282.368 321.046 263.154 318.863 262.498 318.425C261.842 317.99 255.73 314.934 255.73 314.934C255.73 314.934 252.674 318.425 251.583 317.772C250.491 317.116 249.618 312.748 248.744 312.748C247.87 312.748 242.411 316.025 242.411 316.025C242.411 316.025 237.829 317.116 236.737 318.207C235.643 319.298 233.46 324.319 232.369 324.758C231.278 325.193 228.439 325.849 228.439 325.849C228.439 325.849 227.131 329.561 227.566 330.435C228.004 331.309 230.187 335.456 230.187 335.456C230.187 335.456 229.748 344.189 229.096 344.845C228.439 345.498 219.489 357.518 219.271 358.603C219.05 359.69 219.271 363.402 219.271 363.402C219.271 363.402 222.762 366.459 221.889 368.641C221.015 370.823 217.741 374.1 217.741 375.409C217.741 376.718 222.327 383.269 223.419 383.925C224.51 384.577 224.727 393.311 225.383 394.184C226.039 395.058 235.425 408.159 236.516 409.033C237.608 409.907 251.365 421.475 251.8 423.878C252.239 426.278 254.421 436.759 253.33 443.527C252.239 450.295 250.927 459.028 250.053 461.649C249.179 464.267 249.835 487.448 249.4 489.396C248.962 491.34 248.527 494.399 247.87 495.052C247.214 495.708 248.088 511.865 248.527 514.483C248.962 517.104 249.835 524.746 248.527 527.146C247.214 529.549 246.341 533.914 246.562 535.226C246.779 536.535 248.962 542.647 249.179 543.521C249.4 544.394 249.618 548.107 249.618 548.107L253.548 551.163L254.421 556.183C254.421 556.183 258.786 557.275 259.877 557.492C260.968 557.713 261.189 555.31 261.189 555.31C261.189 555.31 263.154 556.401 265.554 555.748C267.958 555.092 267.302 553.127 267.302 553.127Z" fill="#167C51"/>
<path d="M213.155 273.341C213.155 273.341 223.797 272.85 224.945 273.341C226.092 273.832 236.572 280.544 237.555 281.035C238.537 281.526 243.941 283.983 243.941 283.983C243.941 283.983 242.467 285.13 241.32 285.456C240.172 285.786 232.151 285.456 232.151 285.456C232.151 285.456 230.678 281.526 229.857 281.035C229.039 280.544 224.127 277.927 222.98 277.597C221.832 277.27 214.794 279.362 214.794 279.362C214.794 279.362 211.847 277.435 211.355 276.779C210.864 276.123 213.155 273.341 213.155 273.341Z" fill="#0C6C44"/>
<path d="M230.675 289.551C230.675 289.551 234.278 290.208 235.587 290.534C236.896 290.86 238.37 292.825 238.37 292.825C238.37 292.825 235.096 292.499 234.524 292.825C233.949 293.155 230.675 292.825 230.675 292.825C230.675 292.825 229.598 289.352 230.675 289.551Z" fill="#0C6C44"/>
<path d="M243.939 289.543C243.939 289.543 245.578 290.354 246.721 289.543C247.869 288.733 249.507 287.094 250.49 287.094C251.472 287.094 255.402 286.768 256.219 287.094C257.037 287.424 259.496 288.389 258.84 289.543C258.184 290.698 255.402 293.971 254.254 293.971C253.107 293.971 250.16 294.627 249.669 293.971C249.177 293.319 247.869 292.971 247.869 292.971C247.869 292.971 245.578 292.336 244.921 292.171C244.265 292.006 242.023 289.214 243.939 289.543Z" fill="#0C6C44"/>
<path d="M298.957 175.094C298.957 175.094 310.581 164.778 311.564 165.596C312.546 166.417 311.564 171.329 311.564 171.329C311.564 171.329 313.069 172.473 314.694 172.638C316.315 172.803 317.132 177.715 317.462 178.368C317.788 179.024 317.462 184.753 316.315 184.753C315.167 184.753 312.711 182.953 312.711 182.953L305.178 181.806L302.722 180.824C302.722 180.824 297.975 180.006 298.14 179.35C298.301 178.697 298.957 175.094 298.957 175.094Z" fill="#F44A45"/>
<path d="M232.313 104.684C232.313 104.684 235.425 98.4636 236.734 97.6426C238.042 96.8251 242.628 96.3338 242.628 96.3338C242.628 96.3338 245.249 101.737 245.905 101.902C246.558 102.064 250.488 104.684 250.488 104.684L249.344 105.667H242.628C242.628 105.667 238.372 109.432 237.716 109.597C237.06 109.762 231.671 105.923 232.313 104.684Z" fill="#F44A45"/>
<path d="M240.009 110.742C240.009 110.742 239.191 113.198 240.009 113.363C240.826 113.524 243.774 112.05 244.103 110.742L244.43 109.433C244.43 109.433 240.3 109.587 240.009 110.742Z" fill="#F44A45"/>
<path d="M255.731 106.485L254.257 109.601C254.257 109.601 253.766 109.924 255.731 109.432C257.695 108.941 259.169 106.485 259.169 106.485C259.169 106.485 257.531 105.176 255.731 106.485Z" fill="#F44A45"/>
<path d="M258.186 102.967C258.186 102.967 266.702 104.683 267.846 104.683C268.993 104.683 271.284 109.104 272.597 109.433C273.905 109.76 278.656 109.935 280.291 111.402C281.93 112.872 285.533 117.945 286.351 117.784C287.168 117.619 286.351 115.163 286.351 115.163L283.894 107.805C283.894 107.805 289.954 113.714 290.607 113.374C291.263 113.033 292.245 102.967 292.245 102.967C292.245 102.967 287.659 96.8232 287.498 96.332C287.333 95.8408 287.989 94.8584 289.133 94.6934C290.28 94.532 294.701 99.1179 296.34 98.953C297.975 98.7881 304.855 91.2549 304.855 91.2549C304.855 91.2549 287.989 80.9394 289.298 80.4482C290.607 79.957 291.098 79.7956 291.098 79.1395C291.098 78.4833 292.245 75.2097 292.245 75.2097C292.245 75.2097 284.551 66.203 283.403 66.203H278.165C278.165 66.203 278 66.038 275.709 64.403C273.414 62.7644 259.169 61.9469 259.169 61.9469C259.169 61.9469 256.222 57.3611 255.73 57.0348C255.239 56.7049 249.345 57.0348 249.345 57.0348C249.345 57.0348 245.741 65.0556 245.25 64.403C244.759 63.7469 245.25 60.6347 245.25 60.6347L246.888 55.3962L241.376 56.3786C241.376 56.3786 234.608 63.582 234.769 64.403C234.934 65.2205 235.426 73.08 235.426 73.08C235.426 73.08 240.303 75.536 242.039 75.8659C243.776 76.1922 252.509 76.1922 254.201 76.1922C255.895 76.1922 260.642 75.536 260.642 75.536L263.099 74.0624L264.407 77.5009C264.407 77.5009 266.537 81.9218 267.193 82.0868C267.846 82.2517 273.414 84.0516 273.414 84.0516C273.414 84.0516 272.923 90.2725 272.923 90.7637C272.923 91.2549 268.011 95.6794 267.193 96.332C266.372 96.9881 261.134 100.262 260.478 100.262C259.825 100.262 256.969 102.725 258.186 102.967Z" fill="#F44A45"/>
<path d="M267.682 84.2142C267.682 84.2142 263.752 86.5054 263.752 87.3264C263.752 88.144 262.934 92.0737 263.752 91.9088C264.57 91.7474 267.191 88.6387 267.682 88.0633C268.173 87.4878 267.682 84.2142 267.682 84.2142Z" fill="#F44A45"/>
<path d="M261.131 77.8293C261.131 77.8293 259.001 77.8293 258.184 78.9766C257.366 80.1205 256.682 81.2678 256.682 81.2678C256.682 81.2678 259.001 81.5941 259.984 81.2678C260.966 80.9415 261.949 79.6222 261.949 79.6222C261.949 79.6222 261.963 77.7486 261.131 77.8293Z" fill="#F44A45"/>
<path d="M140.015 60.8003C140.015 60.8003 141.545 62.2178 141.654 62.5476C141.762 62.8739 141.654 65.8212 141.654 65.8212C141.654 65.8212 151.804 66.4774 152.243 65.8212C152.678 65.1686 153.66 61.7827 154.425 61.4564C155.19 61.1266 158.464 58.0706 158.464 58.0706C158.464 58.0706 159.12 62.074 158.464 62.0915C157.808 62.109 157.808 63.7476 157.808 63.7476L158.755 69.0983C158.755 69.0983 170.579 69.6422 170.362 69.9685C170.144 70.2983 167.523 71.172 167.523 71.172C167.523 71.172 159.555 72.2632 159.337 72.6982C159.12 73.1368 158.899 75.2105 158.899 75.2105C158.899 75.2105 166.65 78.9226 167.853 79.5753C169.053 80.2314 173.091 80.7787 173.748 80.6665C174.4 80.5577 177.786 78.3753 177.786 78.3753C177.786 78.3753 186.519 78.8139 187.502 78.8139C188.484 78.8139 191.758 79.6665 192.523 79.6209C193.287 79.5753 196.344 79.6209 196.344 79.6209C196.344 79.6209 198.091 75.2105 198.635 74.9929C199.182 74.7719 200.6 73.5719 200.6 73.5719C200.6 73.5719 200.708 72.1544 200.6 71.4983C200.491 70.8422 193.07 62.6564 192.523 61.674C191.975 60.6915 191.105 57.0881 191.105 57.0881H187.937C187.937 57.0881 186.628 59.3828 186.081 59.4916C185.537 59.6003 184.446 57.9618 184.446 57.9618L180.516 59.3828C180.516 59.3828 171.562 58.9442 171.018 58.5091C170.47 58.0706 167.853 56.1057 167.853 56.1057L165.888 56.8706L164.576 55.3969C164.576 55.3969 165.45 54.6882 165.667 54.0321C165.888 53.3759 165.558 51.8497 165.558 51.8497C165.558 51.8497 158.573 52.0672 158.246 51.8497C157.916 51.6321 156.281 50.6497 155.843 50.5374C155.408 50.4286 146.018 50.5374 146.018 50.5374C146.018 50.5374 143.18 55.232 143.071 55.9969C142.962 56.7618 140.015 60.8003 140.015 60.8003Z" fill="#F44A45"/>
<path d="M155.272 39.4034C155.272 39.4034 155.517 38.3122 156.061 37.8736C156.609 37.4385 165.124 32.9615 165.668 32.7439C166.215 32.5264 174.075 32.7439 174.075 32.7439C174.075 32.7439 172.436 35.7053 171.78 36.0245C171.128 36.3473 166.433 38.5297 166.433 38.5297C166.433 38.5297 164.879 41.5858 164.672 41.6946C164.468 41.8033 163.047 40.0595 163.047 40.0595C163.047 40.0595 155.093 39.9718 155.272 39.4034Z" fill="#F44A45"/>
<path d="M169.053 43.4443C169.053 43.4443 174.183 38.6409 174.73 38.4234C175.274 38.2058 180.299 41.5987 180.842 41.704C181.39 41.8057 181.281 43.7706 181.281 44.4267C181.281 45.0828 178.334 47.7003 178.334 48.1389C178.334 48.574 176.804 49.1213 176.804 49.1213C176.804 49.1213 175.941 47.5916 175.172 47.374C174.404 47.1565 169.38 46.7179 169.053 46.6091C168.727 46.5004 168.13 44.3004 169.053 43.4443Z" fill="#F44A45"/>
<path d="M192.741 54.2499C192.741 54.2499 193.832 53.2674 194.597 53.1587C195.362 53.0499 196.453 53.1587 196.453 53.1587C196.453 53.1587 197.218 55.6674 196.453 55.9972C195.689 56.3235 194.05 56.8708 194.05 56.8708C194.05 56.8708 192.959 55.0148 192.741 54.2499Z" fill="#F44A45"/>
<path d="M202.459 59.5988C202.459 59.5988 203.333 59.1637 204.315 58.9427C205.298 58.7252 207.81 58.9427 207.81 58.9427C207.81 58.9427 208.245 57.8515 207.81 57.3076C207.371 56.7603 206.606 56.2164 206.606 56.2164V54.9884C206.606 54.9884 212.501 54.4691 212.722 54.0305C212.94 53.5955 213.922 53.1709 214.248 53.1113C214.575 53.0481 217.196 53.1113 217.196 53.1113C217.196 53.1113 215.778 55.8866 215.34 55.8866C214.905 55.8866 213.484 56.8691 213.484 56.8691C213.484 56.8691 214.248 57.634 214.687 57.9603C215.122 58.2901 215.669 58.9427 215.778 59.5988C215.887 60.2549 215.122 63.2022 215.122 63.2022C215.122 63.2022 211.957 66.8021 211.41 66.8021C210.866 66.8021 209.01 67.567 208.571 66.8021C208.136 66.0408 207.48 63.9671 207.48 63.9671C207.48 63.9671 204.207 63.2022 203.659 62.9812C203.115 62.7636 202.459 59.5988 202.459 59.5988Z" fill="#F44A45"/>
<path d="M194.767 46.2484C194.767 46.2484 194.241 45.3256 193.504 44.9151C192.767 44.5046 190.557 43.0309 190.311 42.9502C190.066 42.8695 188.02 42.3327 187.939 41.7011C187.855 41.0661 187.694 38.1188 188.346 37.7118C189.002 37.3012 190.887 36.6451 190.887 36.6451C190.887 36.6451 191.704 38.6942 192.03 38.8556C192.36 39.0205 193.571 40.0836 194.767 40.0836C195.964 40.0836 197.928 40.9047 197.928 40.9047C197.928 40.9047 196.455 42.2134 196.125 42.2134C195.799 42.2134 195.553 44.1783 195.553 44.1783L196.792 45.08C196.792 45.08 195.065 46.687 194.767 46.2484Z" fill="#FA5652"/>
<path d="M181.29 31.9807C181.29 31.9807 180.816 30.5877 182.044 30.2614C183.272 29.9351 184.009 28.7878 184.009 28.7878C184.009 28.7878 186.058 26.4124 186.465 26.3317C186.875 26.251 191.461 26.3317 191.461 26.3317C191.461 26.3317 189.412 28.7527 189.412 29.1387C189.412 29.5246 189.742 31.4895 189.742 31.4895C189.742 31.4895 188.675 33.535 188.268 33.6192C187.858 33.6999 183.111 34.1912 182.946 34.1105C182.781 34.0263 181.29 31.9807 181.29 31.9807Z" fill="#F44A45"/>
<path d="M180.079 28.4605C180.079 28.4605 177.378 29.0324 177.378 29.6078C177.378 30.1797 175.413 31.899 175.739 31.9797C176.069 32.0639 177.89 31.9797 177.89 31.9797C177.89 31.9797 179.588 30.9165 180.079 30.5902C180.571 30.2604 181.553 28.0605 180.079 28.4605Z" fill="#FA5652"/>
<path d="M198.828 45.4539C198.828 45.4539 200.547 44.8364 201.204 44.8364H203.575C203.575 44.8364 203.249 46.6363 201.94 47.0469C200.628 47.4539 198.828 47.4539 198.828 47.4539C198.828 47.4539 197.376 45.9065 198.828 45.4539Z" fill="#F44A45"/>
<path d="M220.77 56.3784C220.77 56.3784 223.307 55.231 224.373 55.3959C225.436 55.5608 227.728 54.9889 227.728 54.9889C227.728 54.9889 229.366 53.5118 231.166 53.5118H234.766C234.766 53.5118 233.376 56.2977 232.885 56.8696C232.394 57.4415 230.022 58.1783 230.022 58.1783H226.499C226.499 58.1783 224.945 60.5537 224.454 60.7186C223.963 60.88 222.57 62.0273 222.163 62.0273H219.296C219.296 62.0273 219.514 56.8766 220.77 56.3784Z" fill="#FA5652"/>
<path d="M222.571 53.0831C222.571 53.0831 224.371 51.9568 225.928 51.9568H229.858C229.858 51.9568 228.546 54.0866 227.483 54.2515C226.42 54.4129 222.244 54.5778 221.999 54.6585C221.753 54.7427 222.571 53.0831 222.571 53.0831Z" fill="#FA5652"/>
<path d="M220.768 47.0457C220.768 47.0457 222.161 45.0001 222.488 44.8352C222.814 44.6703 224.242 44.2844 225.905 44.1896C227.565 44.0984 229.856 44.1896 229.856 44.1896C229.856 44.1896 229.61 47.8632 228.628 48.1088C227.645 48.3544 224.042 49.3369 222.733 49.6667C221.424 49.993 220.768 47.0457 220.768 47.0457Z" fill="#F44A45"/>
<path d="M207.179 43.7656C207.179 43.7656 208.954 44.1796 209.825 44.8357C210.698 45.4883 212.582 46.2252 212.828 46.1445C213.074 46.0638 215.365 46.2603 215.856 46.3269C216.347 46.3901 217.659 42.2709 217.659 42.2709C217.659 42.2709 219.049 40.4148 219.294 40.085C219.54 39.7587 218.803 38.4113 218.803 38.4113H213.73C213.73 38.4113 212.663 37.9587 212.337 38.0394C212.01 38.1201 209.825 40.3306 209.825 40.3306L207.179 43.7656Z" fill="#F44A45"/>
<path d="M202.459 40.1683L204.396 38.0315C204.396 38.0315 205.462 38.1824 206.361 38.0315C207.262 37.8771 207.182 39.7578 207.182 39.7578C207.182 39.7578 205.543 41.6595 205.297 41.4875C205.052 41.3156 203.252 41.4875 203.252 41.4875C203.252 41.4875 201.547 41.1753 202.459 40.1683Z" fill="#F44A45"/>
<path d="M199.32 32.0166C199.32 32.0166 199.934 33.371 200.65 33.6166C201.365 33.8622 202.19 34.5183 202.19 34.5183L203.576 35.0095C203.576 35.0095 203.25 32.3815 203.004 32.0166C202.758 31.6517 198.976 31.3956 199.32 32.0166Z" fill="#F44A45"/>
<path d="M213.264 24.1752C213.264 24.1752 210.646 22.7016 209.99 22.4279C209.338 22.1542 207.18 22.4279 207.18 22.4279L206.39 24.1752L203.822 26.2945C203.822 26.2945 201.976 28.0488 202.19 28.105C202.404 28.1611 205.794 28.4313 207.183 28.5962C208.573 28.7611 212.829 28.3225 212.829 28.3225L214.302 30.2067C214.302 30.2067 215.941 30.8347 216.432 30.8347C216.923 30.8347 218.779 30.561 218.779 30.561C218.779 30.561 218.232 27.6699 217.906 27.3401C217.579 27.0138 215.176 25.9752 215.176 25.9752C215.176 25.9752 213.811 24.4805 213.264 24.1752Z" fill="#F44A45"/>
<path d="M227.237 31.981C227.237 31.981 223.963 31.4897 223.525 30.8336C223.09 30.181 222.381 29.4161 222.381 29.4161L220.304 27.1776C220.304 27.1776 224.507 25.8688 225.546 25.7039C226.581 25.539 228.546 27.3951 228.711 27.6126C228.875 27.8337 229.202 29.1424 229.202 29.1424L229.858 30.3424L231.167 31.6406C231.167 31.6406 228.016 32.1178 227.237 31.981Z" fill="#F44A45"/>
<path d="M229.311 32.2536C229.311 32.2536 231.167 32.0887 231.875 32.2536C232.584 32.4185 233.24 33.3272 233.24 33.3272L233.514 34.3833C233.514 34.3833 230.784 34.5447 230.458 34.3833C230.128 34.2184 229.254 34.0009 228.819 33.7272C228.384 33.4535 229.311 32.2536 229.311 32.2536Z" fill="#FA5652"/>
<path d="M223.088 36.4557C223.088 36.4557 228.383 36.3469 229.201 36.4557C230.022 36.5644 231.495 37.2732 231.495 37.2732L233.513 38.0276C233.513 38.0276 231.222 39.1293 230.783 39.238C230.348 39.3468 227.618 39.1854 227.401 39.238C227.183 39.2942 225.313 38.5293 225.313 38.5293C225.313 38.5293 223.853 38.5854 223.088 38.4767C222.323 38.3644 221.615 37.5469 221.615 37.5469C221.615 37.5469 222.271 36.182 223.088 36.4557Z" fill="#FA5652"/>
<path d="M177.568 48.7913C177.568 48.7913 182.481 46.6861 183.68 46.9176C184.884 47.1527 190.779 46.9176 190.779 46.9176L195.417 46.1457L191.459 41.7002L188.484 39.7599L182.698 41.7002L178.782 40.5423L177.568 44.8335V48.7913Z" fill="#F44A45"/>
<path d="M223.089 38.4758C223.089 38.4758 227.043 40.4968 227.033 40.4968C227.019 40.4968 229.748 42.3318 230.731 42.1774C231.713 42.023 232.369 44.8335 232.369 44.8335L234.766 48.7913L236.299 49.6895C236.299 49.6895 241.646 48.1352 242.846 48.7913C244.05 49.4474 246.997 50.879 247.432 50.4895C247.871 50.1 253 49.1702 255.183 49.6895C257.365 50.2123 261.951 50.5562 261.951 50.5562L265.646 48.7913C265.646 48.7913 262.169 45.4615 261.516 44.8335C260.86 44.2054 253 43.4441 253 43.4441C253 43.4441 243.067 43.5528 242.737 43.3353C242.411 43.1142 240.008 39.6757 239.681 39.7599C239.355 39.8406 234.766 38.4758 234.766 38.4758H232.566H223.089Z" fill="#F44A45"/>
<path d="M260.642 55.3958C260.642 55.3958 261.88 58.0168 263.389 58.508C264.898 58.9993 269.81 59.4905 269.81 59.4905H273.905C273.905 59.4905 271.445 55.5608 269.81 55.3958C268.175 55.2309 260.642 55.3958 260.642 55.3958Z" fill="#F44A45"/>
<path d="M271.285 40.8232C271.285 40.8232 269.485 39.2092 268.664 39.2794C267.846 39.3496 266.537 38.4759 266.537 38.4759L263.39 40.8232C263.39 40.8232 260.45 39.2092 259.316 39.2794C258.187 39.3496 253.436 39.2794 253.436 39.2794L249.506 39.7601L243.612 39.6513L241.155 38.0303C241.155 38.0303 244.759 34.8023 245.25 34.455C245.741 34.1111 246.885 32.2164 247.376 32.1814C247.868 32.1463 250.162 31.7252 250.653 32.1814C251.145 32.6375 252.78 33.3252 252.78 33.3252L253.601 32.1814L252.453 30.2165L250.324 28.8481L251.471 28.413L250.324 26.571L247.376 28.413H243.612L235.752 27.5604L232.805 20.3536L229.858 19.0449C229.858 19.0449 228.875 15.9327 229.858 15.9327C230.84 15.9327 233.514 12.824 233.514 12.824C233.514 12.824 236.57 8.40303 237.226 8.40303C237.882 8.40303 242.955 9.87668 242.955 9.87668C242.955 9.87668 253.762 20.5185 253.927 21.0097C254.092 21.5009 255.236 25.7921 255.892 25.6938C256.548 25.5956 260.643 26.2938 260.643 26.2938C260.643 26.2938 259.794 22.95 259.316 22.3079C258.839 21.6658 256.685 18.88 256.685 18.88L258.348 18.0624C258.348 18.0624 259.987 17.8975 261.951 19.0449L263.916 20.1922L263.39 15.9327L259.316 14.6239L254.745 14.1327L250.352 12.6591C250.352 12.6591 247.868 11.0205 246.724 9.87668C245.576 8.72934 245.412 6.76447 245.412 6.76447L250.352 4.6347L256.685 2.99966L259.316 3.81718L263.39 2.99966C263.39 2.99966 267.678 1.52601 269.811 1.0348C271.941 0.543582 274.723 1.85232 278.979 1.0348C283.239 0.213768 284.547 -0.0142976 286.186 0.919011C287.824 1.85232 289.624 1.85232 289.624 1.85232L293.228 0.312012C293.228 0.312012 296.337 0.413765 300.757 0.312012C305.178 0.213768 307.143 0.312012 307.143 0.312012L311.073 2.99966L316.15 4.47331C316.15 4.47331 319.918 4.63471 320.41 5.12592C320.901 5.61714 317.462 8.23812 317.462 8.23812L307.964 9.22055C307.964 9.22055 306.817 15.1151 305.999 15.1151C305.178 15.1151 301.578 16.4239 301.578 16.4239C301.578 16.4239 295.028 19.0449 293.719 19.3712C292.407 19.701 282.582 20.5466 282.582 20.5466C282.582 20.5466 281.765 26.0868 281.274 26.4131C280.783 26.7429 278.818 28.8481 278.818 28.8481L279.47 30.3428L270.958 36.4093C270.958 36.4093 273.249 37.7356 272.267 39.2794L271.285 40.8232Z" fill="#F44A45"/>
<path d="M286.677 30.0144C286.677 30.0144 288.315 27.7233 289.298 27.3934C290.28 27.0671 295.192 26.0847 295.192 26.0847C295.192 26.0847 302.069 23.6286 303.378 23.3023C304.69 22.9725 308.29 20.5445 308.29 20.5445C308.29 20.5445 305.017 20.355 304.852 19.2077C304.69 18.0603 305.673 16.7516 305.673 16.7516C305.673 16.7516 307.146 13.8043 308.29 13.4745C309.438 13.1482 314.694 11.5096 314.694 11.5096L317.132 9.38339C317.132 9.38339 328.269 6.10628 330.069 5.28875C331.872 4.47123 344.479 5.77998 348.244 5.28875C352.012 4.79754 354.303 4.30631 354.303 4.30631C354.303 4.30631 356.268 2.99759 358.889 2.34146C361.51 1.68534 371.169 1.03272 375.264 1.52393C379.355 2.01514 382.302 0.26783 382.302 0.26783C382.302 0.26783 405.063 -0.332156 407.028 0.26783C408.993 0.867815 416.035 2.01514 416.526 2.01514C417.017 2.01514 420.456 5.45366 419.638 5.28875C418.821 5.12385 415.052 6.27119 415.052 6.27119C415.052 6.27119 398.351 7.08871 397.534 7.57992C396.713 8.07114 396.551 9.70968 397.042 9.70968C397.534 9.70968 417.508 8.72726 418 8.89217C418.491 9.05358 415.873 12.9833 416.691 12.9833C417.508 12.9833 421.438 11.0184 421.929 11.0184C422.421 11.0184 440.217 11.5096 441.308 11.5096C442.399 11.5096 440.269 14.2955 440.269 14.2955C440.269 14.2955 434.54 16.0955 432.901 16.7516C431.262 17.4077 431.101 20.5164 430.28 20.5164C429.463 20.5164 425.042 22.4813 425.042 22.4813C425.042 22.4813 423.894 27.0671 423.242 28.5408C422.586 30.0144 420.456 31.8144 420.456 31.8144C420.456 31.8144 421.768 34.6003 422.259 35.4178C422.75 36.2353 425.368 38.8423 425.368 40.8984V42.9509C425.368 42.9509 419.965 41.2983 419.473 40.8984C418.982 40.4949 418.982 42.9509 418.982 42.9509L420.786 44.4246C420.786 44.4246 421.277 55.2313 420.786 56.2138C420.294 57.1962 418.982 60.1435 418.982 60.1435L410.796 56.8699C410.796 56.8699 410.14 60.1435 410.796 60.1435C411.449 60.1435 414.726 62.7645 414.726 62.7645L415.382 66.6942C415.382 66.6942 410.958 65.0556 409.649 64.2381C408.34 63.4171 408.175 64.8907 408.175 64.8907L409.158 65.8731L414.07 68.4941C414.07 68.4941 415.544 72.0975 415.709 73.4063C415.873 74.7185 415.382 75.701 415.382 75.701H410.958L408.667 73.5712L405.228 73.2414L402.116 74.0624L399.007 74.5536L398.516 76.6834L403.428 77.5009C403.428 77.5009 408.667 76.8448 410.467 77.5009C412.27 78.157 408.01 81.4306 407.519 82.0868C407.028 82.7394 401.463 86.6691 400.807 86.6691C400.151 86.6691 398.677 86.3428 393.113 86.6691C387.544 86.9989 384.267 87.9813 384.267 87.9813L381.976 91.2549C381.976 91.2549 378.702 94.2022 378.211 94.6935C377.72 95.1847 373.952 95.8408 373.952 95.8408H368.222C368.222 95.8408 367.405 99.1144 366.583 99.6056C365.766 100.097 359.871 106.974 359.871 106.974C359.871 106.974 356.594 114.998 355.45 116.963C354.303 118.928 353.486 121.71 352.503 122.531C351.521 123.349 349.065 125.805 349.065 125.805H344.644L334.981 118.763L331.542 107.63C331.542 107.63 330.234 107.465 330.069 106.321C329.907 105.174 326.956 95.3496 326.956 95.3496L327.121 86.5919L331.051 83.5604L332.855 82.578L333.016 77.6658L331.872 76.8448L329.251 78.8097H326.63L327.777 74.0624L330.069 72.0975L334.328 71.7677L330.725 68.9853L325.974 67.838C325.974 67.838 324.992 55.3962 324.174 54.4138C323.357 53.4314 320.455 50.5542 320.455 50.5542L316.806 44.5158L311.729 42.4597L306.817 40.8984L303.217 40.8212L299.613 40.8984H294.701L291.098 38.4739L288.477 37.5476L290.771 36.2353L293.719 34.2705L296.827 33.4529L295.845 32.3056H290.606L288.968 31.1618L286.677 30.0144Z" fill="#167C51"/>
<path d="M409.65 96.1688H413.744V98.2986H416.2L421.113 96.1688L429.954 95.1864L432.575 96.7407L434.702 100.59L430.937 107.958L425.86 109.923L420.621 111.888L418 109.597L412.271 108.449L409.65 102.881V102.063L408.502 99.6073L405.72 98.6249L407.194 96.66L409.65 96.1688Z" fill="#167C51"/>
<path d="M101.155 161.831L104.267 163.961L107.541 167.069L108.688 170.017V171.82L104.92 169.364L101.811 166.824L101.155 163.469V161.831Z" fill="#FA5652"/>
<path d="M89.365 131.538V135.303V138.415L85.9265 134.977V130.23C85.9265 130.23 88.0563 129.9 89.365 131.538Z" fill="#DA5C5D"/>
<path d="M93.9488 138.416L96.5697 142.511V146.111L93.9488 143.819L91.4927 141.363L93.9488 138.416Z" fill="#FF5476"/>
<path d="M33.5269 134.309L36.8005 131.046L39.9127 128.59L41.2214 130.2L39.0951 133.01L37.3759 135.467H34.3444L33.5269 134.309Z" fill="#DA5C5D"/>
<path d="M862.463 253.632V245.344L864.119 241.699L867.105 244.351V249.323V253.632H862.463Z" fill="#F44A45"/>
<path d="M867.104 238.715L870.749 233.743H877.047L879.784 230.396L882.353 226.118C882.353 226.118 883.016 229.764 885.005 224.129L886.991 218.494V214.515H892.296L895.942 216.505V230.396L893.952 236.395L889.977 238.715L879.784 243.357C879.784 243.357 881.356 247.002 878.044 245.013L874.728 243.023L870.086 241.697H867.104V238.715Z" fill="#F44A45"/>
<path d="M885.999 209.876V205.568L888.981 201.259V196.287H894.286L897.932 198.273L901.577 200.263L897.932 206.231L892.63 209.876H889.644H885.999Z" fill="#F44A45"/>
<path d="M887.658 192.306L886.001 179.71V177.721L881.524 171.756V158.827H884.591L886.001 166.781L890.973 177.721L893.791 179.377V183.689V190.65V192.306H887.658Z" fill="#F44A45"/>
<path d="M801.361 296.503L805.782 292.745H809.978V296.503L805.669 299.598H804.761L801.361 296.503Z" fill="#0C6C44"/>
<path d="M835.756 283.243L837.602 277.496L839.591 274.847L841.802 273.742L844.454 278.492L840.103 283.243V285.454L835.756 286.338V283.243Z" fill="#0C6C44"/>
<path d="M837.602 297.166V305.12L835.756 309.983L838.928 313.741L842.907 316.615L844.451 311.088V303.576V297.166L840.103 296.173L837.602 297.166Z" fill="#0C6C44"/>
<path d="M846.662 312.855L847.546 316.613V317.939L850.641 320.367L851.746 316.613V312.855L850.199 311.75L846.662 312.855Z" fill="#0C6C44"/>
<path d="M853.391 320.37V322.581L851.745 326.559L849.202 327.661V330.977H850.419L853.391 329.651C853.391 329.651 855.942 327.219 857.047 325.675L858.152 324.128V321.696L853.391 320.37Z" fill="#0C6C44"/>
<path d="M840.106 316.612L845.491 318.381V320.37L842.8 321.254L840.106 320.37L839.372 318.931L840.106 316.612Z" fill="#0C6C44"/>
<path d="M830.53 330.977L832.961 325.672L835.754 323.244H838.263L839.368 324.567L838.263 328.545L835.754 330.977L834.951 334.956H830.53V330.977Z" fill="#0C6C44"/>
<path d="M845.491 338.491L851.744 334.954L853.677 330.979H856.386L857.789 332.301L858.154 334.733V338.491L857.789 342.912L855.228 343.778L851.744 342.042V340.259L846.663 342.042H845.491V338.491Z" fill="#0C6C44"/>
<path d="M975.771 99.6626C974.462 98.3539 948.263 86.7822 947.389 86.5612C946.516 86.3436 933.197 83.5051 932.544 84.3788C931.888 85.2524 931.449 88.9646 930.579 88.7471C929.706 88.5296 928.176 87.8734 928.176 87.8734L926.428 85.9086C926.428 85.9086 913.983 86.3436 912.674 86.3436C911.366 86.3436 908.745 88.9646 907.653 88.9646C906.562 88.9646 900.012 80.8876 898.92 80.6666C897.829 80.449 879.216 79.7964 879.026 79.5754C878.833 79.3579 878.181 76.7369 876.651 76.3018C875.121 75.8632 860.493 70.4072 858.967 70.4072H844.118C842.592 70.4072 840.627 74.9931 840.627 74.9931C840.627 74.9931 826.435 75.4281 825.126 75.6457C823.817 75.8632 823.161 76.7369 822.07 76.7369C820.979 76.7369 813.989 66.2599 812.463 65.8213C810.933 65.3863 803.291 64.5126 801.326 64.7302C799.362 64.9477 797.618 66.695 796.088 66.4775C794.558 66.2599 789.976 66.9126 788.664 66.0389C787.355 65.1652 785.608 65.3161 784.299 64.6951C782.99 64.074 772.51 63.8565 771.418 63.639C770.327 63.4214 768.58 61.2355 767.268 61.4566C765.959 61.6741 760.499 64.7302 759.626 64.5126C758.756 64.2951 762.685 61.439 762.685 61.439C762.685 61.439 769.454 56.8707 769.889 55.1234C770.327 53.3761 767.268 51.1937 766.176 49.6674C765.085 48.1376 762.685 46.8289 761.373 46.6078C760.064 46.3903 753.514 45.7341 751.331 44.864C749.149 43.9903 747.619 41.5869 745.872 41.1518C744.124 40.7132 741.942 40.9343 739.977 41.1518C738.012 41.3694 733.647 46.3903 732.556 46.6078C731.462 46.8289 718.146 47.9201 717.272 47.9201C716.399 47.9201 710.722 52.2849 708.974 52.5024C707.231 52.7234 703.08 54.2497 701.771 55.562C700.462 56.8707 699.15 61.6741 697.403 61.6741C695.659 61.6741 690.417 61.2355 689.326 62.5477C688.235 63.8565 685.614 64.7302 686.926 65.6038C688.235 66.4775 695.659 71.7159 694.564 72.1545C693.473 72.5896 689.701 70.8423 686.564 69.9686C683.431 69.0984 680.81 68.8774 680.158 69.316C679.501 69.7511 678.41 73.0282 677.098 72.8071C675.789 72.5896 674.916 67.1336 674.042 66.9126C673.168 66.695 670.551 67.7862 670.551 70.6248C670.551 73.4633 672.516 78.0491 673.824 81.1052C675.133 84.1612 679.066 86.3436 681.031 86.9997C682.996 87.6559 684.305 90.0558 683.214 90.4944C682.122 90.9295 678.193 90.2733 677.537 90.7119C676.88 91.147 674.042 97.2626 672.077 98.1328C670.112 99.0065 666.4 99.6626 666.839 99.0065C667.274 98.3539 670.551 92.8943 670.333 89.3997C670.112 85.9085 668.077 81.1052 666.804 78.4842C665.53 75.8632 667.204 72.3721 666.804 69.7511C666.4 67.1336 659.414 67.1336 657.232 68.0038C655.049 68.8774 652.646 72.3721 652.211 74.5545C651.772 76.7369 654.832 82.1964 657.014 84.3788C659.197 86.5612 657.888 88.7471 656.797 88.7471C655.702 88.7471 648.934 83.07 645.004 81.1052C641.074 79.1403 635.836 79.3579 633.871 79.5754C631.906 79.7964 631.033 83.07 632.562 82.8525C634.089 82.6314 637.801 85.9086 637.801 86.5612C637.801 87.2173 623.829 87.6559 621.864 88.091C619.9 88.5295 617.496 87.2173 616.84 86.9997C616.187 86.7822 600.247 97.4802 599.374 97.2626C598.504 97.0416 598.283 91.3646 598.065 90.4944C597.847 89.6208 594.353 88.3085 593.7 88.091C593.044 87.8734 592.827 91.5856 592.609 93.1119C592.388 94.6417 588.676 98.1328 588.676 98.1328L582.564 103.375C582.564 103.375 584.311 106.866 582.564 106.866C580.816 106.866 576.013 104.031 574.487 104.031C572.957 104.031 574.922 108.694 574.487 108.982C574.048 109.269 571.866 108.982 571.866 108.982C571.866 108.982 564.662 98.3539 565.536 97.4802C566.41 96.6065 572.083 96.8241 573.174 98.3539C574.269 99.8801 572.957 100.319 574.269 99.8801C575.578 99.445 580.599 98.7889 580.599 98.7889C580.599 98.7889 583.655 95.5153 583.655 94.6417C583.655 93.768 562.259 80.014 560.95 79.5754C559.641 79.1403 560.512 80.014 557.677 80.014C554.838 80.014 553.743 79.7964 553.743 79.7964C553.743 79.7964 552.873 80.014 553.743 78.0491C554.617 76.0842 548.505 73.2457 547.849 73.0282C547.196 72.8071 542.61 74.9931 541.954 74.9931C541.302 74.9931 538.024 74.3369 538.024 74.3369L530.137 78.2667C530.137 78.2667 524.927 79.1403 524.053 80.014C523.179 80.8876 519.032 81.1052 518.376 81.7613C517.72 82.4139 511.172 87.4348 512.699 88.091C514.229 88.7471 513.79 92.4593 513.79 92.4593C513.79 92.4593 499.818 108.178 497.854 109.925C495.889 111.669 488.247 118.438 488.029 119.529C487.812 120.623 485.847 123.68 486.938 124.332C488.029 124.988 489.994 126.297 489.994 127.171C489.994 128.044 490.868 136.125 491.741 136.342C492.615 136.56 495.889 136.777 495.889 136.777C495.889 136.777 500.475 133.939 501.127 133.939C501.783 133.939 504.955 141.581 505.66 142.672C506.369 143.763 506.587 148.132 506.587 148.132L510.081 149.658C510.081 149.658 515.976 148.349 517.502 147.475C519.032 146.602 518.814 139.833 518.814 138.742C518.814 137.651 525.144 131.757 525.362 130.665C525.583 129.574 522.744 122.367 522.523 121.276C522.306 120.185 523.397 115.164 524.488 114.073C525.583 112.982 527.765 112.982 528.856 111.669C529.947 110.361 534.533 104.031 535.624 103.157C536.716 102.284 540.863 101.845 540.863 101.845C540.863 101.845 542.828 104.684 541.519 105.34C540.21 105.996 534.312 110.143 533.877 111.234C533.442 112.325 529.73 123.023 531.039 124.332C532.347 125.644 536.281 128.7 538.463 129.136C540.645 129.574 547.631 127.171 549.814 127.609C552 128.044 554.617 130.009 554.617 130.009C554.617 130.009 546.54 131.1 545.01 131.757C543.484 132.413 540.863 133.065 540.863 133.065C540.863 133.065 540.21 141.146 539.116 141.146C538.024 141.146 533.66 142.89 533.66 142.89C533.66 142.89 529.73 152.279 528.639 152.717C527.548 153.152 504.622 153.809 502.657 153.152L501.566 141.798C501.566 141.798 498.289 143.763 497.636 144.637C496.98 145.511 496.545 154.026 495.671 154.682C494.797 155.335 486.935 159.921 486.608 160.794C486.282 161.668 476.019 174.987 474.275 174.766C472.528 174.548 467.286 173.675 466.851 174.987C466.416 176.296 465.977 178.478 464.668 179.134C463.356 179.787 457.244 181.099 457.244 181.099C457.244 181.099 458.553 182.846 459.426 183.064C460.3 183.281 462.265 183.064 462.265 183.064C462.265 183.064 465.977 189.176 466.851 189.832C467.724 190.488 466.633 198.348 466.416 199C466.195 199.657 461.83 199 460.521 199C459.209 199 455.062 197.909 455.062 197.909C455.062 197.909 446.546 200.53 445.455 200.748C444.364 200.965 442.399 202.93 443.272 204.021C444.146 205.116 445.455 207.081 445.455 207.081L444.146 211.884L441.308 217.996C441.308 217.996 445.237 224.108 446.546 225.417C447.855 226.729 463.139 224.982 464.012 225.417C464.886 225.856 470.781 219.744 471.437 218.87C472.089 217.996 471.437 211.663 471.437 211.663C471.437 211.663 479.952 207.081 481.043 205.551C482.135 204.021 482.135 200.53 482.135 200.53C482.135 200.53 492.176 200.965 493.485 200.748C494.797 200.53 500.253 199.874 500.253 199.874C500.253 199.874 506.804 207.516 508.334 209.046C509.86 210.572 519.032 215.593 519.032 215.593C519.032 215.593 521.214 221.27 521.649 220.396C522.088 219.523 522.088 214.502 522.088 214.502C522.088 214.502 522.523 214.719 523.835 214.284C525.144 213.849 512.046 205.334 511.172 202.93C510.299 200.53 508.769 196.6 508.769 196.6C508.769 196.6 524.053 204.021 525.362 206.207C526.674 208.39 526.453 216.249 527.548 216.684C528.639 217.123 531.695 220.835 532.13 221.926C532.568 223.017 534.312 227.386 535.407 227.603C536.498 227.821 538.898 229.129 538.898 229.129C538.898 229.129 543.919 223.891 543.919 223.235C543.919 222.582 540.428 218.431 539.989 217.34C539.554 216.249 547.196 212.975 548.943 212.754C550.687 212.537 554.182 214.067 554.182 214.067C554.182 214.067 548.287 218.653 549.596 219.961C550.908 221.27 553.526 230.221 555.273 230.442C557.02 230.659 574.048 229.129 575.36 230.442C576.669 231.75 577.325 233.389 577.325 233.389C577.325 233.389 576.343 249.434 572.413 249.434C568.483 249.434 560.624 249.764 562.259 250.417C563.897 251.073 568.448 258.066 574.487 261.223C578.199 263.167 587.735 279.637 588.065 282.584C588.392 285.531 601.886 315.587 604.507 316.899C607.124 318.208 634.962 305.763 637.91 304.454C640.857 303.145 651.337 288.079 651.337 286.44C651.337 284.805 644.134 272.36 643.478 271.377C642.822 270.395 631.689 276.616 629.724 275.963C627.759 275.307 617.605 256.967 618.917 256.311C620.226 255.659 625.464 258.606 625.464 258.606C625.464 258.606 630.376 267.774 632.015 268.1C633.654 268.43 643.478 266.135 644.787 266.465C646.099 266.792 646.751 272.36 648.716 272.36C649.846 272.36 656.6 272.69 662.39 273.125L674.456 259.364V247.666V241.698V231.754L685.063 226.4L693.02 218.852L697.438 211.333V192.309V181.573L706.28 176.857L715.525 175.569L718.799 165.552V150.054L725.725 140.058H731.911H739.868V144.447L749.591 153.773H754.896L762.734 158.829H774.341L784.948 165.552L793.137 166.513L801.362 171.724H811.817L820.621 166.513L825.592 158.829L830.571 153.773V150.054L825.592 137.434L816.772 135.37L815.887 127.613L820.621 121.466H825.592L830.571 111.89H840.104L845.49 117.788H852.95L864.472 127.613L872.5 130.234H882.819L885.359 138.086C890.549 137.602 897.064 137.241 897.612 137.651C898.482 138.307 900.012 140.925 902.194 141.146C904.38 141.363 909.836 137.293 911.366 137.472C912.892 137.651 909.18 133.939 909.18 133.939C909.18 133.939 912.892 128.7 914.422 128.7C915.948 128.7 918.134 130.665 919.66 131.321C921.19 131.974 928.832 125.427 928.832 125.427C928.832 125.427 930.141 126.953 930.141 127.609C930.141 128.262 921.843 141.146 920.099 142.237C918.351 143.328 915.73 145.949 915.73 145.949C915.73 145.949 913.983 155.991 914.857 157.738C915.73 159.486 923.372 178.696 924.464 176.952C925.555 175.205 931.67 164.507 932.106 162.977C932.544 161.45 930.797 159.486 932.106 157.521C933.414 155.556 936.474 153.591 936.474 152.279C936.474 150.97 934.726 146.602 934.509 144.858C934.288 143.111 931.888 141.798 931.888 141.798C931.888 141.798 932.544 137.216 934.726 136.777C936.909 136.342 937.348 134.595 941.277 134.377C945.207 134.16 947.172 133.939 947.172 133.939C947.172 133.939 950.445 135.469 951.319 135.469C952.193 135.469 956.775 126.297 958.087 126.518C959.396 126.736 962.673 127.392 963.543 126.953C964.417 126.518 967.255 125.427 967.255 125.427C967.255 125.427 970.75 124.553 970.75 123.241C970.75 121.932 967.473 115.381 966.382 114.946C965.291 114.508 963.764 112.982 963.764 112.982C963.764 112.982 965.508 111.017 966.382 110.578C967.256 110.143 967.694 106.866 967.694 106.866C967.694 106.866 969.22 105.34 970.75 106.866C972.276 108.396 983.631 116.255 986.687 116.694L989.743 117.129V111.669C989.743 110.578 991.49 107.522 991.49 107.522C991.49 107.522 977.08 100.971 975.771 99.6626Z" fill="#167C51"/>
<path d="M872.5 130.234L864.473 127.609L852.95 117.789H845.491L840.105 111.887H830.572L825.593 121.466H820.621L815.888 127.609L816.772 135.371L825.593 137.434L830.572 150.054V153.774L825.593 158.826L820.621 166.514L811.818 171.721H801.358L793.138 166.514L784.948 165.552L774.342 158.826H762.735L754.896 153.774H749.591L739.869 144.448V140.055H731.911H725.725L718.799 150.054V165.552L715.525 175.566L706.277 176.857L697.438 181.573V192.306V211.334L693.017 218.853L685.063 226.4L674.456 231.754V241.698V247.666V259.36L662.39 273.121C666.674 273.444 670.428 273.823 670.986 274.167C672.295 274.978 682.449 284.802 682.449 284.802L679.828 286.767C679.828 286.767 683.432 291.026 685.07 291.353C686.705 291.682 692.93 289.061 692.93 289.061C692.93 289.061 694.894 303.472 695.221 304.78C695.547 306.089 704.719 334.583 707.666 334.253C710.613 333.927 713.561 328.359 715.199 324.429C716.834 320.499 715.852 311.657 717.49 309.366C719.129 307.071 724.041 307.071 724.694 305.107C725.35 303.142 728.297 296.265 728.297 296.265C728.297 296.265 736.486 295.282 736.813 293.974C737.139 292.665 738.451 288.735 738.451 288.735L747.619 284.802C747.619 284.802 749.911 292.335 751.549 292.665C753.188 292.991 759.738 299.212 759.738 299.212C759.738 299.212 758.1 308.384 759.082 308.71C760.065 309.036 768.907 308.054 768.907 308.054C768.907 308.054 771.636 319.408 769.78 321.264C769.78 321.264 771.419 334.692 772.619 337.53C773.819 340.369 779.496 345.607 780.369 347.898C781.243 350.193 780.369 354.667 782.117 356.632C783.861 358.596 789.538 362.638 790.959 363.291C792.376 363.947 791.72 359.144 791.941 357.835C792.159 356.523 790.302 357.07 790.302 353.684C790.302 350.302 790.194 349.755 789.646 348.228C789.103 346.699 780.359 338.183 779.106 337.201C777.857 336.218 776.11 334.036 775.784 332.836C775.457 331.636 775.566 325.85 775.566 324.65C775.566 323.446 778.938 319.19 779.106 319.19C779.278 319.19 785.499 326.615 786.808 327.597C788.12 328.58 791.067 335.892 792.485 336.33C793.906 336.765 802.965 326.394 804.057 324.32C805.148 322.247 806.13 312.97 804.057 310.892C801.983 308.819 796.853 305.98 796.306 303.58C795.762 301.177 794.015 297.03 795.106 295.391C796.197 293.756 800.236 290.7 801.109 290.479C801.983 290.261 805.369 292.665 806.46 292.553C807.551 292.444 810.06 291.57 811.372 291.353C812.681 291.135 824.252 285.458 826.652 282.619C829.056 279.781 838.88 264.718 838.554 262.315C838.554 262.315 835.656 257.95 836.34 256.638C837.024 255.329 838.561 252.055 838.561 252.055L829.491 239.284C829.491 239.284 837.621 232.077 836.34 230.768C835.059 229.459 819.94 228.803 820.621 227.165C821.305 225.526 827.856 216.684 828.838 216.684C829.821 216.684 831.456 223.561 831.456 223.561C831.456 223.561 839.645 221.596 840.954 222.579C842.266 223.561 842.266 228.803 843.245 230.768C844.231 232.733 848.161 242.231 849.796 241.901C851.434 241.575 852.743 236.989 856.346 236.663C859.95 236.336 856.346 229.459 856.346 226.509C856.346 223.561 851.434 222.579 852.09 218.979C852.743 215.376 855.69 208.825 860.276 208.172C864.862 207.516 870.757 202.604 873.704 198.674C876.651 194.745 880.255 180.99 878.616 175.749C876.977 170.51 876.651 162.977 876.651 162.977L869.665 161.23C869.665 161.23 864.644 161.886 864.644 161.23C864.644 160.577 861.367 156.865 861.367 156.865C861.367 156.865 877.472 139.616 879.027 138.96C879.609 138.714 882.247 138.378 885.36 138.086L882.819 130.234H872.5Z" fill="#F44A45"/>
<path d="M915.259 148.973L923.251 151.475L925.757 156.478L932.104 157.517V162.976L925.757 178.944L915.259 163.959L914.859 157.738L915.259 148.973Z" fill="#F44A45"/>
<path d="M805.151 360.772L808.643 362.674H813.06L816.93 363.354L820.625 360.772L824.554 355.6L828.309 351.733L828.828 349.193L832.066 346.874L834.077 345.032C834.077 345.032 830.688 343.113 829.526 343.776C828.361 344.439 826.432 345.699 826.432 345.699L819.614 352.221L817.039 353.495L812.839 358.474L809.414 359.028C809.414 359.028 805.386 360.298 805.151 360.772Z" fill="#F44A45"/>
<path d="M185.343 237.621H174.736L160.15 241.021L155.273 237.621L146.891 235.341L136.284 237.621L115.681 236.221C116.211 238.941 116.723 242.404 118.018 243.376C119.983 244.849 120.804 252.382 121.13 253.365C121.456 254.347 122.113 256.638 123.751 257.294C125.386 257.951 127.516 264.01 128.007 265.645C128.498 267.284 133.246 271.049 134.393 271.378C135.54 271.705 136.032 268.757 136.032 268.757C136.032 268.757 132.102 263.519 131.772 262.207C131.446 260.898 129.972 256.803 129.807 256.312C129.646 255.821 126.207 244.523 126.86 244.523C127.516 244.523 128.333 244.849 128.333 244.849C128.333 244.849 132.919 255.656 133.575 257.13C134.228 258.603 142.091 267.449 143.073 268.431C144.056 269.413 146.182 282.676 146.673 283.168C147.165 283.659 156.827 292.336 157.81 293.157C158.792 293.974 165.013 297.578 166.487 298.395C167.96 299.213 171.238 299.378 171.729 299.378C172.22 299.378 182.536 299.543 182.862 300.195C183.188 300.851 188.592 306.42 188.921 307.237C189.248 308.055 197.763 308.055 198.911 308.384C200.054 308.711 202.019 313.132 202.349 314.44C202.675 315.753 212.5 326.559 213.647 327.707C214.791 328.851 220.524 329.015 221.342 328.851C222.159 328.689 224.124 327.707 224.78 327.051C225.436 326.394 225.436 324.103 225.436 324.103C225.436 324.103 223.798 322.303 222.98 322.303H219.05C219.05 322.303 213.156 318.37 212.665 317.226C212.173 316.079 213.808 300.686 213.482 300.034C213.156 299.378 201.528 297.413 201.037 296.43C200.546 295.448 201.037 292.336 201.037 292.336C201.037 292.336 204.64 284.15 204.64 283.168C204.64 282.185 200.819 279.399 200.819 279.399C200.819 279.399 187.283 287.259 186.465 287.75C185.644 288.241 173.529 286.932 172.873 285.95C172.22 284.967 173.364 262.372 173.694 260.407C174.02 258.442 179.915 252.217 182.536 251.565C185.153 250.909 198.911 251.235 200.054 250.744C201.202 250.253 205.458 248.126 205.458 248.126L197.276 241.021L185.343 237.621Z" fill="#167C51"/>
<path d="M306.163 152.66L298.468 143.001C298.468 143.001 296.174 130.556 295.682 129.9C295.191 129.244 291.426 125.314 291.426 125.314C291.426 125.314 288.64 128.426 288.149 128.917L286.184 130.882L279.963 130.226C279.963 130.226 278.325 119.749 277.672 119.258C277.016 118.767 267.192 112.051 266.044 111.56C264.897 111.069 257.368 112.707 256.711 112.707C256.055 112.707 253.438 126.461 253.438 126.461C253.438 126.461 251.634 128.917 251.308 129.408C250.982 129.9 251.143 133.338 252.126 133.664C253.108 133.994 253.108 138.577 253.108 138.577L250.652 144.636C250.652 144.636 246.396 147.583 245.74 148.075C245.087 148.566 243.775 157.899 243.775 158.555C243.775 159.211 242.452 163.467 241.147 162.811C239.845 162.158 239.193 157.738 239.193 157.738L236.08 156.099C236.08 156.099 235.098 150.531 234.607 149.057C234.115 147.583 226.091 143.162 226.091 143.162C226.091 143.162 217.414 136.942 216.758 136.777C216.102 136.612 210.207 134.486 210.207 134.486L209.39 131.7C209.39 131.7 206.934 130.882 206.604 130.391C206.278 129.9 206.113 125.644 207.095 124.496C208.078 123.349 219.379 108.286 220.361 107.795C221.344 107.304 225.6 106.813 225.6 106.813C225.6 106.813 235.915 95.8409 237.224 95.0234C238.536 94.2024 243.614 93.0585 243.614 93.0585C243.614 93.0585 250.326 90.9288 250.982 90.4376C251.634 89.9463 252.782 79.4659 252.126 78.6484C251.473 77.8274 245.087 77.0098 244.431 77.3361C243.775 77.6659 243.614 81.1045 241.81 81.7606C240.01 82.4132 235.098 86.999 235.098 86.999C235.098 86.999 234.442 79.4659 233.951 79.4659C233.459 79.4659 229.365 79.301 229.365 79.301C229.365 79.301 228.056 75.7923 227.565 76.1537C227.074 76.5186 225.274 76.1291 225.274 76.1291C225.274 76.1291 225.109 69.6416 224.453 67.8416C223.8 66.0382 220.197 64.4031 220.197 64.4031C220.197 64.4031 215.119 71.2801 214.958 71.7714C214.793 72.2626 216.593 74.3888 216.593 74.3888L221.344 76.1923C221.344 76.1923 219.54 78.9747 219.379 79.7922C219.214 80.6133 215.941 81.5957 215.941 81.5957L214.467 78.8098L209.064 75.3713C209.064 75.3713 204.148 78.3186 204.478 79.301C204.804 80.2834 206.604 80.9396 206.604 80.9396L204.969 82.743C204.969 82.743 196.618 83.3956 194.653 83.3956C192.688 83.3956 183.517 80.9396 182.534 81.1045C181.552 81.2659 180.243 84.543 180.243 84.543C180.243 84.543 174.51 84.8693 173.857 84.7079C173.201 84.543 160.921 83.3956 161.086 82.9044C161.247 82.4132 162.886 80.7746 162.886 80.7746L162.23 79.301L149.784 77.8273C149.784 77.8273 148.311 76.1923 146.676 75.2099C145.037 74.2274 134.23 74.2274 134.23 74.2274C134.23 74.2274 132.922 72.424 131.609 72.0977C130.301 71.7714 116.217 72.7538 116.217 72.7538C116.217 72.7538 109.831 77.0098 108.849 77.1747C107.866 77.3361 98.2067 76.3537 98.2067 76.3537C98.2067 76.3537 92.3121 72.2626 90.6736 72.0977C89.035 71.9328 77.2458 70.789 76.2634 70.4591C75.281 70.1328 71.6811 68.6592 71.6811 68.6592C71.6811 68.6592 68.8952 69.6416 68.404 69.6416C67.9127 69.6416 65.9479 68.003 64.6392 67.1855C63.3269 66.368 47.9378 65.2207 46.6256 65.8768C45.3168 66.5294 41.7134 68.3329 41.7134 68.3329C41.7134 68.3329 33.6891 71.1152 33.0364 71.1152C32.3803 71.1152 31.0716 75.3713 29.5979 75.8625C28.1243 76.3537 22.2297 76.6835 22.0648 77.3361C21.8999 77.9923 21.0824 80.4483 21.0824 80.4483C21.0824 80.4483 25.8296 83.2342 26.1594 83.8869C26.4857 84.543 25.6682 86.9991 26.8121 87.4903C27.9594 87.9815 24.0297 88.9639 23.2121 88.799C22.3911 88.6376 17.479 90.4376 17.479 90.4376C17.479 90.4376 14.3703 93.8761 14.2054 94.5322C14.0404 95.1848 14.2054 96.497 14.2054 96.497C14.2054 96.497 24.6858 96.3321 24.6858 97.3146C24.6858 98.297 24.1946 101.079 24.1946 101.079C24.1946 101.079 17.4789 103.535 17.1526 104.518C16.8263 105.5 10.437 110.416 10.1107 111.234C9.78442 112.051 9.94582 120.567 10.9283 121.223C11.9142 121.875 13.2229 122.696 13.2229 122.696C13.2229 122.696 13.2229 125.479 13.3878 126.135C13.5492 126.787 24.6858 127.609 24.6858 127.609C24.6858 127.609 25.177 132.029 24.1946 132.356C23.2121 132.682 15.8439 135.794 13.7141 136.285C11.5844 136.777 1.43376 145.292 1.43376 145.292C1.43376 145.292 0.286418 146.275 1.43376 146.44C2.57759 146.601 11.5844 141.527 12.0756 141.527C12.5668 141.527 18.9526 141.198 21.2473 141.036C23.5384 140.871 30.4155 135.142 31.3979 134.156C32.3803 133.173 34.6715 129.082 34.6715 129.082C34.6715 129.082 38.931 127.444 40.0749 126.952C41.2222 126.461 42.5309 123.679 42.5309 123.679L49.2466 114.672C49.2466 114.672 52.5202 115.819 52.0289 116.311C51.5377 116.802 44.8256 122.531 45.3168 122.858C45.808 123.188 43.8432 125.97 44.8256 125.644C45.808 125.314 52.1938 121.875 53.5026 121.875C54.8148 121.875 56.6148 121.549 56.6148 121.549C56.6148 121.549 58.5797 118.275 59.2358 118.275C59.8884 118.275 62.5094 121.223 63.1655 121.384C63.8181 121.549 78.0669 121.058 79.5405 121.549C81.0142 122.04 83.9615 125.152 83.9615 125.152C83.9615 125.152 89.1999 125.479 90.5087 125.479C91.8209 125.479 93.7858 128.1 93.7858 128.1C93.7858 128.1 98.533 140.054 99.6804 141.689C100.828 143.327 102.463 159.373 102.954 160.029C103.445 160.685 105.74 161.176 106.722 161.994C107.705 162.811 108.849 167.071 109.505 167.397C110.161 167.727 112.287 171.165 112.287 171.165C112.287 171.165 108.849 174.604 108.196 175.095C107.54 175.586 108.031 190.975 107.213 192.123C106.392 193.27 103.284 196.217 103.284 197.2C103.284 198.182 102.463 210.627 102.954 213.575C103.445 216.522 109.013 231.585 110.652 231.75C112.287 231.915 113.599 231.423 114.743 233.058C115.133 233.616 115.41 234.82 115.683 236.22L136.283 237.62L146.89 235.339L155.272 237.62L160.149 241.02L174.735 237.62H185.345L197.278 241.02L205.46 248.125C205.46 248.125 213.976 248.125 215.119 248.942C216.267 249.76 219.54 261.061 220.361 262.044C221.179 263.026 225.109 266.3 225.435 265.644C225.765 264.991 227.565 261.061 227.565 261.061C227.565 261.061 225.926 250.09 225.926 249.433C225.926 248.777 226.582 244.686 226.256 243.704C225.926 242.721 236.572 234.532 238.045 233.55C239.519 232.567 241.649 229.95 241.649 229.95C241.649 229.95 244.266 220.287 245.087 219.796C245.905 219.304 253.273 209.315 254.255 208.989C255.238 208.663 260.315 205.877 261.297 205.224C262.28 204.568 262.606 201.786 263.262 200.803C263.915 199.821 269.483 195.726 269.483 195.726C269.483 195.726 274.725 196.217 275.543 195.726C276.36 195.235 279.963 195.726 279.963 195.726L289.132 189.993C289.132 189.993 281.763 183.446 280.781 183.607C279.799 183.772 279.637 177.712 280.128 176.895C280.62 176.077 282.093 173.456 282.093 173.456C282.093 173.456 281.928 170.674 282.584 170.344C283.237 170.018 290.605 169.2 290.605 169.2C290.605 169.2 294.538 170.344 295.521 170.344C296.503 170.344 309.601 160.846 309.601 160.846C309.601 160.846 309.275 155.281 309.601 154.79C309.928 154.299 306.163 152.66 306.163 152.66Z" fill="#F44A45"/>
<path d="M474.598 175.083L480.776 176.855L484.008 175.971C484.008 175.971 486.548 176.666 488.029 175.971L489.51 175.273V171.199L487.183 168.529L482.011 166.585C482.011 166.585 475.977 173.536 474.598 175.083Z" fill="#F44A45"/>
</svg>
