<svg width="187" height="188" viewBox="0 0 187 188" fill="none" xmlns="http://www.w3.org/2000/svg">
<path d="M140.69 55.8183C138.947 57.0011 138.447 59.4046 139.362 61.5488C136.873 63.6684 133.907 65.9217 130.44 68.1032C128.51 69.3131 126.616 70.3827 124.802 71.3231C124.578 70.9942 124.347 70.6653 124.111 70.3396C122.965 68.7552 121.726 67.2799 120.415 65.9071C120.776 64.6483 121.322 63.2051 122.161 61.6995C123.607 59.0832 125.393 57.2339 126.9 55.9833C128.983 57.2306 131.527 56.9932 132.902 55.3014C134.453 53.3947 133.943 50.3678 131.755 48.5455C129.571 46.7195 126.545 46.7784 124.994 48.6852C123.584 50.4233 123.882 53.0909 125.601 54.9329C124.801 56.7413 123.374 59.1061 120.871 61.0145C119.639 61.9574 118.411 62.5816 117.356 63.0045C115.078 61.0492 112.627 59.3701 110.042 57.9842C110.404 56.1722 110.921 54.1546 111.688 52.0137C112.794 48.9093 114.135 46.2914 115.438 44.1656C117.709 44.7457 119.998 43.8299 120.852 41.8583C121.835 39.5963 120.542 36.7954 117.974 35.6039C115.406 34.4128 112.522 35.2888 111.541 37.5536C110.689 39.5186 111.549 41.8934 113.476 43.2592C112.797 45.693 111.802 48.4639 110.307 51.3747C109.295 53.3573 108.208 55.0938 107.158 56.5761C104.604 55.442 101.954 54.5777 99.2522 53.9945C98.2779 51.4335 97.4381 48.2274 97.2784 44.5189C97.1369 41.0458 97.6219 38.0853 98.2163 35.8209C100.575 35.6811 102.492 34.0517 102.67 31.8611C102.877 29.376 100.784 27.1124 97.9879 26.8097C95.198 26.4967 92.768 28.2582 92.5661 30.7404C92.3882 32.931 93.988 34.9522 96.2916 35.6055C96.5066 37.8999 96.5155 40.9318 95.7844 44.3544C94.9775 48.131 93.5533 51.0729 92.3145 53.1056C89.14 52.9776 85.9583 53.2215 82.8308 53.856C82.4667 52.6358 82.2115 51.3275 82.1092 49.9342C82.0333 48.826 82.0602 47.7834 82.1531 46.8224C84.4874 46.2761 86.1074 44.2833 85.8744 42.0595C85.6222 39.5703 83.1553 37.7262 80.3689 37.9436C77.5821 38.1605 75.5316 40.351 75.7862 42.8434C76.0136 45.0308 77.9479 46.7214 80.3039 46.9503C80.5935 47.9814 80.8415 49.0889 81.0287 50.2651C81.2508 51.6137 81.3756 52.9139 81.4191 54.1685C81.1075 54.2439 80.803 54.3198 80.4988 54.4055C76.9144 55.3541 73.4315 56.8347 70.1474 58.8579C68.609 57.8104 67.0277 56.5601 65.4664 55.0603C62.2839 51.9972 60.185 48.8462 58.8149 46.3305C60.3868 44.6439 60.6876 42.1741 59.4059 40.4016C57.9288 38.3591 54.912 38.019 52.6661 39.6431C50.4156 41.2706 49.789 44.2454 51.2661 46.2879C52.5697 48.0907 55.0742 48.5631 57.1895 47.5323C59.2388 49.5063 61.8034 52.4889 63.8399 56.6237C64.7307 58.4479 65.3859 60.2236 65.8719 61.9085C63.007 64.2438 60.5638 66.9137 58.5415 69.8313C57.7189 69.4869 56.9103 69.0854 56.054 68.5415C54.3613 67.462 53.0777 66.2317 52.1201 65.1273C53.1962 62.9174 52.673 60.2923 50.7944 58.9941C48.7265 57.5679 45.8022 58.2921 44.2614 60.6142C42.7252 62.9331 43.153 65.9709 45.2258 67.3943C47.0126 68.6231 49.4311 68.2505 51.0481 66.6357C52.4003 67.378 53.8547 68.3094 55.3238 69.5001C56.108 70.1259 56.8208 70.7772 57.4852 71.4378C55.7472 74.223 54.3841 77.2017 53.3932 80.3035C51.6762 80.2797 49.8354 80.1422 47.8885 79.8292C43.4071 79.1073 39.744 77.6921 37.0596 76.3784C37.2832 74.0311 36.0197 71.8157 33.9389 71.1647C31.5561 70.4209 29.0052 72.0055 28.2406 74.7034C27.4809 77.3986 28.7931 80.1878 31.171 80.9344C33.2811 81.5877 35.5109 80.4286 36.5321 78.2861C39.27 78.6132 43.1348 79.457 47.2702 81.6974C49.1638 82.7203 50.7948 83.8672 52.1968 85.0225C52.0893 85.5905 51.9847 86.1721 51.8984 86.7503C51.4781 89.6568 51.3629 92.6221 51.5732 95.5885C50.6643 95.9082 49.6945 96.201 48.6629 96.4468C45.3083 97.2448 42.3219 97.329 40.0114 97.1916C39.2931 94.8988 37.249 93.343 35.0906 93.588C32.6426 93.8625 30.9686 96.3635 31.3546 99.1715C31.7355 101.982 34.0347 104.034 36.4914 103.752C38.6446 103.51 40.1968 101.547 40.2798 99.1681C42.493 98.5212 45.4154 97.9376 48.8721 97.9496C49.9045 97.9534 50.8879 98.0138 51.8326 98.1066C52.4419 102.723 53.8437 107.299 56.0672 111.626C54.6182 112.88 52.9957 114.153 51.1623 115.392C48.545 117.162 46.0125 118.524 43.7033 119.583C42.1842 117.578 39.6259 116.83 37.6888 117.935C35.556 119.152 34.9865 122.139 36.4128 124.608C37.8437 127.074 40.7271 128.09 42.8547 126.875C44.7525 125.792 45.4045 123.311 44.5252 121.035C46.6252 119.581 49.0859 118.092 51.9263 116.716C53.8961 115.762 55.7913 114.99 57.6002 114.348C58.1676 115.285 58.7829 116.203 59.4374 117.108C60.9918 119.258 62.7068 121.218 64.5616 122.98C63.6896 125.387 62.2864 128.415 59.9496 131.519C57.9022 134.239 55.7296 136.232 53.8808 137.66C51.8898 136.34 49.3845 136.43 47.9192 138.007C46.2527 139.801 46.5711 142.85 48.6386 144.811C50.7065 146.772 53.738 146.904 55.4045 145.109C56.8501 143.553 56.8014 141.068 55.426 139.157C56.8951 137.108 58.7423 134.847 61.056 132.571C63.7129 129.958 66.3472 127.953 68.6796 126.42C71.6162 128.579 74.7969 130.302 78.1109 131.588C77.8062 132.725 77.4141 133.912 76.8851 135.139C75.8796 137.485 74.6562 139.377 73.4861 140.873C71.3007 139.954 68.874 140.535 67.7439 142.374C66.461 144.469 67.3539 147.415 69.7461 148.945C71.2486 149.905 72.988 150.084 74.3917 149.56C75.2211 149.254 75.9347 148.703 76.4137 147.922C76.5519 147.693 76.6707 147.446 76.7569 147.193C77.438 145.306 76.6373 142.995 74.7607 141.595C75.6221 139.843 76.7245 137.927 78.165 135.963C79.0957 134.699 80.043 133.582 80.975 132.587C82.9155 133.187 84.8971 133.634 86.8871 133.93C87.0746 133.96 87.2666 133.987 87.4487 134.009C87.9696 136.392 88.3733 139.454 88.1954 142.983C88.0198 146.438 87.3463 149.348 86.621 151.584C84.2701 151.572 82.2686 153.057 81.9402 155.211C81.5623 157.67 83.5044 160.069 86.2779 160.569C89.0396 161.072 91.5947 159.484 91.9676 157.028C92.2964 154.893 90.8739 152.802 88.6796 151.965C88.7158 149.474 88.9704 146.51 89.6774 143.255C90.4432 139.756 91.5403 136.782 92.6374 134.381C96.3968 134.401 100.167 133.891 103.82 132.836C104.519 134.041 105.199 135.394 105.798 136.899C107.104 140.177 107.667 143.154 107.902 145.475C105.759 146.44 104.55 148.647 105.132 150.78C105.796 153.198 108.521 154.607 111.221 153.926C113.916 153.248 115.566 150.732 114.908 148.303C114.332 146.198 112.201 144.856 109.877 144.996C108.901 142.7 107.927 139.854 107.242 136.536C106.912 134.915 106.693 133.379 106.558 131.931C109.244 130.935 111.847 129.632 114.327 127.998C116.116 129.65 117.999 131.584 119.863 133.838C122.639 137.189 124.706 140.438 126.239 143.246C124.678 144.929 124.381 147.395 125.66 149.163C127.137 151.206 130.154 151.545 132.409 149.915C134.654 148.291 135.277 145.32 133.8 143.277C132.526 141.516 130.102 141.021 128.02 141.963C125.814 139.554 123.403 136.564 121.066 132.968C119.49 130.541 118.186 128.193 117.1 126.003C119.542 124.087 121.692 121.928 123.541 119.583C123.995 119.791 124.456 120.017 124.919 120.256C127.983 121.827 130.35 123.666 132.066 125.266C131.146 127.405 131.679 129.882 133.477 131.135C135.53 132.579 138.462 131.875 140.021 129.569C141.574 127.263 141.171 124.221 139.113 122.78C137.289 121.5 134.775 121.912 133.143 123.63C131.169 122.727 128.491 121.144 126.002 118.439C125.692 118.105 125.4 117.768 125.127 117.428C127.05 114.632 128.581 111.608 129.713 108.443C132.036 108.608 134.606 108.951 137.363 109.572C141.604 110.525 145.183 111.901 148.008 113.227C147.8 115.558 149.061 117.751 151.128 118.401C153.514 119.14 156.06 117.558 156.824 114.86C157.585 112.166 156.274 109.379 153.894 108.63C151.835 107.989 149.649 109.084 148.604 111.137C145.469 110.567 141.781 109.643 137.776 108.126C135.187 107.146 132.851 106.066 130.777 104.966C131.138 103.563 131.424 102.142 131.638 100.7C131.98 98.3448 132.123 95.9524 132.049 93.5568C134.476 92.6804 137.406 91.8487 140.782 91.3389C144.037 90.8415 146.984 90.7509 149.479 90.8477C150.186 93.0962 152.176 94.6436 154.306 94.4361C156.764 94.204 158.48 91.7329 158.146 88.9206C157.81 86.1049 155.542 84.0193 153.084 84.2513C150.937 84.4556 149.348 86.3755 149.215 88.7342C146.933 89.3243 144.011 89.8313 140.604 89.8304C137.066 89.8307 134.007 89.2987 131.613 88.6633C131.273 86.3879 130.741 84.1223 130.011 81.8902C130.997 81.2287 132.082 80.5786 133.252 79.9802C136.275 78.4357 139.11 77.5887 141.422 77.1159C142.671 79.1585 145.013 80.1617 147.018 79.389C149.31 78.5068 150.311 75.6485 149.254 73.0027C148.193 70.3597 145.481 68.9312 143.184 69.8166C141.172 70.5888 140.154 72.8971 140.656 75.2456C138.697 76.4251 136.022 77.7236 132.686 78.5661C131.421 78.881 130.197 79.0996 129.04 79.2386C128.239 77.2609 127.28 75.3233 126.149 73.444C127.722 72.0943 129.437 70.7199 131.309 69.3611C134.605 66.9627 137.785 65.0346 140.681 63.488C142.346 65.1212 144.764 65.5322 146.505 64.3564C148.534 62.9767 148.879 59.9469 147.267 57.5939C145.66 55.2377 142.715 54.4423 140.69 55.8183Z" fill="#FFE1E1"/>
</svg>
