<svg width="213" height="29" viewBox="0 0 213 29" fill="none" xmlns="http://www.w3.org/2000/svg">
<path d="M11.7736 1.29018C11.4421 1.24107 10.3003 1.14286 8.97445 1.14286C6.1999 1.14286 4.297 2.83705 4.297 5.94308V8.61942H1.16642V12.2533H4.297V21.5714H8.05369V12.2533H11.172L11.6508 8.61942H8.05369V6.29911C8.05369 5.25558 8.33606 4.53125 9.8461 4.53125H11.7736V1.29018Z" fill="#035755"/>
<path d="M63.5812 14.9911L69.5232 11.9219L63.5812 8.81585V14.9911ZM65.8524 4.40848C67.2274 4.40848 68.5533 4.42894 69.8301 4.46987C71.1151 4.5026 72.0563 4.53943 72.6538 4.58036L73.55 4.62946C73.5581 4.62946 73.6277 4.63765 73.7587 4.65402C73.8896 4.6622 73.9837 4.67448 74.041 4.69085C74.0983 4.69903 74.1924 4.7154 74.3234 4.73995C74.4625 4.76451 74.5812 4.79725 74.6794 4.83817C74.7776 4.87909 74.8922 4.93229 75.0232 4.99777C75.1541 5.06324 75.281 5.14509 75.4038 5.2433C75.5265 5.33333 75.6452 5.43973 75.7598 5.5625C75.8089 5.61161 75.8703 5.68936 75.9439 5.79576C76.0258 5.89397 76.1445 6.13132 76.3 6.50781C76.4637 6.8843 76.5741 7.29762 76.6314 7.74777C76.6969 8.27158 76.746 8.83222 76.7788 9.42969C76.8197 10.019 76.8442 10.4814 76.8524 10.817V11.308V12.9777C76.8606 14.1644 76.7869 15.3512 76.6314 16.5379C76.5741 16.9881 76.4718 17.3973 76.3245 17.7656C76.1772 18.1257 76.0462 18.3754 75.9317 18.5145L75.7598 18.7232C75.6452 18.846 75.5265 18.9565 75.4038 19.0547C75.281 19.1447 75.1541 19.2225 75.0232 19.2879C74.8922 19.3452 74.7776 19.3943 74.6794 19.4353C74.5812 19.4762 74.4625 19.5089 74.3234 19.5335C74.1924 19.558 74.0942 19.5785 74.0288 19.5949C73.9715 19.6031 73.8773 19.6153 73.7464 19.6317C73.6236 19.6399 73.5581 19.644 73.55 19.644C71.4956 19.7995 68.9298 19.8772 65.8524 19.8772C64.1582 19.8609 62.685 19.8363 61.4328 19.8036C60.1887 19.7626 59.3703 19.7299 58.9774 19.7054L58.3759 19.6562L57.9339 19.6071C57.6392 19.5662 57.4142 19.5253 57.2587 19.4844C57.1113 19.4435 56.9026 19.3575 56.6326 19.2266C56.3706 19.0956 56.1415 18.9278 55.9451 18.7232C55.8959 18.6741 55.8305 18.6004 55.7486 18.5022C55.675 18.3958 55.5563 18.1544 55.3926 17.7779C55.2371 17.4014 55.1307 16.9881 55.0734 16.5379C55.0079 16.0141 54.9547 15.4576 54.9138 14.8683C54.8811 14.2708 54.8606 13.8043 54.8524 13.4688V12.9777V11.308C54.8442 10.1213 54.9179 8.93452 55.0734 7.74777C55.1307 7.29762 55.233 6.89248 55.3803 6.53237C55.5276 6.16406 55.6586 5.91034 55.7732 5.7712L55.9451 5.5625C56.0596 5.43973 56.1783 5.33333 56.3011 5.2433C56.4238 5.14509 56.5507 5.06324 56.6817 4.99777C56.8126 4.93229 56.9272 4.87909 57.0254 4.83817C57.1236 4.79725 57.2382 4.76451 57.3692 4.73995C57.5083 4.7154 57.6065 4.69903 57.6638 4.69085C57.7211 4.67448 57.8152 4.6622 57.9462 4.65402C58.0771 4.63765 58.1467 4.62946 58.1549 4.62946C60.2092 4.48214 62.775 4.40848 65.8524 4.40848Z" fill="#F44A45"/>
<path d="M143.113 7.50223C143.031 9.43378 141.673 12.0978 139.037 15.4944C136.312 19.0219 134.012 20.7857 132.138 20.7857C130.975 20.7857 129.993 19.7094 129.191 17.5569C128.831 16.2474 128.291 14.2749 127.571 11.6395C126.981 9.49516 126.339 8.42299 125.643 8.42299C125.496 8.42299 124.976 8.734 124.084 9.35603L123.139 8.1529C123.335 7.98103 123.777 7.58817 124.465 6.97433C125.152 6.35231 125.684 5.8776 126.061 5.55022C127.337 4.42076 128.324 3.82329 129.019 3.75781C129.797 3.68415 130.423 3.91332 130.898 4.44531C131.372 4.96912 131.704 5.79985 131.892 6.9375C132.252 9.28646 132.522 10.8129 132.702 11.5167C133.153 13.5547 133.644 14.5737 134.176 14.5737C134.593 14.5737 135.223 13.9148 136.066 12.5971C136.893 11.2794 137.339 10.2727 137.404 9.57701C137.511 8.43936 137.065 7.87053 136.066 7.87053C135.6 7.87053 135.105 7.97693 134.581 8.18973C135.563 4.97321 137.441 3.40997 140.216 3.5C142.27 3.56548 143.236 4.89955 143.113 7.50223Z" fill="#035755"/>
<path d="M207.892 6.15178C207.344 6.95387 206.681 7.63728 205.903 8.20201C205.912 8.31659 205.916 8.48847 205.916 8.71763C205.916 9.78162 205.76 10.8456 205.449 11.9096C205.138 12.9654 204.663 13.9803 204.025 14.9542C203.395 15.9282 202.642 16.7917 201.766 17.5446C200.89 18.2894 199.835 18.8869 198.599 19.3371C197.363 19.779 196.041 20 194.633 20C192.415 20 190.385 19.4066 188.544 18.2199C188.83 18.2526 189.15 18.269 189.502 18.269C191.343 18.269 192.984 17.7042 194.425 16.5748C193.565 16.5584 192.796 16.2965 192.117 15.7891C191.437 15.2734 190.971 14.6187 190.717 13.8248C190.987 13.8657 191.237 13.8862 191.466 13.8862C191.818 13.8862 192.166 13.8411 192.509 13.7511C191.593 13.5629 190.832 13.1086 190.226 12.3884C189.628 11.66 189.33 10.817 189.33 9.85937V9.81027C189.886 10.1213 190.484 10.2891 191.122 10.3136C190.582 9.9535 190.152 9.48289 189.833 8.90178C189.514 8.32068 189.354 7.69048 189.354 7.01116C189.354 6.29092 189.534 5.62388 189.894 5.01004C190.885 6.22954 192.088 7.20759 193.504 7.9442C194.928 8.67262 196.45 9.07775 198.071 9.1596C198.005 8.84859 197.973 8.54576 197.973 8.25112C197.973 7.15439 198.357 6.22135 199.127 5.45201C199.904 4.67448 200.841 4.28571 201.938 4.28571C203.084 4.28571 204.05 4.70312 204.835 5.53795C205.727 5.36607 206.566 5.04687 207.352 4.58036C207.049 5.52158 206.468 6.25 205.609 6.76562C206.37 6.68378 207.131 6.47917 207.892 6.15178Z" fill="#035755"/>
</svg>
